<svg id="svg" version="1.1" xmlns="http://www.w3.org/2000/svg" xmlns:xlink="http://www.w3.org/1999/xlink" width="400" height="400" viewBox="0, 0, 400,400"><g id="svgg"><path id="path0" d="M59.820 16.447 C 56.011 18.514,56.000 18.639,56.000 58.347 L 56.000 96.000 93.822 96.000 C 135.698 96.000,134.224 96.182,136.001 90.798 C 136.699 88.684,136.699 87.316,136.001 85.202 C 134.286 80.007,134.266 80.003,107.622 79.971 L 83.600 79.942 88.392 75.427 C 162.022 6.056,287.843 23.718,341.836 111.004 C 420.803 238.664,305.595 398.142,160.029 362.674 C 57.617 337.721,2.176 219.997,49.167 127.266 C 50.344 124.942,51.193 122.950,51.054 122.838 C 49.703 121.760,36.629 115.105,36.369 115.364 C 35.320 116.414,27.853 133.462,25.745 139.621 C 12.188 179.238,12.737 225.865,27.216 264.577 C 68.386 374.651,202.453 418.733,300.590 354.465 C 412.442 281.214,411.971 117.844,299.697 44.924 C 230.199 -0.214,137.152 7.822,75.400 64.294 L 72.000 67.404 72.000 44.049 C 72.000 29.561,71.687 20.110,71.176 19.156 C 69.296 15.642,63.743 14.318,59.820 16.447 M194.109 42.109 C 188.872 47.346,192.542 56.000,200.000 56.000 C 205.305 56.000,208.000 53.305,208.000 48.000 C 208.000 42.695,205.305 40.000,200.000 40.000 C 196.981 40.000,195.793 40.425,194.109 42.109 M272.400 60.715 C 265.394 63.762,266.411 74.449,273.886 76.343 C 282.300 78.476,288.054 67.841,281.632 62.029 C 279.879 60.443,274.716 59.708,272.400 60.715 M329.050 116.090 C 319.852 118.722,322.182 132.508,331.764 132.148 C 335.429 132.010,337.885 130.375,339.202 127.195 C 341.920 120.634,335.959 114.114,329.050 116.090 M125.619 149.232 C 92.017 158.646,87.995 229.135,120.196 244.281 C 148.027 257.372,177.132 232.561,168.094 203.450 C 160.726 179.717,127.789 174.617,114.361 195.130 C 111.246 199.889,114.572 180.364,118.043 173.515 C 125.461 158.877,148.879 158.086,152.459 172.352 C 152.968 174.379,153.057 174.400,160.973 174.400 L 168.973 174.400 168.457 172.200 C 164.317 154.577,144.489 143.946,125.619 149.232 M211.127 149.472 C 194.293 155.028,186.782 170.025,186.822 198.000 C 186.868 229.742,197.400 245.768,219.023 247.001 C 244.210 248.437,256.891 230.228,255.791 194.203 C 254.736 159.645,236.287 141.168,211.127 149.472 M227.984 163.400 C 245.143 172.166,245.499 223.723,228.458 231.972 C 213.972 238.984,203.140 226.608,201.876 201.600 C 200.453 173.461,212.675 155.578,227.984 163.400 M286.000 188.693 C 276.735 191.131,271.200 197.304,271.200 205.200 C 271.200 214.787,275.450 218.198,292.609 222.378 C 300.692 224.348,304.000 226.314,304.000 229.150 C 304.000 237.011,289.175 239.215,282.673 232.321 C 279.604 229.066,269.581 228.052,269.618 231.000 C 269.841 248.823,306.707 251.982,314.491 234.845 C 320.099 222.498,314.119 216.593,289.708 210.378 C 282.925 208.651,280.826 204.651,284.680 200.797 C 289.038 196.439,296.815 196.655,301.423 201.263 C 304.004 203.844,304.471 204.000,309.616 204.000 L 315.071 204.000 314.257 201.000 C 311.737 191.715,297.719 185.609,286.000 188.693 M42.109 194.109 C 36.872 199.346,40.542 208.000,48.000 208.000 C 55.458 208.000,59.128 199.346,53.891 194.109 C 52.207 192.425,51.019 192.000,48.000 192.000 C 44.981 192.000,43.793 192.425,42.109 194.109 M346.109 194.109 C 344.425 195.793,344.000 196.981,344.000 200.000 C 344.000 203.019,344.425 204.207,346.109 205.891 C 347.793 207.575,348.981 208.000,352.000 208.000 C 355.019 208.000,356.207 207.575,357.891 205.891 C 359.575 204.207,360.000 203.019,360.000 200.000 C 360.000 196.981,359.575 195.793,357.891 194.109 C 356.207 192.425,355.019 192.000,352.000 192.000 C 348.981 192.000,347.793 192.425,346.109 194.109 M144.896 198.235 C 158.432 205.306,157.315 225.852,143.062 231.983 C 131.220 237.078,117.759 229.537,116.271 216.974 C 114.428 201.412,130.650 190.793,144.896 198.235 M65.850 268.090 C 56.652 270.722,58.982 284.508,68.564 284.148 C 72.229 284.010,74.685 282.375,76.002 279.195 C 78.720 272.634,72.759 266.114,65.850 268.090 M328.400 268.291 C 325.246 269.689,324.019 271.262,323.477 274.605 C 321.811 284.867,336.995 288.170,339.547 278.101 C 341.281 271.256,334.725 265.486,328.400 268.291 M119.482 324.696 C 114.802 327.634,114.381 334.736,118.677 338.298 C 121.314 340.486,126.616 340.388,129.334 338.101 C 137.336 331.368,128.345 319.134,119.482 324.696 M272.000 324.223 C 269.278 325.583,267.057 330.164,267.648 333.200 C 269.294 341.661,281.285 342.226,284.009 333.972 C 286.260 327.152,278.593 320.928,272.000 324.223 M194.109 346.109 C 192.425 347.793,192.000 348.981,192.000 352.000 C 192.000 355.019,192.425 356.207,194.109 357.891 C 195.793 359.575,196.981 360.000,200.000 360.000 C 203.019 360.000,204.207 359.575,205.891 357.891 C 207.575 356.207,208.000 355.019,208.000 352.000 C 208.000 348.981,207.575 347.793,205.891 346.109 C 204.207 344.425,203.019 344.000,200.000 344.000 C 196.981 344.000,195.793 344.425,194.109 346.109 " stroke="none" fill="#000000" fill-rule="evenodd"></path></g></svg>