<svg id="svg" version="1.1" xmlns="http://www.w3.org/2000/svg" xmlns:xlink="http://www.w3.org/1999/xlink" width="400" height="288.75" viewBox="0, 0, 400,288.75"><g id="svgg"><path id="path0" d="M167.415 1.409 C 163.794 3.644,161.057 7.473,159.086 13.058 C 158.079 15.913,158.897 26.960,160.443 31.370 C 161.469 34.298,161.468 34.305,159.745 36.792 C 157.829 39.556,157.528 39.721,152.188 40.935 C 139.381 43.844,138.440 44.313,137.744 48.125 C 137.525 49.328,136.396 52.311,135.235 54.753 C 134.075 57.195,133.125 59.455,133.125 59.775 C 133.125 60.094,132.343 60.817,131.387 61.382 L 129.649 62.409 128.923 59.353 C 128.524 57.672,127.636 55.513,126.949 54.555 C 126.263 53.597,125.383 51.582,124.993 50.079 C 124.604 48.575,123.981 46.606,123.609 45.704 C 122.755 43.630,122.567 42.843,122.103 39.375 C 121.896 37.828,121.478 36.089,121.176 35.510 C 120.873 34.931,120.625 33.454,120.625 32.229 C 120.625 29.652,119.360 29.230,117.898 31.318 C 116.539 33.258,112.500 28.519,112.500 24.985 C 112.500 24.240,112.112 22.884,111.639 21.971 C 111.165 21.059,110.396 19.505,109.930 18.518 C 106.874 12.046,104.190 19.933,107.114 26.790 C 111.343 36.705,111.735 37.929,111.823 41.496 C 111.872 43.523,112.043 45.392,112.203 45.650 C 112.362 45.908,112.041 46.292,111.489 46.504 C 110.770 46.780,110.586 47.375,110.840 48.601 C 112.733 57.736,113.625 61.215,114.485 62.813 C 115.040 63.844,115.818 65.891,116.214 67.362 C 118.348 75.298,123.367 83.750,125.944 83.750 C 127.819 83.750,137.389 80.685,137.852 79.937 C 138.043 79.628,138.500 79.375,138.869 79.375 C 139.962 79.375,138.987 84.398,137.545 86.196 C 129.037 96.806,128.277 105.146,134.861 115.613 C 137.344 119.560,139.375 123.146,139.375 123.582 C 139.375 124.018,139.642 124.375,139.968 124.375 C 141.959 124.375,146.811 129.091,146.383 130.610 C 146.138 131.477,145.965 137.353,145.999 143.666 L 146.060 155.144 143.403 154.780 C 141.542 154.525,140.531 154.673,140.031 155.275 C 139.054 156.452,132.110 157.223,130.974 156.280 C 130.313 155.732,129.310 155.785,126.771 156.503 C 123.447 157.445,108.823 159.032,108.300 158.508 C 108.148 158.356,108.326 157.667,108.695 156.977 C 109.662 155.170,111.331 148.380,111.792 144.378 C 112.145 141.309,112.397 140.844,114.155 140.003 C 120.047 137.186,127.908 126.753,128.738 120.650 C 130.612 106.859,112.756 102.722,106.537 115.506 C 105.983 116.644,105.130 117.729,104.640 117.917 C 104.151 118.105,103.750 118.659,103.750 119.149 C 103.750 120.557,102.349 120.737,99.425 119.705 C 95.283 118.244,94.321 118.483,89.431 122.187 C 86.935 124.078,84.636 125.625,84.322 125.625 C 84.007 125.625,83.750 126.011,83.750 126.482 C 83.750 126.953,80.867 129.885,77.344 132.997 L 70.938 138.654 70.500 136.193 C 69.916 132.911,69.771 132.734,66.485 131.280 C 64.925 130.590,62.805 129.316,61.776 128.450 C 60.746 127.584,59.380 126.875,58.739 126.875 C 58.098 126.875,57.375 126.553,57.131 126.159 C 56.737 125.521,57.243 124.265,60.408 118.029 C 61.316 116.240,61.580 109.375,60.741 109.375 C 60.461 109.375,59.767 108.401,59.200 107.211 C 58.126 104.959,53.980 102.300,51.992 102.587 C 51.412 102.671,50.275 102.517,49.465 102.244 C 46.058 101.098,41.251 106.362,41.243 111.250 C 41.230 119.065,38.541 123.166,35.453 120.078 C 32.948 117.573,25.625 120.328,25.625 123.776 C 25.625 125.128,25.388 125.495,24.688 125.226 C 23.540 124.786,23.386 126.623,24.531 127.088 C 25.091 127.315,25.116 127.551,24.620 127.921 C 24.238 128.205,23.192 129.826,22.294 131.524 C 21.282 133.436,20.004 134.879,18.935 135.316 C 17.386 135.949,17.198 136.356,17.091 139.301 C 17.006 141.661,16.633 142.877,15.763 143.634 C 14.410 144.813,13.431 147.262,13.665 148.882 C 13.853 150.176,12.689 152.500,11.853 152.500 C 10.868 152.500,11.167 151.137,12.344 150.262 C 14.163 148.908,12.590 147.222,9.311 147.011 C 4.175 146.680,-2.301 151.589,1.842 152.673 C 3.673 153.151,3.559 157.968,1.570 164.195 C -1.177 172.798,-0.462 176.257,4.567 178.692 C 7.889 180.300,9.067 180.334,10.121 178.851 C 10.570 178.219,11.721 177.508,12.678 177.271 C 14.397 176.846,15.717 174.819,15.972 172.216 C 16.129 170.612,20.554 166.896,22.321 166.884 C 23.081 166.879,25.131 166.313,26.875 165.625 C 28.619 164.938,30.322 164.375,30.660 164.375 C 31.636 164.375,30.596 167.710,29.295 168.754 C 28.649 169.272,27.159 172.647,25.983 176.254 C 24.807 179.861,23.088 184.500,22.164 186.563 C 21.239 188.625,19.686 193.406,18.713 197.188 C 17.740 200.969,16.418 205.903,15.774 208.152 C 14.770 211.661,14.638 213.881,14.849 223.777 C 15.261 243.092,15.180 246.216,14.240 247.349 C 13.882 247.782,13.743 249.092,13.933 250.262 C 14.460 253.509,9.278 259.426,5.053 260.401 C 0.274 261.504,-1.135 265.356,2.656 266.955 C 6.055 268.389,24.656 267.469,26.341 265.784 C 27.005 265.120,28.021 257.610,28.355 250.888 C 28.459 248.799,28.768 246.727,29.041 246.284 C 29.315 245.842,29.499 238.130,29.451 229.146 L 29.363 212.813 31.610 208.438 C 32.846 206.031,34.504 203.210,35.294 202.167 C 36.084 201.125,36.836 199.719,36.965 199.042 C 37.383 196.838,40.387 197.078,41.817 199.430 C 43.256 201.796,45.351 209.264,46.184 215.000 C 46.809 219.301,49.877 228.242,53.046 235.000 C 55.854 240.985,56.900 245.770,56.970 252.932 C 57.018 257.912,57.231 259.378,57.948 259.653 C 58.653 259.924,58.803 260.837,58.598 263.596 C 58.451 265.571,58.601 269.496,58.933 272.317 L 59.535 277.447 62.424 277.885 C 64.828 278.250,72.617 276.966,73.528 276.056 C 73.620 275.964,73.300 274.743,72.817 273.342 C 72.154 271.418,72.100 270.274,72.593 268.665 C 73.161 266.816,72.961 265.797,71.072 260.924 C 69.173 256.024,68.842 254.322,68.458 247.500 C 67.821 236.163,66.620 230.079,63.991 224.858 C 61.757 220.422,59.817 214.974,60.300 214.492 C 60.440 214.352,64.156 217.018,68.558 220.417 C 72.961 223.816,77.906 227.556,79.549 228.730 C 83.318 231.421,83.502 232.238,82.500 241.836 C 81.292 253.416,80.704 255.377,76.985 260.229 C 72.085 266.622,73.132 270.013,80.265 270.851 C 85.665 271.486,87.048 269.796,87.756 261.698 C 88.351 254.892,89.407 252.645,89.224 258.574 C 89.079 263.274,89.666 264.704,91.458 264.016 C 92.369 263.666,92.500 262.391,92.497 253.839 C 92.494 246.205,92.727 243.412,93.558 241.094 C 94.818 237.579,94.329 237.626,99.375 240.535 C 104.466 243.469,104.489 244.703,99.676 256.186 C 97.776 260.721,97.289 266.677,98.682 268.356 C 99.611 269.475,102.273 269.743,102.604 268.751 C 102.723 268.396,103.930 268.680,105.404 269.409 C 107.329 270.362,108.936 270.643,111.654 270.502 L 115.313 270.313 115.505 267.645 C 115.705 264.883,114.632 263.335,110.622 260.598 C 109.230 259.647,109.221 259.553,109.982 254.188 C 110.821 248.280,111.164 247.701,113.185 248.782 C 115.892 250.231,116.979 247.757,114.541 245.696 C 112.663 244.109,112.564 243.834,113.144 241.837 C 114.056 238.699,116.722 223.496,117.216 218.620 C 117.574 215.075,117.884 214.267,119.217 213.394 C 120.725 212.406,120.778 212.165,120.424 207.943 L 120.054 203.526 133.117 190.669 L 146.179 177.813 146.609 183.697 C 147.030 189.461,146.846 193.072,145.650 202.500 C 144.719 209.835,144.890 227.400,146.006 239.073 C 147.017 249.661,147.016 249.731,145.647 254.608 C 144.891 257.302,144.431 260.140,144.626 260.913 C 144.871 261.890,144.010 264.055,141.809 268.003 C 136.531 277.467,137.026 280.568,144.077 282.227 C 157.716 285.435,164.375 281.108,164.375 269.035 C 164.375 263.624,164.497 262.976,165.571 262.695 C 169.422 261.688,171.040 218.541,167.750 204.586 C 166.043 197.346,169.051 166.873,173.506 146.280 C 173.889 144.507,175.687 147.836,176.567 151.947 C 177.412 155.900,180.137 164.018,181.936 167.946 C 184.435 173.401,186.196 180.467,186.887 187.813 C 187.211 191.250,188.180 196.856,189.040 200.271 C 191.110 208.483,192.455 221.871,192.372 233.438 C 192.303 243.029,193.887 260.421,195.023 262.544 C 195.404 263.256,195.492 265.693,195.244 268.671 C 194.778 274.253,195.005 274.586,199.791 275.352 C 201.911 275.691,202.444 276.130,203.776 278.640 C 206.493 283.762,211.014 285.771,220.058 285.875 C 227.717 285.964,229.493 283.736,225.938 278.497 C 223.687 275.181,223.817 274.890,229.832 269.757 L 235.290 265.100 237.089 266.144 C 239.468 267.523,239.610 268.045,238.743 272.224 C 237.842 276.562,238.482 277.482,242.736 277.962 C 246.420 278.377,249.020 276.898,248.586 274.632 C 248.428 273.803,248.524 273.125,248.799 273.125 C 249.074 273.125,249.387 274.180,249.494 275.469 C 249.749 278.553,252.062 278.926,252.399 275.938 C 252.698 273.283,256.860 268.254,257.626 269.623 C 257.935 270.174,258.561 270.625,259.017 270.625 C 259.474 270.625,260.289 271.258,260.828 272.031 L 261.809 273.438 261.916 271.563 C 261.975 270.531,261.972 269.312,261.909 268.853 C 261.482 265.715,264.138 268.892,264.703 272.195 C 265.243 275.350,265.562 275.969,266.734 276.137 C 268.430 276.381,268.547 275.102,267.181 271.231 C 266.013 267.921,266.258 267.632,268.701 269.438 C 270.046 270.432,270.625 271.382,270.625 272.596 C 270.625 274.614,272.496 276.004,273.654 274.846 C 274.051 274.449,274.375 273.503,274.375 272.743 C 274.375 271.343,279.592 274.190,284.275 278.145 C 285.079 278.824,286.027 279.200,286.383 278.980 C 286.738 278.761,290.529 278.592,294.807 278.605 C 300.865 278.624,302.659 278.438,302.917 277.766 C 303.475 276.310,309.809 273.184,310.599 273.974 C 311.092 274.467,311.621 274.444,312.507 273.891 C 316.383 271.470,323.465 273.796,321.567 276.867 C 321.016 277.759,322.892 280.625,324.027 280.625 C 324.508 280.625,325.094 281.505,325.330 282.580 C 325.630 283.945,326.290 284.735,327.521 285.199 C 328.491 285.565,329.596 286.551,329.978 287.390 C 330.662 288.889,330.776 288.909,336.743 288.593 C 345.844 288.112,347.122 286.751,342.903 282.033 C 336.671 275.063,340.677 271.386,351.535 274.111 C 352.844 274.440,353.023 274.821,352.925 277.065 C 352.835 279.137,353.043 279.688,353.988 279.882 C 355.602 280.213,356.279 278.866,355.850 276.172 C 355.634 274.810,355.766 273.736,356.183 273.479 C 356.624 273.206,356.875 270.449,356.875 265.872 C 356.875 258.867,356.917 258.652,358.594 257.003 L 360.313 255.313 360.529 256.875 C 360.648 257.734,361.019 258.771,361.353 259.179 C 361.739 259.648,361.745 260.336,361.372 261.054 C 361.048 261.677,360.741 264.156,360.690 266.563 C 360.640 268.969,360.534 271.750,360.455 272.742 C 360.307 274.617,361.470 275.302,371.250 279.096 C 373.506 279.972,379.764 280.291,381.511 279.621 C 384.017 278.659,381.395 273.750,378.376 273.750 C 377.510 273.750,376.960 273.493,377.155 273.178 C 377.349 272.863,376.800 271.763,375.933 270.734 C 374.048 268.493,372.374 264.710,372.994 264.090 C 373.238 263.846,373.471 261.068,373.512 257.917 C 373.558 254.430,373.989 251.007,374.614 249.172 C 375.179 247.514,375.482 245.899,375.286 245.582 C 375.091 245.266,375.226 242.359,375.587 239.122 C 377.042 226.071,376.461 215.920,373.474 202.188 C 372.950 199.781,372.517 196.576,372.511 195.065 C 372.501 192.527,367.071 174.742,365.622 172.500 C 365.289 171.984,364.580 170.783,364.048 169.831 L 363.080 168.100 365.759 166.951 C 369.456 165.366,380.504 156.989,381.020 155.379 C 381.252 154.655,381.480 151.888,381.525 149.230 C 381.628 143.234,384.219 139.602,387.903 140.290 C 389.994 140.680,392.982 137.868,394.021 134.531 C 394.306 133.617,394.953 133.125,395.871 133.125 C 396.647 133.125,397.894 132.474,398.641 131.678 C 400.795 129.386,400.195 124.312,397.876 125.202 C 397.325 125.413,396.875 125.313,396.875 124.980 C 396.875 124.647,396.453 124.375,395.938 124.375 C 395.422 124.375,395.000 124.656,395.000 125.000 C 395.000 125.344,394.700 125.625,394.333 125.625 C 393.967 125.625,392.745 126.328,391.618 127.188 C 390.491 128.047,389.244 128.750,388.847 128.750 C 388.450 128.750,388.125 129.031,388.125 129.375 C 388.125 129.719,387.703 130.000,387.188 130.000 C 386.672 130.000,386.250 130.281,386.250 130.625 C 386.250 130.969,385.841 131.250,385.342 131.250 C 384.842 131.250,383.902 132.445,383.252 133.906 C 382.586 135.403,379.087 139.699,375.234 143.750 C 371.474 147.703,366.948 152.484,365.176 154.374 L 361.955 157.811 360.196 156.207 C 359.229 155.324,357.664 154.123,356.719 153.537 C 355.773 152.951,355.000 151.954,355.000 151.322 C 355.000 150.095,349.267 141.018,347.965 140.185 C 347.166 139.674,347.011 137.899,346.968 128.826 C 346.923 119.383,342.400 112.875,335.881 112.875 C 334.753 112.875,333.970 112.650,334.140 112.375 C 334.310 112.100,334.168 111.875,333.824 111.875 C 333.480 111.875,333.025 112.156,332.813 112.500 C 332.600 112.844,331.604 113.125,330.598 113.125 C 327.248 113.125,321.036 121.665,319.687 128.125 C 319.436 129.328,318.932 130.683,318.567 131.135 C 318.094 131.721,318.140 132.610,318.724 134.227 C 319.274 135.748,319.475 138.772,319.332 143.404 C 318.594 167.411,319.338 174.537,322.929 177.866 L 324.537 179.356 323.050 180.602 C 321.765 181.678,318.166 183.111,316.719 183.122 C 316.461 183.123,316.246 182.633,316.241 182.031 C 316.237 181.430,314.687 177.601,312.797 173.523 C 309.775 167.001,309.379 165.691,309.507 162.632 C 309.602 160.356,309.392 159.068,308.897 158.903 C 306.376 158.063,305.670 156.416,303.787 146.996 C 302.735 141.734,301.875 136.899,301.875 136.252 C 301.875 135.123,300.822 133.969,300.284 134.507 C 300.032 134.760,301.879 146.586,303.153 152.874 C 303.586 155.008,303.595 156.968,303.181 158.811 C 302.790 160.549,302.781 161.781,303.156 162.156 C 303.483 162.483,303.750 163.408,303.750 164.213 C 303.750 165.017,304.352 166.490,305.088 167.486 C 306.267 169.080,307.836 177.797,307.104 178.685 C 306.773 179.087,301.875 175.661,301.875 175.028 C 301.875 174.709,302.194 174.252,302.583 174.011 C 304.775 172.656,302.161 161.329,299.344 159.973 C 291.936 156.406,288.541 155.674,285.876 157.069 C 282.271 158.956,277.228 165.810,278.970 166.453 C 279.508 166.652,279.509 166.909,278.973 167.480 C 277.989 168.529,275.753 167.289,275.288 165.437 C 274.309 161.537,280.889 147.420,284.652 145.347 C 286.283 144.449,287.280 143.380,287.599 142.187 C 287.864 141.195,290.256 138.197,292.914 135.523 C 295.571 132.850,297.560 130.477,297.333 130.250 C 296.935 129.851,290.935 134.727,288.497 137.430 C 287.685 138.330,286.555 138.750,284.948 138.750 C 283.651 138.750,282.218 139.154,281.763 139.648 C 280.150 141.403,277.525 144.728,275.495 147.585 C 274.364 149.179,272.085 152.132,270.432 154.148 C 268.779 156.163,266.582 159.641,265.548 161.875 L 263.670 165.938 264.885 168.456 L 266.100 170.974 260.239 169.706 L 254.378 168.438 254.376 162.385 C 254.376 159.056,253.949 154.308,253.429 151.835 C 252.346 146.688,253.234 144.755,255.841 146.581 C 256.636 147.138,257.495 147.233,258.449 146.871 C 259.422 146.501,260.236 146.607,261.029 147.208 C 263.407 149.009,268.285 147.503,275.429 142.762 C 281.286 138.875,282.306 136.019,279.763 130.625 C 278.690 128.350,285.083 123.773,289.375 123.744 C 291.840 123.728,292.709 123.302,296.407 120.300 C 298.728 118.416,301.169 116.875,301.831 116.875 C 303.457 116.875,305.000 115.227,305.000 113.490 C 305.000 111.875,303.219 110.000,301.685 110.000 C 300.875 110.000,300.736 109.601,301.031 108.125 C 301.463 105.968,298.044 105.181,297.249 107.254 C 296.975 107.966,296.414 108.145,295.318 107.870 C 294.208 107.591,293.571 107.803,293.060 108.621 C 292.569 109.409,291.811 109.682,290.611 109.506 C 289.275 109.310,288.779 109.550,288.463 110.546 C 288.118 111.631,287.864 111.723,286.889 111.114 C 285.990 110.552,285.503 110.573,284.738 111.208 C 283.459 112.269,283.480 113.537,284.787 114.268 C 285.710 114.785,285.670 114.932,284.420 115.601 C 283.345 116.176,283.105 116.708,283.396 117.868 C 283.804 119.497,275.651 125.625,273.076 125.625 C 272.450 125.625,271.712 126.004,271.437 126.467 C 270.903 127.366,265.644 131.486,263.708 132.523 C 262.752 133.034,262.382 132.836,261.649 131.417 C 259.170 126.623,252.947 121.250,249.875 121.250 C 248.265 121.250,246.774 120.966,246.559 120.620 C 245.793 119.380,248.219 109.756,249.760 107.925 C 252.240 104.978,250.753 102.500,246.505 102.500 C 244.718 102.500,244.468 102.252,243.779 99.791 C 241.680 92.293,229.375 93.916,229.375 101.691 C 229.375 104.012,229.057 104.692,227.217 106.308 C 223.426 109.637,223.743 112.570,228.019 113.722 C 229.717 114.179,231.138 115.278,233.015 117.585 C 236.239 121.548,235.708 122.213,228.626 123.093 C 223.709 123.704,219.381 127.114,219.377 130.382 C 219.376 131.107,218.672 132.737,217.813 134.003 C 216.953 135.269,216.250 136.535,216.250 136.816 C 216.250 137.096,215.521 138.399,214.631 139.711 C 213.600 141.230,212.886 143.318,212.665 145.455 C 212.373 148.290,212.058 148.946,210.644 149.678 C 209.723 150.154,208.075 151.379,206.982 152.400 C 204.677 154.553,205.010 155.124,203.392 146.250 C 201.413 135.393,200.556 123.431,201.925 125.781 C 202.773 127.237,205.086 127.167,207.046 125.625 C 207.920 124.938,209.020 124.375,209.491 124.375 C 213.546 124.375,213.700 122.069,210.535 108.665 L 208.671 100.767 213.394 94.290 C 215.992 90.727,219.902 85.290,222.083 82.206 C 225.618 77.208,226.497 76.372,230.193 74.501 C 234.550 72.295,238.125 68.439,238.125 65.945 C 238.125 65.224,239.346 63.437,240.837 61.973 L 243.550 59.311 245.591 61.218 C 246.714 62.267,247.782 63.125,247.966 63.125 C 248.150 63.125,248.659 63.617,249.099 64.218 C 250.831 66.587,250.543 64.350,248.667 60.871 C 246.675 57.178,244.151 52.187,242.918 49.503 C 242.555 48.714,240.956 47.133,239.363 45.989 C 237.703 44.796,235.987 42.874,235.342 41.485 C 233.683 37.916,232.547 36.875,230.313 36.875 C 226.517 36.875,224.813 41.295,227.656 43.767 C 232.784 48.225,233.210 48.748,232.790 50.071 C 232.242 51.798,228.684 57.031,227.586 57.727 C 227.117 58.023,226.261 58.739,225.684 59.316 C 225.106 59.894,223.724 60.743,222.612 61.203 C 221.501 61.664,219.685 63.117,218.577 64.433 C 213.427 70.551,209.645 68.653,207.486 58.868 C 203.200 39.446,202.353 37.217,198.902 36.297 C 194.804 35.204,187.354 34.236,185.363 34.537 C 184.304 34.697,182.660 34.500,181.711 34.098 L 179.984 33.368 182.179 30.280 C 183.387 28.581,184.375 26.861,184.375 26.456 C 184.375 26.052,185.127 24.827,186.046 23.735 C 190.854 18.021,187.438 4.398,180.395 1.200 C 176.614 -0.517,170.372 -0.416,167.415 1.409 M220.692 81.094 C 218.306 85.425,208.236 98.065,207.890 97.163 C 207.397 95.880,207.440 95.811,212.718 89.375 C 219.105 81.586,222.179 78.394,220.692 81.094 M209.672 87.031 C 208.381 88.492,207.082 89.955,206.787 90.281 C 206.480 90.621,206.250 89.636,206.250 87.977 C 206.250 84.836,205.889 85.093,211.166 84.475 C 211.636 84.420,210.964 85.570,209.672 87.031 M294.022 111.940 C 293.443 112.877,291.885 112.577,292.259 111.602 C 292.448 111.108,293.000 110.856,293.486 111.042 C 293.971 111.229,294.212 111.633,294.022 111.940 M289.688 113.125 C 289.900 113.469,289.799 113.750,289.463 113.750 C 289.127 113.750,288.337 113.943,287.707 114.180 C 286.700 114.558,286.665 114.483,287.420 113.555 C 288.396 112.356,289.126 112.217,289.688 113.125 M42.254 125.351 C 43.321 126.533,44.484 127.500,44.837 127.500 C 45.455 127.500,46.224 129.468,46.241 131.094 C 46.246 131.523,45.851 131.875,45.364 131.875 C 43.533 131.875,38.179 138.865,38.558 140.760 C 38.994 142.941,38.677 142.931,34.608 140.635 C 32.790 139.608,30.926 138.914,30.465 139.090 C 28.547 139.827,26.617 136.499,27.655 134.245 C 29.215 130.856,29.970 127.916,29.750 126.079 C 29.516 124.114,29.984 123.693,33.104 123.063 C 37.136 122.249,40.127 122.997,42.254 125.351 M272.711 137.264 C 272.569 138.032,267.347 138.847,266.701 138.201 C 265.626 137.126,270.168 134.959,271.561 135.884 C 272.249 136.341,272.767 136.962,272.711 137.264 M84.887 141.719 C 84.498 142.664,83.999 144.703,83.777 146.250 L 83.374 149.063 82.312 146.642 C 80.895 143.413,82.054 140.977,85.453 140.039 C 85.531 140.017,85.276 140.773,84.887 141.719 M26.262 145.848 C 26.270 146.776,27.219 147.764,29.349 149.063 L 32.425 150.938 30.465 152.969 C 29.387 154.086,28.169 155.000,27.758 155.000 C 27.347 155.000,25.798 155.543,24.315 156.207 C 20.167 158.065,20.154 157.997,22.927 148.949 C 24.459 143.953,26.231 142.305,26.262 145.848 M374.654 153.539 C 372.733 154.944,372.193 154.470,373.785 152.775 C 374.745 151.754,375.380 151.452,375.542 151.940 C 375.682 152.360,375.283 153.080,374.654 153.539 M141.032 162.244 C 141.887 163.549,142.435 163.794,143.859 163.509 C 147.029 162.875,147.220 162.600,130.940 182.164 L 119.067 196.431 118.363 191.497 C 117.976 188.783,117.024 185.156,116.248 183.438 C 115.472 181.719,114.301 179.148,113.647 177.726 C 112.992 176.303,111.932 173.651,111.292 171.833 L 110.127 168.527 115.220 166.424 C 119.698 164.575,120.772 164.363,124.124 164.668 C 128.302 165.049,132.500 163.818,132.500 162.213 C 132.500 161.595,133.418 161.246,135.469 161.084 C 137.102 160.956,138.783 160.800,139.204 160.738 C 139.626 160.676,140.449 161.353,141.032 162.244 M330.502 164.643 C 330.337 168.600,329.375 168.696,329.375 164.755 C 329.375 162.400,329.720 161.250,330.426 161.250 C 330.546 161.250,330.580 162.777,330.502 164.643 M66.257 164.531 C 66.289 175.777,73.625 184.141,80.704 181.001 C 82.797 180.073,84.565 195.330,83.738 207.188 C 82.926 218.831,82.824 218.011,85.156 218.616 C 86.273 218.905,87.163 219.265,87.133 219.415 C 86.997 220.103,84.812 226.586,84.653 226.773 C 84.555 226.889,78.968 223.136,72.237 218.433 L 60.000 209.882 59.846 201.660 C 59.762 197.137,59.778 190.978,59.883 187.972 C 60.012 184.278,59.734 181.241,59.024 178.597 C 56.439 168.976,57.019 166.726,62.957 163.348 C 66.191 161.508,66.249 161.529,66.257 164.531 M142.076 178.609 C 137.736 183.573,125.239 195.839,124.182 196.172 C 123.773 196.301,124.446 195.316,125.678 193.984 C 126.911 192.652,131.833 186.926,136.616 181.260 C 144.543 171.869,145.330 171.112,145.514 172.702 C 145.673 174.083,144.956 175.314,142.076 178.609 M213.211 181.464 C 212.884 181.862,211.983 184.370,211.210 187.037 C 210.437 189.705,209.720 191.804,209.618 191.702 C 209.516 191.600,209.138 188.855,208.778 185.602 C 208.418 182.349,207.991 178.514,207.830 177.080 L 207.537 174.472 210.672 177.606 C 212.830 179.764,213.621 180.966,213.211 181.464 M262.684 185.108 C 262.122 188.728,253.888 209.704,252.959 209.883 C 251.689 210.127,251.599 209.124,252.477 204.496 C 252.808 202.750,253.126 197.303,253.183 192.391 C 253.258 185.846,253.525 183.096,254.179 182.098 L 255.072 180.735 258.942 182.507 C 261.128 183.507,262.756 184.640,262.684 185.108 M271.168 186.633 C 276.580 188.019,277.135 188.833,276.664 194.688 C 275.807 205.329,274.119 209.557,270.595 209.893 C 269.408 210.005,267.953 210.535,267.360 211.069 C 266.384 211.948,266.134 211.943,264.726 211.020 C 263.024 209.905,258.750 209.623,258.750 210.625 C 258.750 211.340,256.255 211.496,256.240 210.781 C 256.204 209.135,265.296 184.979,265.870 185.194 C 266.251 185.337,268.635 185.984,271.168 186.633 M235.601 192.656 C 236.042 195.148,236.830 199.016,237.352 201.250 C 238.005 204.043,238.383 209.900,238.563 220.000 C 238.924 240.303,238.925 243.517,238.571 247.813 C 238.402 249.875,238.228 253.250,238.186 255.313 L 238.109 259.063 230.350 265.834 C 221.263 273.765,222.103 273.438,219.515 270.044 C 217.387 267.255,217.301 265.798,219.136 263.701 C 220.252 262.427,220.234 260.390,219.088 258.174 C 218.531 257.098,217.924 252.868,217.530 247.322 C 217.175 242.323,216.628 237.556,216.313 236.729 C 214.859 232.904,215.262 219.546,216.898 217.364 C 218.931 214.653,223.920 204.689,226.371 198.446 C 227.869 194.628,229.003 192.835,231.196 190.815 C 234.863 187.438,234.663 187.354,235.601 192.656 M359.222 206.432 C 361.996 212.359,364.043 225.113,363.160 230.969 C 362.852 233.014,362.406 236.937,362.170 239.687 L 361.739 244.687 359.857 240.937 C 358.823 238.875,357.451 236.688,356.810 236.078 C 355.521 234.852,355.648 227.174,357.017 223.559 C 357.499 222.286,357.485 221.610,356.965 221.090 C 355.766 219.891,356.016 202.500,357.233 202.500 C 357.315 202.500,358.210 204.270,359.222 206.432 M351.911 221.347 C 350.397 222.573,350.245 224.531,351.563 225.848 C 352.909 227.195,352.871 235.164,351.513 236.291 C 350.970 236.741,349.691 238.674,348.670 240.586 C 347.650 242.498,346.988 243.359,347.200 242.500 C 347.412 241.641,347.709 238.735,347.860 236.042 C 348.012 233.350,348.415 230.627,348.755 229.990 C 349.096 229.353,349.369 228.040,349.362 227.072 C 349.354 226.104,350.128 222.570,351.080 219.219 L 352.813 213.125 353.004 216.715 C 353.165 219.724,352.988 220.474,351.911 221.347 M308.450 216.103 C 310.092 217.285,311.104 221.250,309.764 221.250 C 308.574 221.250,307.722 220.052,307.210 217.656 C 306.785 215.668,307.172 215.183,308.450 216.103 M103.141 222.031 C 102.395 223.148,101.207 224.989,100.502 226.120 C 99.045 228.460,98.421 228.446,99.316 226.094 C 99.893 224.575,103.552 220.000,104.189 220.000 C 104.359 220.000,103.887 220.914,103.141 222.031 M102.893 237.940 C 102.572 238.261,97.500 235.011,97.500 234.485 C 97.500 234.292,98.695 232.150,100.156 229.724 L 102.813 225.313 102.992 231.487 C 103.091 234.883,103.047 237.787,102.893 237.940 M330.099 227.889 C 328.638 228.527,328.122 229.092,328.383 229.771 C 328.588 230.304,328.940 231.478,329.166 232.378 L 329.577 234.015 326.936 231.923 C 322.851 228.688,321.992 230.356,325.879 233.976 C 328.918 236.806,329.129 239.333,326.309 239.133 C 325.668 239.088,325.243 239.664,325.118 240.748 C 324.945 242.247,325.117 242.420,326.676 242.310 C 329.388 242.120,329.466 247.677,326.768 248.794 C 324.954 249.546,324.167 251.703,325.958 251.016 C 328.324 250.108,329.138 260.862,326.875 263.125 C 322.671 267.329,321.533 260.870,323.214 242.352 L 323.936 234.392 322.340 231.315 L 320.744 228.238 325.841 227.644 C 332.612 226.854,332.486 226.847,330.099 227.889 M358.867 245.110 C 362.144 251.750,362.187 252.046,360.059 253.303 C 355.894 255.763,355.505 255.220,355.709 247.233 C 355.809 243.305,356.052 240.190,356.249 240.312 C 356.446 240.434,357.624 242.593,358.867 245.110 M258.125 245.000 C 258.125 245.344,258.547 245.625,259.063 245.625 C 259.839 245.625,260.000 246.806,260.000 252.500 C 260.000 256.281,259.886 259.375,259.746 259.375 C 259.331 259.375,255.000 253.170,255.000 252.575 C 255.000 252.274,254.578 251.678,254.063 251.250 C 252.359 249.836,252.827 245.625,254.688 245.625 C 255.547 245.625,256.250 245.344,256.250 245.000 C 256.250 244.656,256.672 244.375,257.188 244.375 C 257.703 244.375,258.125 244.656,258.125 245.000 M349.375 250.000 C 349.375 253.188,349.122 253.539,347.540 252.538 C 346.772 252.052,346.808 251.603,347.791 249.422 C 349.256 246.175,349.375 246.218,349.375 250.000 M346.849 260.200 C 346.884 262.569,343.457 267.500,341.775 267.500 C 340.307 267.500,340.530 264.456,342.241 261.146 C 342.727 260.206,343.125 259.014,343.125 258.498 C 343.125 257.981,343.460 256.824,343.869 255.926 L 344.613 254.293 345.718 256.365 C 346.325 257.505,346.834 259.231,346.849 260.200 M255.325 259.872 L 257.071 263.807 255.749 264.733 C 255.022 265.243,254.569 266.028,254.742 266.479 C 254.915 266.931,254.622 267.660,254.091 268.101 C 253.230 268.816,253.125 268.171,253.125 262.160 C 253.125 258.451,253.227 255.534,253.352 255.677 C 253.477 255.820,254.365 257.708,255.325 259.872 M353.567 267.024 C 353.418 267.801,353.290 267.313,353.283 265.938 C 353.276 264.563,353.398 263.926,353.554 264.524 C 353.711 265.122,353.717 266.247,353.567 267.024 M349.754 268.489 C 349.546 269.032,349.375 269.735,349.375 270.051 C 349.375 270.367,348.233 270.625,346.838 270.625 C 343.945 270.625,344.037 269.803,347.079 268.471 C 349.726 267.311,350.205 267.314,349.754 268.489 " stroke="none" fill="#000000" fill-rule="evenodd"></path></g></svg>