<svg id="svg" version="1.1" xmlns="http://www.w3.org/2000/svg" xmlns:xlink="http://www.w3.org/1999/xlink" width="400" height="400" viewBox="0, 0, 400,400"><g id="svgg"><path id="path0" d="M335.917 2.885 C 335.400 6.735,335.223 62.176,335.724 63.481 C 336.122 64.519,337.361 64.648,347.042 64.658 C 353.021 64.664,364.579 64.776,372.727 64.907 C 380.875 65.038,389.739 64.988,392.424 64.797 L 397.306 64.449 397.378 57.645 C 397.417 53.903,397.644 47.735,397.883 43.939 C 398.158 39.558,398.070 36.931,397.643 36.751 C 397.231 36.577,397.282 36.244,397.774 35.893 C 398.347 35.485,398.405 34.551,397.976 32.639 C 397.645 31.165,397.434 23.874,397.508 16.438 C 397.623 4.890,397.496 2.886,396.633 2.703 C 393.188 1.973,336.017 2.144,335.917 2.885 M20.505 3.297 C 20.153 3.629,16.912 4.022,13.302 4.170 C 4.740 4.521,5.414 2.809,5.142 24.922 C 4.975 38.550,4.685 44.117,4.133 44.301 C 3.707 44.443,3.586 44.912,3.863 45.344 C 4.936 47.012,4.744 92.419,3.654 94.767 C 2.753 96.705,2.756 97.158,3.679 98.942 C 4.494 100.518,4.728 103.632,4.781 113.603 C 4.818 120.566,5.059 127.020,5.316 127.946 L 5.784 129.630 24.609 129.805 C 50.887 130.051,123.818 130.066,126.263 129.827 L 128.283 129.630 128.811 108.081 C 129.101 96.229,129.188 84.411,129.004 81.819 C 128.820 79.227,128.919 77.509,129.223 78.001 C 129.608 78.624,129.907 78.244,130.205 76.753 C 130.711 74.223,129.983 72.518,129.224 74.455 C 128.838 75.443,128.705 75.187,128.677 73.401 C 128.653 71.837,128.835 71.351,129.219 71.957 C 130.134 73.402,130.811 71.675,130.280 69.254 C 130.014 68.044,129.620 67.484,129.346 67.927 C 129.086 68.349,128.891 54.486,128.914 37.122 C 128.956 5.990,128.938 5.551,127.609 5.539 C 126.869 5.532,124.293 5.197,121.886 4.793 C 117.770 4.103,83.344 3.916,48.822 4.396 C 33.079 4.614,20.749 4.116,21.265 3.281 C 21.736 2.519,21.321 2.527,20.505 3.297 M396.633 33.670 L 396.633 63.973 366.667 63.973 L 336.700 63.973 336.700 33.670 L 336.700 3.367 366.667 3.367 L 396.633 3.367 396.633 33.670 M163.900 4.998 C 163.527 5.970,161.028 6.286,147.980 7.013 C 142.277 7.331,142.085 7.294,141.999 5.859 C 141.590 -1.005,140.835 16.929,140.743 35.690 C 140.623 59.999,140.276 67.548,139.303 66.947 C 138.519 66.463,138.580 67.137,139.638 70.679 C 140.201 72.559,140.343 74.535,140.020 75.968 C 139.443 78.524,139.785 100.681,140.416 101.703 C 140.638 102.063,140.575 102.357,140.275 102.357 C 139.976 102.357,139.775 110.918,139.829 121.381 C 139.907 136.280,139.736 140.623,139.040 141.414 C 137.329 143.360,137.213 145.779,138.709 148.314 C 140.063 150.608,140.133 151.618,140.140 168.798 C 140.147 185.287,140.767 193.840,141.967 194.001 C 143.469 194.202,163.169 194.458,178.451 194.473 C 199.369 194.495,195.785 194.408,205.724 195.137 C 210.168 195.462,214.260 195.508,214.816 195.237 C 216.081 194.621,291.237 194.993,292.251 195.620 C 292.659 195.872,297.296 195.750,302.557 195.350 C 307.817 194.949,314.938 194.515,318.381 194.384 C 326.755 194.067,326.081 196.193,326.123 169.965 C 326.142 157.460,326.362 147.808,326.610 148.516 C 326.859 149.225,327.078 142.939,327.097 134.548 C 327.116 126.156,327.384 118.890,327.691 118.400 C 327.998 117.909,328.159 116.960,328.049 116.290 C 327.938 115.620,328.146 114.710,328.511 114.270 C 329.368 113.233,328.686 109.631,327.694 109.958 C 327.255 110.103,326.776 112.593,326.556 115.878 L 326.177 121.549 326.073 114.141 C 325.984 107.854,326.104 106.912,326.863 107.912 C 327.946 109.338,328.620 109.424,328.620 108.137 C 328.620 107.612,328.998 107.044,329.461 106.874 C 330.135 106.627,330.135 106.387,329.461 105.673 C 328.998 105.183,328.620 104.145,328.620 103.367 C 328.620 102.589,328.252 101.585,327.802 101.135 C 326.755 100.088,326.616 98.202,326.352 81.481 C 326.153 68.831,326.172 68.550,326.580 78.114 L 327.024 88.552 326.821 76.768 C 326.708 70.286,326.440 62.029,326.225 58.418 C 325.938 53.606,326.045 51.852,326.627 51.852 C 327.181 51.852,327.273 51.092,326.932 49.327 C 326.461 46.894,326.175 38.185,326.428 34.007 C 326.496 32.896,326.574 26.759,326.601 20.370 L 326.652 8.754 324.100 8.659 L 321.549 8.563 324.242 8.094 C 325.929 7.800,324.292 7.669,319.865 7.742 C 315.624 7.813,312.416 7.567,311.850 7.129 C 310.836 6.344,251.665 6.136,203.704 6.748 C 169.089 7.190,164.748 7.031,165.191 5.339 C 165.580 3.850,164.455 3.552,163.900 4.998 M126.599 67.228 C 126.785 100.685,126.886 128.109,126.824 128.171 C 126.762 128.232,99.717 128.204,66.723 128.107 L 6.734 127.932 6.734 67.445 C 6.734 34.177,6.938 6.755,7.187 6.506 C 7.435 6.257,34.329 6.131,66.951 6.225 L 126.263 6.397 126.599 67.228 M323.232 100.337 C 323.232 149.966,323.308 190.800,323.401 191.077 C 323.718 192.028,143.920 192.031,143.324 191.080 C 142.441 189.670,142.631 12.079,143.517 11.011 C 144.145 10.255,159.415 10.101,233.752 10.101 L 323.232 10.101 323.232 100.337 M326.783 56.566 C 326.783 58.232,326.914 58.914,327.075 58.081 C 327.235 57.247,327.235 55.884,327.075 55.051 C 326.914 54.217,326.783 54.899,326.783 56.566 M335.917 69.552 C 335.400 73.401,335.223 128.843,335.724 130.147 C 336.122 131.184,337.373 131.317,347.042 131.345 C 353.021 131.363,366.609 131.429,377.238 131.492 C 387.868 131.555,396.700 131.464,396.865 131.291 C 397.031 131.118,397.345 125.121,397.563 117.965 C 397.782 110.808,398.118 104.698,398.311 104.386 C 398.504 104.074,398.281 103.664,397.816 103.476 C 397.166 103.212,397.156 103.000,397.774 102.560 C 398.347 102.151,398.405 101.218,397.976 99.306 C 397.645 97.832,397.434 90.541,397.508 83.105 C 397.623 71.557,397.496 69.553,396.633 69.370 C 393.188 68.640,336.017 68.811,335.917 69.552 M396.633 100.337 L 396.633 130.640 366.667 130.640 L 336.700 130.640 336.700 100.337 L 336.700 70.034 366.667 70.034 L 396.633 70.034 396.633 100.337 M2.584 136.219 C 2.067 140.068,1.890 195.509,2.390 196.814 C 2.788 197.851,4.040 197.983,13.708 198.012 C 19.687 198.030,33.276 198.096,43.905 198.158 C 54.534 198.221,63.367 198.131,63.532 197.958 C 63.697 197.785,64.012 191.788,64.230 184.631 C 64.449 177.475,64.785 171.364,64.978 171.052 C 65.171 170.741,64.948 170.331,64.482 170.142 C 63.833 169.879,63.823 169.667,64.441 169.227 C 65.014 168.818,65.072 167.884,64.645 165.977 C 64.314 164.504,64.104 157.214,64.177 149.775 C 64.290 138.225,64.162 136.220,63.300 136.037 C 59.856 135.306,2.683 135.478,2.584 136.219 M69.250 136.219 C 68.733 140.068,68.556 195.509,69.057 196.814 C 69.455 197.851,70.706 197.983,80.375 198.012 C 86.354 198.030,99.943 198.096,110.572 198.158 C 121.201 198.221,130.033 198.131,130.199 197.958 C 130.364 197.785,130.678 191.788,130.897 184.631 C 131.115 177.475,131.452 171.364,131.644 171.052 C 131.837 170.741,131.614 170.331,131.149 170.142 C 130.499 169.879,130.490 169.667,131.107 169.227 C 131.681 168.818,131.739 167.885,131.309 165.973 C 130.978 164.498,130.767 157.208,130.842 149.771 C 130.957 138.224,130.829 136.219,129.966 136.037 C 126.522 135.306,69.350 135.478,69.250 136.219 M335.917 136.219 C 335.400 140.068,335.223 195.509,335.724 196.814 C 336.122 197.851,337.373 197.983,347.042 198.012 C 353.021 198.030,366.609 198.096,377.238 198.158 C 387.868 198.221,396.700 198.131,396.865 197.958 C 397.031 197.785,397.345 191.788,397.563 184.631 C 397.782 177.475,398.118 171.364,398.311 171.052 C 398.504 170.741,398.281 170.331,397.816 170.142 C 397.166 169.879,397.156 169.667,397.774 169.227 C 398.347 168.818,398.405 167.885,397.976 165.973 C 397.645 164.498,397.434 157.208,397.508 149.771 C 397.623 138.224,397.496 136.219,396.633 136.037 C 393.188 135.306,336.017 135.478,335.917 136.219 M63.300 167.003 L 63.300 197.306 33.333 197.306 L 3.367 197.306 3.367 167.003 L 3.367 136.700 33.333 136.700 L 63.300 136.700 63.300 167.003 M129.966 167.003 L 129.966 197.306 100.000 197.306 L 70.034 197.306 70.034 167.003 L 70.034 136.700 100.000 136.700 L 129.966 136.700 129.966 167.003 M396.633 167.003 L 396.633 197.306 366.667 197.306 L 336.700 197.306 336.700 167.003 L 336.700 136.700 366.667 136.700 L 396.633 136.700 396.633 167.003 M2.584 202.885 C 2.067 206.735,1.890 262.176,2.390 263.481 C 2.788 264.518,4.040 264.650,13.708 264.679 C 19.687 264.696,33.276 264.762,43.905 264.825 C 54.534 264.888,63.367 264.798,63.532 264.625 C 63.697 264.451,64.012 258.454,64.230 251.298 C 64.449 244.142,64.785 238.031,64.978 237.719 C 65.171 237.407,64.948 236.998,64.482 236.809 C 63.833 236.546,63.823 236.333,64.441 235.893 C 65.014 235.485,65.072 234.551,64.643 232.639 C 64.311 231.165,64.101 223.874,64.175 216.438 C 64.290 204.890,64.162 202.886,63.300 202.703 C 59.855 201.973,2.683 202.144,2.584 202.885 M69.250 202.885 C 68.733 206.735,68.556 262.176,69.057 263.481 C 69.455 264.518,70.706 264.650,80.375 264.679 C 86.354 264.696,99.943 264.762,110.572 264.825 C 121.201 264.888,130.033 264.798,130.199 264.625 C 130.364 264.451,130.678 258.454,130.897 251.298 C 131.115 244.142,131.452 238.031,131.644 237.719 C 131.837 237.407,131.614 236.998,131.149 236.809 C 130.499 236.546,130.490 236.333,131.107 235.893 C 131.681 235.485,131.739 234.551,131.309 232.639 C 130.978 231.165,130.767 223.874,130.842 216.438 C 130.957 204.890,130.829 202.886,129.966 202.703 C 126.522 201.973,69.350 202.144,69.250 202.885 M135.917 202.885 C 135.400 206.735,135.223 262.176,135.724 263.481 C 136.122 264.518,137.373 264.650,147.042 264.679 C 153.021 264.696,166.609 264.762,177.238 264.825 C 187.868 264.888,196.700 264.798,196.865 264.625 C 197.031 264.451,197.345 258.454,197.563 251.298 C 197.782 244.142,198.118 238.031,198.311 237.719 C 198.504 237.407,198.281 236.998,197.816 236.809 C 197.166 236.546,197.156 236.333,197.774 235.893 C 198.347 235.485,198.405 234.551,197.976 232.639 C 197.645 231.165,197.434 223.874,197.508 216.438 C 197.623 204.890,197.496 202.886,196.633 202.703 C 193.188 201.973,136.017 202.144,135.917 202.885 M63.300 233.670 L 63.300 263.973 33.333 263.973 L 3.367 263.973 3.367 233.670 L 3.367 203.367 33.333 203.367 L 63.300 203.367 63.300 233.670 M129.966 233.670 L 129.966 263.973 100.000 263.973 L 70.034 263.973 70.034 233.670 L 70.034 203.367 100.000 203.367 L 129.966 203.367 129.966 233.670 M196.633 233.670 L 196.633 263.973 166.667 263.973 L 136.700 263.973 136.700 233.670 L 136.700 203.367 166.667 203.367 L 196.633 203.367 196.633 233.670 M230.567 204.998 C 230.194 205.970,227.695 206.286,214.646 207.013 C 208.944 207.331,208.751 207.294,208.666 205.859 C 208.257 198.995,207.502 216.929,207.410 235.690 C 207.290 259.999,206.942 267.548,205.969 266.947 C 205.186 266.463,205.246 267.137,206.305 270.679 C 206.867 272.559,207.010 274.535,206.687 275.968 C 206.110 278.524,206.451 300.681,207.083 301.703 C 207.305 302.063,207.242 302.357,206.942 302.357 C 206.642 302.357,206.442 310.918,206.496 321.381 C 206.573 336.280,206.402 340.623,205.707 341.414 C 203.996 343.360,203.880 345.779,205.375 348.314 C 206.729 350.608,206.800 351.618,206.807 368.798 C 206.813 385.287,207.433 393.840,208.634 394.001 C 210.136 394.202,229.836 394.458,245.118 394.473 C 266.035 394.495,262.451 394.408,272.391 395.137 C 276.835 395.462,280.927 395.508,281.483 395.237 C 282.747 394.621,357.903 394.993,358.918 395.620 C 359.325 395.872,363.963 395.750,369.223 395.350 C 374.484 394.949,381.605 394.515,385.048 394.384 C 393.422 394.067,392.748 396.193,392.789 369.965 C 392.809 357.460,393.028 347.808,393.277 348.516 C 393.526 349.225,393.745 342.939,393.764 334.548 C 393.783 326.156,394.050 318.890,394.357 318.400 C 394.665 317.909,394.822 316.936,394.706 316.237 C 394.591 315.538,394.829 314.760,395.236 314.509 C 396.199 313.914,395.369 309.626,394.355 309.960 C 393.923 310.102,393.441 312.620,393.223 315.878 L 392.844 321.549 392.739 314.141 C 392.651 307.854,392.771 306.912,393.530 307.912 C 394.612 309.338,395.286 309.424,395.286 308.137 C 395.286 307.612,395.665 307.044,396.128 306.874 C 396.801 306.627,396.801 306.387,396.128 305.673 C 395.665 305.183,395.286 304.145,395.286 303.367 C 395.286 302.589,394.918 301.585,394.468 301.135 C 393.421 300.088,393.282 298.202,393.019 281.481 C 392.820 268.831,392.839 268.550,393.246 278.114 L 393.691 288.552 393.487 276.768 C 393.375 270.286,393.107 262.029,392.892 258.418 C 392.605 253.606,392.712 251.852,393.293 251.852 C 393.848 251.852,393.940 251.092,393.598 249.327 C 393.127 246.894,392.841 238.185,393.095 234.007 C 393.162 232.896,393.240 226.759,393.268 220.370 L 393.318 208.754 390.767 208.659 L 388.215 208.563 390.909 208.094 C 392.595 207.800,390.958 207.669,386.532 207.742 C 382.291 207.813,379.083 207.567,378.516 207.129 C 377.502 206.344,318.332 206.136,270.370 206.748 C 235.756 207.190,231.415 207.031,231.857 205.339 C 232.247 203.850,231.122 203.552,230.567 204.998 M389.899 300.337 C 389.899 349.966,389.975 390.800,390.067 391.077 C 390.384 392.028,210.587 392.031,209.991 391.080 C 209.107 389.670,209.298 212.079,210.184 211.011 C 210.812 210.255,226.082 210.101,300.419 210.101 L 389.899 210.101 389.899 300.337 M393.449 256.566 C 393.449 258.232,393.581 258.914,393.741 258.081 C 393.902 257.247,393.902 255.884,393.741 255.051 C 393.581 254.217,393.449 254.899,393.449 256.566 M135.917 269.552 C 135.400 273.401,135.223 328.843,135.724 330.147 C 136.122 331.184,137.373 331.317,147.042 331.345 C 153.021 331.363,166.609 331.429,177.238 331.492 C 187.868 331.555,196.700 331.464,196.865 331.291 C 197.031 331.118,197.345 325.121,197.563 317.965 C 197.782 310.808,198.118 304.698,198.311 304.386 C 198.504 304.074,198.281 303.664,197.816 303.476 C 197.166 303.212,197.156 303.000,197.774 302.560 C 198.347 302.151,198.405 301.218,197.976 299.306 C 197.645 297.832,197.434 290.541,197.508 283.105 C 197.623 271.557,197.496 269.553,196.633 269.370 C 193.188 268.640,136.017 268.811,135.917 269.552 M20.505 269.964 C 20.153 270.296,16.912 270.689,13.302 270.837 C 4.740 271.188,5.414 269.476,5.142 291.589 C 4.975 305.217,4.685 310.784,4.133 310.968 C 3.707 311.110,3.586 311.579,3.863 312.010 C 4.936 313.679,4.744 359.086,3.654 361.433 C 2.753 363.372,2.756 363.824,3.679 365.609 C 4.494 367.185,4.728 370.299,4.781 380.270 C 4.818 387.232,5.059 393.687,5.316 394.613 L 5.784 396.296 24.609 396.472 C 50.887 396.717,123.818 396.733,126.263 396.494 L 128.283 396.296 128.811 374.747 C 129.101 362.896,129.188 351.078,129.004 348.486 C 128.820 345.894,128.919 344.176,129.223 344.668 C 129.608 345.291,129.907 344.910,130.205 343.419 C 130.711 340.889,129.983 339.184,129.224 341.122 C 128.838 342.109,128.705 341.854,128.677 340.067 C 128.653 338.503,128.835 338.018,129.219 338.624 C 130.134 340.068,130.811 338.342,130.280 335.921 C 130.014 334.710,129.620 334.151,129.346 334.594 C 129.086 335.015,128.891 321.153,128.914 303.789 C 128.956 272.657,128.938 272.218,127.609 272.206 C 126.869 272.199,124.293 271.863,121.886 271.460 C 117.770 270.770,83.344 270.582,48.822 271.062 C 33.079 271.281,20.749 270.782,21.265 269.948 C 21.736 269.185,21.321 269.194,20.505 269.964 M196.633 300.337 L 196.633 330.640 166.667 330.640 L 136.700 330.640 136.700 300.337 L 136.700 270.034 166.667 270.034 L 196.633 270.034 196.633 300.337 M126.599 333.895 C 126.785 367.352,126.886 394.776,126.824 394.837 C 126.762 394.899,99.717 394.871,66.723 394.774 L 6.734 394.598 6.734 334.112 C 6.734 300.844,6.938 273.421,7.187 273.173 C 7.435 272.924,34.329 272.797,66.951 272.892 L 126.263 273.064 126.599 333.895 M383.838 333.255 C 383.838 333.582,384.369 334.002,385.017 334.188 C 385.665 334.375,386.726 334.746,387.374 335.012 C 388.277 335.384,388.552 335.166,388.552 334.079 C 388.552 332.906,388.143 332.660,386.195 332.660 C 384.899 332.660,383.838 332.928,383.838 333.255 M135.917 336.219 C 135.400 340.068,135.223 395.509,135.724 396.814 C 136.122 397.851,137.373 397.983,147.042 398.012 C 153.021 398.030,166.609 398.096,177.238 398.158 C 187.868 398.221,196.700 398.131,196.865 397.958 C 197.031 397.785,197.345 391.788,197.563 384.631 C 197.782 377.475,198.118 371.364,198.311 371.052 C 198.504 370.741,198.281 370.331,197.816 370.142 C 197.166 369.879,197.156 369.667,197.774 369.227 C 198.347 368.818,198.405 367.885,197.976 365.973 C 197.645 364.498,197.434 357.208,197.508 349.771 C 197.623 338.224,197.496 336.219,196.633 336.037 C 193.188 335.306,136.017 335.478,135.917 336.219 M383.838 337.374 C 383.838 338.464,384.287 338.721,386.195 338.721 C 388.103 338.721,388.552 338.464,388.552 337.374 C 388.552 336.283,388.103 336.027,386.195 336.027 C 384.287 336.027,383.838 336.283,383.838 337.374 M196.633 367.003 L 196.633 397.306 166.667 397.306 L 136.700 397.306 136.700 367.003 L 136.700 336.700 166.667 336.700 L 196.633 336.700 196.633 367.003 M384.024 340.741 C 384.103 341.794,384.608 342.088,386.339 342.088 C 388.103 342.088,388.552 341.814,388.552 340.741 C 388.552 339.655,388.103 339.394,386.237 339.394 C 384.337 339.394,383.940 339.635,384.024 340.741 M383.838 343.434 C 383.838 343.805,384.672 344.144,385.690 344.187 L 387.542 344.267 385.859 344.692 C 383.866 345.196,383.171 347.451,384.987 347.522 C 385.963 347.560,386.001 347.657,385.185 348.027 C 383.282 348.890,383.602 350.834,385.661 350.921 C 387.534 351.001,387.535 351.003,385.859 351.426 C 383.982 351.901,383.336 353.802,384.553 355.269 C 385.122 355.954,385.134 356.229,384.594 356.229 C 383.340 356.229,383.747 357.572,385.017 357.623 C 385.981 357.662,386.012 357.753,385.185 358.128 C 384.630 358.380,384.177 359.137,384.180 359.810 C 384.186 361.190,387.540 363.526,388.351 362.715 C 388.641 362.426,388.350 361.893,387.705 361.532 C 386.292 360.742,386.162 359.596,387.484 359.596 C 388.250 359.596,388.450 357.951,388.507 351.178 L 388.577 342.761 386.208 342.761 C 384.905 342.761,383.838 343.064,383.838 343.434 M383.838 366.330 C 383.838 367.420,384.287 367.677,386.195 367.677 C 388.103 367.677,388.552 367.420,388.552 366.330 C 388.552 365.240,388.103 364.983,386.195 364.983 C 384.287 364.983,383.838 365.240,383.838 366.330 M383.838 369.347 C 383.838 370.441,386.705 371.432,387.841 370.731 C 389.475 369.721,388.528 368.350,386.195 368.350 C 384.563 368.350,383.838 368.657,383.838 369.347 M383.838 372.391 C 383.838 372.761,384.899 373.064,386.195 373.064 C 387.492 373.064,388.552 372.761,388.552 372.391 C 388.552 372.020,387.492 371.717,386.195 371.717 C 384.899 371.717,383.838 372.020,383.838 372.391 M385.690 374.220 C 383.596 374.537,383.151 375.758,385.130 375.758 C 385.841 375.758,386.901 375.942,387.487 376.166 C 388.251 376.459,388.552 376.173,388.552 375.156 C 388.552 374.376,388.325 373.783,388.047 373.838 C 387.769 373.894,386.709 374.065,385.690 374.220 M383.942 380.135 C 384.046 382.893,384.213 383.172,385.799 383.245 L 387.542 383.324 385.859 383.750 C 382.806 384.521,383.052 388.552,386.152 388.552 L 388.552 388.552 388.552 382.828 L 388.552 377.104 386.190 377.104 L 383.828 377.104 383.942 380.135 " stroke="none" fill="#000000" fill-rule="evenodd"></path></g></svg>