<svg id="svg" version="1.1" xmlns="http://www.w3.org/2000/svg" xmlns:xlink="http://www.w3.org/1999/xlink" width="400" height="271.75" viewBox="0, 0, 400,271.75"><g id="svgg"><path id="path0" d="M228.672 0.701 C 227.832 1.578,227.814 2.452,228.606 3.966 C 228.939 4.604,229.281 5.546,229.367 6.061 C 229.477 6.726,230.363 8.126,232.424 10.893 L 235.326 14.789 232.920 17.207 C 229.859 20.283,229.500 21.158,229.500 25.553 L 229.500 28.528 234.528 34.144 L 239.556 39.760 240.737 39.603 C 241.886 39.451,241.926 39.468,242.250 40.251 C 242.568 41.019,242.634 41.050,243.690 40.931 L 244.796 40.806 243.336 41.776 C 241.543 42.967,241.539 42.849,243.425 44.955 L 244.975 46.686 242.716 49.093 C 241.474 50.416,240.496 51.605,240.542 51.735 C 240.587 51.865,246.634 58.812,253.979 67.173 L 267.334 82.375 269.173 82.551 L 271.012 82.727 273.256 84.797 C 275.082 86.480,275.500 87.000,275.500 87.585 L 275.500 88.304 251.718 88.118 C 232.426 87.967,227.956 87.992,228.042 88.252 C 228.101 88.429,232.334 91.059,237.450 94.097 L 246.750 99.622 246.750 185.686 L 246.750 271.750 314.375 271.750 L 382.000 271.750 382.000 203.375 L 382.000 135.000 386.116 135.000 L 390.232 135.000 395.140 128.571 C 399.522 122.830,400.034 122.060,399.922 121.383 C 399.727 120.206,385.779 69.173,385.537 68.750 C 385.419 68.544,380.440 66.181,374.474 63.500 L 363.625 58.625 362.745 56.875 C 362.261 55.913,361.161 53.627,360.300 51.795 L 358.735 48.466 357.617 49.090 L 356.500 49.715 356.496 48.795 C 356.493 48.238,356.208 47.394,355.773 46.655 L 355.055 45.434 355.183 41.780 C 355.291 38.720,355.385 38.044,355.764 37.625 C 356.015 37.348,356.296 36.510,356.393 35.750 C 356.490 34.994,356.836 33.841,357.163 33.189 C 357.609 32.298,357.719 31.770,357.606 31.063 C 357.477 30.254,357.594 29.914,358.446 28.624 C 358.990 27.800,360.135 25.746,360.989 24.061 L 362.541 20.997 361.896 19.842 C 361.357 18.879,361.250 18.367,361.250 16.762 C 361.250 15.032,361.187 14.778,360.625 14.250 C 360.256 13.903,360.000 13.385,360.000 12.984 C 360.000 12.467,359.850 12.267,359.375 12.147 C 358.915 12.032,358.750 11.824,358.750 11.359 C 358.750 10.586,357.926 9.728,356.474 8.987 C 355.872 8.680,354.873 8.007,354.253 7.492 C 352.566 6.092,351.723 5.750,349.950 5.748 C 348.799 5.747,348.173 5.613,347.625 5.250 C 347.088 4.894,346.450 4.752,345.375 4.750 C 344.222 4.748,343.644 4.605,342.875 4.132 C 341.358 3.197,335.642 3.197,334.125 4.132 C 333.233 4.681,332.847 4.748,330.563 4.749 C 328.167 4.750,328.000 4.783,328.000 5.250 C 328.000 5.604,327.833 5.750,327.429 5.750 C 326.566 5.750,324.250 8.193,324.250 9.103 C 324.250 9.495,323.181 13.226,321.875 17.394 C 319.351 25.450,319.315 25.610,319.883 26.360 C 320.411 27.058,320.500 26.904,317.469 30.537 C 314.145 34.521,314.314 34.150,315.112 35.725 C 315.715 36.914,315.821 37.000,316.692 37.003 C 317.205 37.004,318.037 37.074,318.540 37.157 L 319.456 37.308 318.853 38.910 C 318.521 39.791,318.250 40.556,318.250 40.610 C 318.250 40.665,318.981 40.953,319.875 41.250 C 321.799 41.890,321.779 41.822,320.448 43.178 L 319.396 44.250 320.483 45.358 C 321.490 46.384,321.583 46.591,321.740 48.170 C 322.121 52.013,323.645 53.000,329.203 53.000 L 332.923 53.000 333.343 54.910 C 333.574 55.961,333.708 56.875,333.642 56.941 C 333.576 57.008,330.656 56.349,327.154 55.478 L 320.787 53.894 316.831 54.840 C 314.655 55.360,312.452 55.894,311.935 56.028 C 311.058 56.254,310.908 56.442,309.727 58.797 L 308.459 61.322 294.575 61.139 L 280.691 60.955 279.607 62.165 L 278.522 63.375 278.511 61.102 L 278.500 58.830 269.105 46.977 C 257.472 32.303,259.034 33.864,257.496 35.379 L 256.239 36.617 255.255 35.496 C 254.110 34.191,254.086 34.106,254.750 33.692 C 255.580 33.174,255.486 29.633,254.625 28.955 C 254.100 28.542,254.000 28.253,254.000 27.150 C 254.000 26.073,253.888 25.732,253.375 25.250 C 253.015 24.912,252.750 24.383,252.750 24.005 C 252.750 23.643,252.460 22.960,252.106 22.486 C 251.106 21.150,250.500 19.842,250.500 19.020 C 250.500 18.443,250.212 18.001,249.250 17.101 C 247.824 15.767,247.735 15.310,248.618 13.875 C 249.092 13.106,249.236 12.524,249.242 11.356 C 249.249 10.063,249.343 9.749,249.878 9.247 C 250.546 8.620,250.368 8.262,249.384 8.254 C 249.115 8.252,248.638 7.941,248.325 7.562 L 247.756 6.875 247.042 7.724 C 246.476 8.397,246.192 8.547,245.673 8.448 C 244.363 8.197,243.892 9.146,243.972 11.880 C 244.010 13.184,243.984 14.250,243.914 14.250 C 243.845 14.250,240.889 11.044,237.347 7.125 C 230.198 -0.782,230.137 -0.828,228.672 0.701 M39.729 4.170 L 36.082 6.080 31.930 12.892 L 27.778 19.705 30.139 25.601 L 32.500 31.497 32.500 34.967 C 32.500 38.162,32.548 38.524,33.101 39.531 C 33.711 40.639,34.362 47.250,33.862 47.250 C 33.756 47.250,33.180 46.963,32.581 46.613 C 31.775 46.140,31.464 46.059,31.378 46.300 C 31.314 46.479,30.528 48.689,29.630 51.211 C 28.733 53.734,27.905 55.964,27.792 56.167 C 27.678 56.370,22.419 59.555,16.105 63.245 L 4.625 69.954 4.067 76.165 C 3.760 79.580,2.719 90.531,1.753 100.500 C -0.358 122.290,-0.358 119.173,1.750 127.070 L 3.500 133.625 3.500 202.438 L 3.500 271.250 73.000 271.250 L 142.499 271.250 142.562 184.696 L 142.625 98.142 151.123 92.633 L 159.621 87.125 137.091 87.061 L 114.562 86.997 109.749 81.374 C 107.102 78.281,104.841 75.750,104.724 75.750 C 104.607 75.750,103.764 76.031,102.851 76.375 C 100.633 77.210,99.750 77.210,99.750 76.375 L 99.750 75.750 95.414 75.750 C 91.395 75.750,91.044 75.713,90.625 75.250 C 89.845 74.388,82.476 74.494,81.898 75.375 C 81.538 75.925,81.311 76.000,80.015 76.000 C 78.588 76.000,78.513 76.033,77.651 77.063 C 77.072 77.752,76.758 77.979,76.755 77.709 C 76.752 77.480,76.526 75.395,76.252 73.075 L 75.753 68.857 72.786 63.296 C 71.153 60.237,69.764 57.680,69.698 57.614 C 69.631 57.548,66.388 56.929,62.489 56.239 C 58.591 55.549,55.352 54.935,55.292 54.875 C 54.812 54.396,56.127 50.487,56.729 50.603 C 57.084 50.672,58.993 50.968,60.971 51.262 L 64.567 51.797 66.547 49.836 L 68.527 47.875 68.451 46.075 L 68.375 44.275 69.563 43.720 C 70.216 43.414,70.750 43.024,70.750 42.853 C 70.750 42.302,69.802 40.309,69.490 40.205 C 69.324 40.150,69.762 39.715,70.463 39.240 C 71.910 38.258,71.953 38.122,71.216 36.873 C 70.557 35.757,70.607 35.713,73.313 35.003 L 75.500 34.429 75.500 33.025 C 75.500 31.671,75.397 31.453,72.625 26.956 C 69.427 21.767,69.132 20.778,70.242 18.954 C 70.764 18.095,70.709 17.194,70.091 16.480 C 69.889 16.247,69.750 15.507,69.750 14.668 L 69.750 13.250 68.901 13.250 C 67.919 13.250,67.123 12.465,65.378 9.773 C 64.790 8.867,63.846 7.680,63.280 7.137 L 62.250 6.149 62.250 4.199 L 62.250 2.250 52.813 2.255 L 43.375 2.260 39.729 4.170 M42.625 52.688 C 46.475 54.823,49.653 56.592,49.688 56.619 C 49.723 56.646,49.481 58.002,49.149 59.633 L 48.547 62.598 50.273 65.033 C 52.158 67.691,52.331 68.352,51.375 69.250 L 50.750 69.837 50.749 80.356 L 50.748 90.875 47.483 92.589 C 45.688 93.531,44.142 94.225,44.047 94.131 C 43.952 94.037,43.807 92.309,43.724 90.292 C 43.641 88.275,43.448 86.167,43.295 85.607 C 43.142 85.047,42.912 83.470,42.784 82.104 C 42.578 79.922,42.441 79.436,41.654 78.116 C 40.668 76.460,39.500 73.283,39.500 72.256 C 39.500 71.895,39.399 71.493,39.276 71.363 C 39.153 71.232,38.764 70.315,38.411 69.325 C 37.463 66.664,36.448 64.798,35.087 63.212 C 34.421 62.435,33.440 61.103,32.907 60.252 C 32.033 58.853,29.408 56.500,28.722 56.500 C 28.351 56.500,28.441 56.181,30.144 51.425 L 31.787 46.836 33.706 47.821 C 34.761 48.362,38.775 50.553,42.625 52.688 M360.849 54.207 C 362.032 56.728,363.000 58.863,363.000 58.954 C 363.000 59.044,361.663 60.469,360.029 62.121 L 357.059 65.125 354.747 70.000 L 352.435 74.875 350.345 83.625 C 349.195 88.438,347.789 94.963,347.222 98.125 L 346.190 103.875 346.329 108.813 C 346.405 111.528,346.417 113.750,346.355 113.750 C 346.294 113.750,344.541 112.897,342.459 111.855 L 338.675 109.959 338.838 104.417 C 339.195 92.304,339.075 71.567,338.645 70.953 C 338.031 70.076,338.102 69.928,340.616 66.853 L 342.983 63.960 341.141 60.282 L 339.299 56.603 348.087 53.374 C 352.920 51.597,357.210 49.946,357.619 49.703 C 358.555 49.148,358.322 48.823,360.849 54.207 M62.993 70.595 L 64.250 73.564 64.250 77.977 L 64.250 82.389 62.625 84.000 L 61.000 85.611 61.000 82.594 C 61.000 80.229,60.892 79.265,60.500 78.125 C 60.205 77.267,60.000 76.021,60.000 75.081 C 60.000 72.823,58.334 69.432,56.327 67.604 L 54.931 66.333 56.121 62.761 L 57.312 59.189 59.524 63.407 C 60.740 65.727,62.301 68.961,62.993 70.595 M334.756 64.632 L 335.327 67.639 332.794 73.507 L 330.261 79.375 329.631 84.397 C 329.077 88.803,329.000 90.376,329.000 97.210 C 329.000 101.494,328.945 105.000,328.879 105.000 C 328.812 105.000,327.799 104.525,326.629 103.944 L 324.500 102.889 324.501 98.757 C 324.503 94.843,324.576 94.222,325.876 87.006 C 327.067 80.404,327.250 78.967,327.250 76.229 C 327.250 73.233,327.290 72.980,328.025 71.347 C 329.172 68.797,333.850 60.995,334.030 61.333 C 334.115 61.494,334.442 62.978,334.756 64.632 " stroke="none" fill="#000000" fill-rule="evenodd"></path></g></svg>