<svg id="svg" version="1.1" xmlns="http://www.w3.org/2000/svg" xmlns:xlink="http://www.w3.org/1999/xlink" width="400" height="355.46875" viewBox="0, 0, 400,355.46875"><g id="svgg"><path id="path0" d="M395.911 0.254 C 395.520 0.348,395.048 0.569,394.862 0.746 C 394.676 0.922,394.254 1.067,393.922 1.067 C 393.591 1.067,393.228 1.307,393.116 1.600 C 393.003 1.893,392.666 2.133,392.367 2.133 C 392.067 2.133,391.822 2.293,391.822 2.489 C 391.822 2.684,391.502 2.844,391.111 2.844 C 390.720 2.844,390.400 3.004,390.400 3.200 C 390.400 3.396,390.110 3.556,389.756 3.556 C 389.402 3.556,388.768 3.876,388.349 4.267 C 387.929 4.658,387.356 4.978,387.075 4.978 C 386.795 4.978,386.473 5.218,386.360 5.511 C 386.248 5.804,385.911 6.044,385.611 6.044 C 385.312 6.044,385.067 6.204,385.067 6.400 C 385.067 6.596,384.827 6.756,384.533 6.756 C 384.240 6.756,384.000 6.916,384.000 7.111 C 384.000 7.307,383.680 7.467,383.289 7.467 C 382.898 7.467,382.578 7.627,382.578 7.822 C 382.578 8.018,382.338 8.178,382.044 8.178 C 381.751 8.178,381.511 8.338,381.511 8.533 C 381.511 8.729,381.283 8.889,381.004 8.889 C 380.724 8.889,380.181 9.289,379.797 9.778 C 379.412 10.267,378.871 10.667,378.594 10.667 C 378.316 10.667,377.746 10.987,377.326 11.378 C 376.907 11.769,376.375 12.089,376.145 12.089 C 375.916 12.089,375.469 12.380,375.153 12.736 C 374.837 13.093,374.058 13.687,373.422 14.057 C 372.787 14.428,372.267 14.857,372.267 15.010 C 372.267 15.163,371.947 15.289,371.556 15.289 C 371.164 15.289,370.844 15.414,370.844 15.568 C 370.844 15.721,370.331 16.150,369.703 16.521 C 369.075 16.892,368.120 17.646,367.582 18.198 C 367.043 18.749,366.312 19.200,365.957 19.200 C 365.603 19.200,365.082 19.520,364.800 19.911 C 364.518 20.302,364.106 20.622,363.885 20.622 C 363.663 20.622,363.050 21.022,362.522 21.511 C 361.995 22.000,361.412 22.400,361.226 22.400 C 361.041 22.400,360.889 22.560,360.889 22.756 C 360.889 22.951,360.684 23.111,360.434 23.111 C 360.184 23.111,359.749 23.431,359.467 23.822 C 359.185 24.213,358.681 24.533,358.347 24.533 C 358.014 24.533,357.449 24.893,357.092 25.333 C 356.736 25.773,356.004 26.360,355.467 26.638 C 354.929 26.915,354.489 27.275,354.489 27.438 C 354.489 27.600,354.249 27.733,353.956 27.733 C 353.662 27.733,353.422 27.854,353.422 28.002 C 353.422 28.150,352.942 28.483,352.356 28.743 C 351.769 29.003,351.289 29.403,351.289 29.632 C 351.289 29.861,350.769 30.276,350.133 30.553 C 349.498 30.830,348.719 31.349,348.403 31.706 C 348.086 32.063,347.660 32.356,347.455 32.356 C 347.251 32.356,346.507 32.916,345.802 33.600 C 345.097 34.284,344.319 34.844,344.072 34.844 C 343.825 34.844,343.393 35.164,343.111 35.556 C 342.829 35.947,342.408 36.267,342.174 36.267 C 341.941 36.267,341.173 36.827,340.469 37.511 C 339.764 38.196,338.950 38.756,338.660 38.756 C 338.370 38.756,338.133 38.916,338.133 39.111 C 338.133 39.307,337.929 39.467,337.678 39.467 C 337.428 39.467,336.993 39.787,336.711 40.178 C 336.429 40.569,335.989 40.889,335.733 40.889 C 335.476 40.889,335.174 41.129,335.062 41.422 C 334.949 41.716,334.634 41.956,334.362 41.956 C 334.090 41.956,333.867 42.089,333.867 42.251 C 333.867 42.414,333.427 42.772,332.889 43.049 C 332.351 43.325,331.652 43.832,331.336 44.175 C 331.020 44.519,330.597 44.800,330.396 44.800 C 330.196 44.800,329.940 45.040,329.827 45.333 C 329.714 45.627,329.436 45.867,329.208 45.867 C 328.981 45.867,328.536 46.158,328.219 46.514 C 327.903 46.870,326.964 47.539,326.133 48.002 C 325.302 48.464,324.622 49.014,324.622 49.223 C 324.622 49.433,324.182 49.801,323.644 50.042 C 323.107 50.283,322.107 50.961,321.422 51.550 C 320.738 52.139,319.978 52.621,319.733 52.621 C 319.489 52.622,319.289 52.862,319.289 53.156 C 319.289 53.449,319.049 53.689,318.756 53.689 C 318.462 53.689,318.222 53.849,318.222 54.044 C 318.222 54.240,318.006 54.400,317.742 54.400 C 317.477 54.400,316.759 54.880,316.145 55.467 C 315.531 56.053,314.862 56.533,314.659 56.533 C 314.455 56.533,314.197 56.773,314.084 57.067 C 313.972 57.360,313.721 57.600,313.527 57.600 C 313.333 57.600,312.726 58.080,312.178 58.667 C 311.630 59.253,310.966 59.738,310.702 59.745 C 310.149 59.758,308.978 60.579,308.978 60.953 C 308.978 61.412,307.972 62.222,307.403 62.222 C 307.096 62.222,306.844 62.382,306.844 62.578 C 306.844 62.773,306.677 62.933,306.473 62.933 C 306.268 62.933,305.728 63.293,305.273 63.733 C 304.818 64.173,304.015 64.843,303.490 65.221 C 302.965 65.600,302.105 66.279,301.579 66.732 C 301.053 67.184,300.481 67.555,300.309 67.555 C 300.136 67.555,299.467 68.116,298.821 68.800 C 298.176 69.484,297.476 70.044,297.265 70.044 C 297.055 70.044,296.380 70.524,295.766 71.111 C 295.152 71.698,294.519 72.178,294.359 72.178 C 294.199 72.178,293.508 72.738,292.824 73.422 C 292.139 74.107,291.414 74.667,291.212 74.667 C 291.010 74.667,290.844 74.827,290.844 75.022 C 290.844 75.218,290.583 75.378,290.264 75.378 C 289.705 75.378,288.001 77.051,288.000 77.600 C 288.000 77.747,287.680 77.867,287.289 77.867 C 286.898 77.867,286.578 78.027,286.578 78.222 C 286.578 78.418,286.397 78.578,286.175 78.578 C 285.954 78.578,285.514 78.866,285.197 79.218 C 284.881 79.571,283.982 80.329,283.200 80.903 C 282.418 81.478,281.519 82.229,281.203 82.574 C 280.886 82.918,280.447 83.200,280.227 83.200 C 280.007 83.200,279.096 83.920,278.203 84.800 C 277.311 85.680,276.350 86.400,276.068 86.400 C 275.786 86.400,275.556 86.560,275.556 86.756 C 275.556 86.951,275.388 87.111,275.184 87.111 C 274.979 87.111,274.443 87.471,273.992 87.911 C 272.771 89.101,271.309 90.311,271.092 90.311 C 270.987 90.311,270.532 90.671,270.081 91.111 C 268.888 92.274,267.400 93.511,267.194 93.511 C 267.096 93.511,266.513 93.991,265.900 94.578 C 265.286 95.164,264.626 95.644,264.434 95.644 C 264.241 95.644,263.556 96.204,262.910 96.889 C 262.265 97.573,261.606 98.134,261.446 98.134 C 261.286 98.135,260.596 98.614,259.911 99.200 C 259.227 99.786,258.547 100.265,258.400 100.266 C 258.253 100.266,258.133 100.507,258.133 100.800 C 258.133 101.093,257.886 101.333,257.584 101.333 C 257.282 101.333,256.666 101.693,256.216 102.133 C 255.766 102.573,254.854 103.364,254.188 103.891 C 251.763 105.808,250.915 106.506,249.947 107.378 C 249.403 107.867,248.514 108.587,247.971 108.978 C 247.428 109.369,246.652 110.009,246.247 110.400 C 245.842 110.791,245.071 111.338,244.533 111.616 C 243.996 111.893,243.556 112.333,243.556 112.593 C 243.556 112.854,243.388 113.067,243.184 113.067 C 242.979 113.067,242.412 113.467,241.923 113.956 C 241.434 114.444,240.880 114.844,240.690 114.844 C 240.501 114.844,239.550 115.644,238.578 116.622 C 237.605 117.600,236.567 118.400,236.271 118.400 C 235.975 118.400,235.733 118.533,235.733 118.695 C 235.733 118.858,235.333 119.205,234.844 119.467 C 234.356 119.728,233.956 120.083,233.956 120.254 C 233.956 120.736,232.267 122.311,231.749 122.312 C 231.252 122.312,229.333 123.839,229.333 124.235 C 229.333 124.663,227.603 126.222,227.127 126.223 C 226.623 126.223,224.711 127.753,224.711 128.156 C 224.711 128.543,223.741 129.422,223.314 129.422 C 223.105 129.422,222.933 129.582,222.933 129.778 C 222.933 129.973,222.733 130.134,222.489 130.134 C 221.899 130.134,220.089 131.707,220.089 132.219 C 220.089 132.441,219.884 132.622,219.634 132.622 C 219.384 132.622,218.949 132.942,218.667 133.333 C 218.385 133.724,217.965 134.044,217.733 134.044 C 217.501 134.044,216.076 135.244,214.566 136.711 C 213.056 138.178,211.657 139.378,211.457 139.378 C 211.257 139.378,210.413 140.098,209.582 140.978 C 208.751 141.858,207.976 142.578,207.860 142.578 C 207.626 142.578,206.201 143.750,204.942 144.978 C 204.490 145.418,204.016 145.778,203.886 145.778 C 203.564 145.778,201.244 148.337,201.244 148.692 C 201.244 148.849,200.924 148.978,200.533 148.978 C 200.142 148.978,199.822 149.138,199.822 149.333 C 199.822 149.529,199.644 149.689,199.426 149.689 C 198.988 149.689,196.622 152.148,196.622 152.603 C 196.622 152.760,196.418 152.889,196.167 152.889 C 195.917 152.889,195.482 153.209,195.200 153.600 C 194.918 153.991,194.531 154.311,194.340 154.311 C 194.148 154.311,193.504 154.781,192.907 155.356 C 192.310 155.931,190.840 157.347,189.640 158.503 C 188.440 159.660,186.925 160.985,186.274 161.449 C 185.623 161.912,183.085 164.246,180.634 166.634 C 175.517 171.621,174.628 172.444,174.358 172.444 C 174.015 172.444,159.289 187.390,159.289 187.738 C 159.289 187.923,158.209 189.158,156.889 190.482 C 155.569 191.806,154.262 193.329,153.984 193.867 C 153.707 194.404,153.347 194.844,153.184 194.844 C 153.022 194.844,152.889 195.067,152.889 195.340 C 152.889 195.612,152.649 195.927,152.356 196.040 C 152.062 196.152,151.822 196.454,151.822 196.710 C 151.822 196.967,151.502 197.407,151.111 197.689 C 150.720 197.971,150.400 198.493,150.400 198.849 C 150.400 199.205,150.080 199.840,149.689 200.260 C 149.298 200.679,148.978 201.216,148.978 201.451 C 148.978 201.687,148.738 201.972,148.444 202.084 C 148.151 202.197,147.911 202.614,147.911 203.011 C 147.911 203.408,147.751 203.733,147.556 203.733 C 147.360 203.733,147.200 203.943,147.200 204.200 C 147.200 204.456,146.880 205.009,146.489 205.429 C 146.098 205.849,145.778 206.519,145.778 206.918 C 145.778 207.318,145.618 207.644,145.422 207.644 C 145.227 207.644,145.067 207.964,145.067 208.356 C 145.067 208.747,144.857 209.067,144.600 209.067 C 144.343 209.067,143.913 209.627,143.644 210.311 C 143.376 210.996,143.026 211.556,142.867 211.556 C 142.708 211.556,142.578 211.876,142.578 212.267 C 142.578 212.658,142.418 212.978,142.222 212.978 C 142.027 212.978,141.867 213.218,141.867 213.511 C 141.867 213.804,141.707 214.044,141.511 214.044 C 141.316 214.044,141.156 214.347,141.156 214.718 C 141.156 215.088,140.916 215.483,140.622 215.595 C 140.329 215.708,140.089 215.972,140.089 216.181 C 140.089 216.391,139.769 216.907,139.378 217.326 C 138.987 217.746,138.667 218.379,138.667 218.734 C 138.667 219.088,138.507 219.378,138.311 219.378 C 138.116 219.378,137.956 219.785,137.956 220.283 C 137.956 221.369,139.415 222.933,140.428 222.933 C 140.828 222.933,141.156 223.099,141.156 223.301 C 141.156 223.681,143.465 226.133,143.823 226.133 C 144.028 226.133,144.788 226.789,147.016 228.889 C 147.691 229.524,148.340 230.044,148.458 230.044 C 148.738 230.044,149.689 230.996,149.689 231.276 C 149.689 231.478,150.063 231.929,152.089 234.170 C 152.529 234.656,152.889 235.143,152.889 235.251 C 152.889 235.359,153.369 235.896,153.956 236.444 C 154.542 236.992,155.022 237.603,155.022 237.801 C 155.022 237.999,155.582 238.738,156.267 239.443 C 156.951 240.147,157.511 240.902,157.511 241.120 C 157.511 241.338,157.803 241.775,158.160 242.092 C 158.517 242.408,159.036 243.187,159.314 243.822 C 159.591 244.458,160.019 244.978,160.265 244.978 C 160.510 244.978,160.711 245.298,160.711 245.689 C 160.711 246.080,160.871 246.400,161.067 246.400 C 161.262 246.400,161.422 246.640,161.422 246.933 C 161.422 247.227,161.582 247.467,161.778 247.467 C 161.973 247.467,162.133 247.787,162.133 248.178 C 162.133 248.569,162.293 248.889,162.489 248.889 C 162.684 248.889,162.844 249.209,162.844 249.600 C 162.844 249.991,162.987 250.311,163.161 250.311 C 163.336 250.311,163.579 250.711,163.702 251.200 C 163.824 251.689,164.082 252.089,164.273 252.089 C 164.465 252.089,164.622 252.340,164.622 252.648 C 164.622 253.807,166.393 254.741,166.933 253.867 C 167.054 253.671,167.464 253.511,167.843 253.511 C 168.223 253.511,168.533 253.351,168.533 253.156 C 168.533 252.960,168.853 252.800,169.244 252.800 C 169.636 252.800,169.956 252.640,169.956 252.444 C 169.956 252.249,170.276 252.089,170.667 252.089 C 171.058 252.089,171.378 251.960,171.378 251.803 C 171.378 251.646,172.618 250.886,174.133 250.114 C 175.649 249.342,176.942 248.591,177.007 248.444 C 177.073 248.298,177.347 248.178,177.618 248.178 C 178.317 248.178,180.622 247.036,180.622 246.690 C 180.622 246.530,181.022 246.400,181.511 246.400 C 182.000 246.400,182.400 246.240,182.400 246.044 C 182.400 245.849,182.720 245.689,183.111 245.689 C 183.502 245.689,183.822 245.529,183.822 245.333 C 183.822 245.138,184.222 244.978,184.711 244.978 C 185.200 244.978,185.600 244.818,185.600 244.622 C 185.600 244.427,185.920 244.267,186.311 244.267 C 186.702 244.267,187.022 244.107,187.022 243.911 C 187.022 243.716,187.243 243.556,187.512 243.556 C 187.781 243.556,188.201 243.316,188.444 243.022 C 188.688 242.729,189.187 242.489,189.555 242.489 C 189.922 242.489,190.222 242.329,190.222 242.133 C 190.222 241.938,190.542 241.778,190.933 241.778 C 191.324 241.778,191.644 241.618,191.644 241.422 C 191.644 241.227,191.884 241.067,192.178 241.067 C 192.471 241.067,192.711 240.907,192.711 240.711 C 192.711 240.516,193.031 240.356,193.422 240.356 C 193.813 240.356,194.133 240.196,194.133 240.000 C 194.133 239.804,194.378 239.644,194.678 239.644 C 194.977 239.644,195.314 239.404,195.427 239.111 C 195.540 238.818,195.855 238.578,196.127 238.578 C 196.399 238.578,196.622 238.418,196.622 238.222 C 196.622 238.027,196.878 237.867,197.191 237.867 C 197.503 237.867,198.208 237.387,198.756 236.800 C 199.304 236.213,199.924 235.733,200.133 235.733 C 200.343 235.733,201.235 235.013,202.115 234.133 C 202.995 233.253,203.810 232.533,203.927 232.533 C 204.284 232.533,205.156 231.542,205.156 231.137 C 205.156 230.927,205.356 230.755,205.600 230.755 C 205.844 230.755,206.475 230.384,207.001 229.932 C 207.527 229.479,208.367 228.802,208.868 228.426 C 209.368 228.050,209.778 227.613,209.778 227.455 C 209.778 227.126,211.416 225.422,211.733 225.422 C 212.041 225.422,213.687 223.725,213.700 223.394 C 213.706 223.238,214.450 222.554,215.353 221.873 C 216.629 220.911,221.134 216.714,225.173 212.725 C 225.805 212.100,234.950 202.569,236.356 201.070 C 237.187 200.183,237.867 199.372,237.867 199.268 C 237.867 199.009,239.561 197.333,239.822 197.333 C 240.096 197.333,241.778 195.651,241.778 195.378 C 241.778 195.099,243.462 193.422,243.743 193.422 C 244.033 193.422,244.978 192.469,244.978 192.175 C 244.978 192.048,245.583 191.357,246.324 190.639 C 247.064 189.921,248.144 188.694,248.724 187.914 C 250.107 186.050,251.256 184.889,251.717 184.889 C 251.922 184.889,252.089 184.740,252.089 184.559 C 252.089 184.377,253.409 182.897,255.022 181.270 C 256.636 179.643,258.423 177.686,258.994 176.921 C 259.566 176.157,261.347 174.209,262.953 172.592 C 264.559 170.976,266.090 169.161,266.356 168.560 C 266.623 167.959,266.965 167.467,267.118 167.467 C 267.432 167.467,270.578 164.394,270.578 164.087 C 270.578 163.978,271.138 163.398,271.822 162.797 C 272.507 162.196,273.067 161.481,273.067 161.208 C 273.067 160.935,273.227 160.711,273.422 160.711 C 273.618 160.711,273.778 160.540,273.778 160.330 C 273.778 159.923,274.650 158.933,275.009 158.933 C 275.283 158.933,277.689 156.536,277.689 156.262 C 277.689 156.149,278.049 155.666,278.489 155.188 C 280.510 152.993,280.889 152.545,280.889 152.353 C 280.889 152.239,281.769 151.301,282.844 150.268 C 283.920 149.234,284.800 148.215,284.800 148.002 C 284.800 147.790,286.000 146.404,287.467 144.923 C 288.933 143.442,290.133 142.069,290.133 141.871 C 290.133 141.673,290.293 141.511,290.489 141.511 C 290.684 141.511,290.844 141.351,290.844 141.155 C 290.844 140.960,291.724 139.927,292.800 138.860 C 293.876 137.793,294.756 136.821,294.756 136.701 C 294.756 136.581,294.956 136.260,295.200 135.988 C 295.444 135.716,296.284 134.753,297.067 133.847 C 297.849 132.941,298.929 131.788,299.467 131.286 C 300.004 130.783,300.444 130.193,300.444 129.975 C 300.444 129.757,300.764 129.349,301.156 129.067 C 301.547 128.785,301.867 128.418,301.867 128.252 C 301.867 127.851,302.797 126.933,303.203 126.933 C 303.380 126.933,303.738 126.533,304.000 126.044 C 304.262 125.556,304.609 125.156,304.771 125.156 C 304.934 125.156,305.067 124.908,305.067 124.606 C 305.067 124.078,306.579 122.311,307.031 122.311 C 307.358 122.311,308.267 121.341,308.267 120.993 C 308.267 120.826,308.587 120.460,308.978 120.178 C 309.369 119.896,309.689 119.464,309.689 119.218 C 309.689 118.972,310.569 117.905,311.644 116.846 C 312.720 115.788,313.600 114.765,313.600 114.575 C 313.600 114.384,314.480 113.326,315.556 112.225 C 316.631 111.123,317.511 110.062,317.511 109.866 C 317.511 109.671,317.671 109.511,317.867 109.511 C 318.062 109.511,318.222 109.191,318.222 108.800 C 318.222 108.409,318.388 108.089,318.590 108.089 C 319.068 108.089,321.422 105.734,321.422 105.256 C 321.422 105.054,321.582 104.889,321.778 104.889 C 321.973 104.889,322.133 104.705,322.133 104.480 C 322.133 104.255,322.853 103.391,323.733 102.560 C 324.613 101.728,325.333 100.872,325.333 100.657 C 325.333 100.443,325.493 100.267,325.689 100.267 C 325.884 100.267,326.044 100.065,326.044 99.819 C 326.044 99.573,326.601 98.893,327.281 98.308 C 327.961 97.723,328.521 97.080,328.526 96.878 C 328.530 96.677,328.853 96.282,329.244 96.000 C 329.636 95.718,329.956 95.203,329.956 94.855 C 329.956 94.507,330.127 94.222,330.337 94.222 C 330.738 94.222,331.733 93.351,331.733 93.000 C 331.733 92.886,332.213 92.291,332.800 91.677 C 333.387 91.063,333.867 90.424,333.867 90.256 C 333.867 90.089,334.556 89.272,335.398 88.442 C 336.240 87.612,337.159 86.413,337.440 85.778 C 337.721 85.142,338.078 84.622,338.232 84.622 C 338.753 84.622,340.978 82.162,340.978 81.586 C 340.978 81.009,341.783 80.000,342.244 80.000 C 342.620 80.000,344.177 78.104,344.177 77.646 C 344.178 77.426,344.978 76.421,345.956 75.412 C 346.933 74.403,347.733 73.428,347.733 73.245 C 347.733 73.062,348.293 72.353,348.978 71.668 C 349.662 70.984,350.222 70.275,350.222 70.094 C 350.222 69.913,350.462 69.673,350.756 69.560 C 351.049 69.448,351.289 69.191,351.289 68.989 C 351.289 68.788,351.929 67.964,352.711 67.158 C 353.493 66.352,354.133 65.391,354.133 65.024 C 354.133 64.656,354.312 64.356,354.530 64.356 C 355.074 64.356,357.333 61.843,357.333 61.238 C 357.333 60.739,358.165 59.733,358.578 59.733 C 358.947 59.733,359.822 58.751,359.822 58.337 C 359.822 58.127,359.982 57.956,360.178 57.956 C 360.373 57.956,360.533 57.716,360.533 57.424 C 360.533 57.132,361.253 56.163,362.133 55.270 C 363.013 54.377,363.733 53.481,363.733 53.277 C 363.733 53.074,364.213 52.459,364.800 51.911 C 365.387 51.363,365.867 50.812,365.867 50.687 C 365.867 50.411,366.385 49.773,367.911 48.170 C 368.547 47.503,369.067 46.712,369.067 46.412 C 369.067 46.112,369.227 45.867,369.422 45.867 C 369.618 45.867,369.778 45.627,369.778 45.333 C 369.778 45.040,369.949 44.800,370.159 44.800 C 370.654 44.800,371.255 44.150,371.882 42.933 C 372.160 42.396,372.520 41.956,372.682 41.956 C 372.845 41.956,372.978 41.788,372.978 41.584 C 372.978 41.379,373.338 40.840,373.778 40.384 C 374.218 39.929,374.898 39.110,375.289 38.564 C 375.680 38.018,376.200 37.369,376.444 37.122 C 376.689 36.875,376.890 36.462,376.892 36.203 C 376.894 35.945,377.383 35.348,377.978 34.878 C 378.574 34.407,379.316 33.527,379.628 32.922 C 379.939 32.317,380.490 31.563,380.853 31.247 C 381.215 30.931,381.511 30.449,381.511 30.177 C 381.511 29.905,382.068 29.204,382.748 28.619 C 383.428 28.034,383.988 27.276,383.992 26.933 C 383.997 26.591,384.160 26.311,384.356 26.311 C 384.551 26.311,384.711 26.145,384.711 25.943 C 384.711 25.600,385.005 25.233,387.111 22.946 C 387.551 22.468,387.911 21.909,387.911 21.705 C 387.911 21.501,388.071 21.333,388.267 21.333 C 388.462 21.333,388.622 21.049,388.622 20.701 C 388.622 20.353,388.956 19.833,389.363 19.545 C 389.771 19.258,390.355 18.542,390.660 17.956 C 390.966 17.369,391.513 16.630,391.875 16.314 C 392.237 15.998,392.533 15.478,392.533 15.158 C 392.533 14.839,392.693 14.578,392.889 14.578 C 393.084 14.578,393.244 14.411,393.244 14.207 C 393.244 13.820,393.600 13.336,394.933 11.910 C 395.373 11.440,395.733 10.763,395.733 10.406 C 395.733 10.049,396.053 9.526,396.444 9.244 C 396.836 8.963,397.156 8.535,397.156 8.295 C 397.156 8.055,397.556 7.427,398.044 6.900 C 398.533 6.372,398.933 5.737,398.933 5.489 C 398.933 5.240,399.109 4.978,399.324 4.907 C 399.538 4.835,399.800 3.702,399.906 2.388 L 400.097 0.000 398.360 0.041 C 397.404 0.064,396.302 0.159,395.911 0.254 M105.422 233.600 C 105.301 233.796,104.421 233.956,103.467 233.956 C 102.512 233.956,101.632 234.116,101.511 234.311 C 101.390 234.507,100.816 234.667,100.235 234.667 C 99.623 234.667,99.091 234.891,98.973 235.200 C 98.847 235.529,98.306 235.733,97.562 235.733 C 96.898 235.733,96.356 235.893,96.356 236.089 C 96.356 236.284,95.876 236.444,95.289 236.444 C 94.702 236.444,94.222 236.604,94.222 236.800 C 94.222 236.996,93.912 237.156,93.532 237.156 C 93.153 237.156,92.743 237.316,92.622 237.511 C 92.501 237.707,92.092 237.867,91.712 237.867 C 91.333 237.867,91.022 238.027,91.022 238.222 C 91.022 238.418,90.777 238.578,90.478 238.578 C 90.178 238.578,89.841 238.818,89.729 239.111 C 89.616 239.404,89.176 239.644,88.752 239.644 C 88.327 239.644,87.749 239.964,87.467 240.356 C 87.185 240.747,86.669 241.067,86.322 241.067 C 85.974 241.067,85.689 241.192,85.689 241.346 C 85.689 241.499,85.169 241.929,84.533 242.301 C 83.898 242.673,82.954 243.428,82.435 243.978 C 81.917 244.528,81.237 244.978,80.924 244.978 C 80.611 244.978,80.356 245.138,80.356 245.333 C 80.356 245.529,80.116 245.689,79.822 245.689 C 79.529 245.689,79.289 245.809,79.288 245.956 C 79.288 246.308,77.673 248.178,77.369 248.178 C 77.033 248.178,74.667 250.584,74.667 250.926 C 74.667 251.082,74.236 251.527,73.709 251.916 C 73.182 252.304,72.502 252.920,72.198 253.284 C 71.893 253.648,71.444 254.157,71.200 254.414 C 70.956 254.672,70.754 255.094,70.752 255.352 C 70.751 255.611,70.262 256.207,69.666 256.678 C 69.070 257.149,68.328 258.029,68.017 258.633 C 67.705 259.238,67.154 259.992,66.792 260.308 C 66.430 260.625,66.133 261.072,66.133 261.303 C 66.133 261.534,65.733 262.094,65.244 262.547 C 64.756 263.000,64.356 263.597,64.356 263.873 C 64.356 264.150,64.036 264.607,63.644 264.889 C 63.253 265.171,62.933 265.731,62.933 266.133 C 62.933 266.536,62.613 267.096,62.222 267.378 C 61.831 267.660,61.511 268.075,61.511 268.302 C 61.511 268.528,61.271 268.912,60.978 269.156 C 60.684 269.399,60.444 269.899,60.444 270.266 C 60.444 270.633,60.284 270.933,60.089 270.933 C 59.893 270.933,59.730 271.133,59.725 271.378 C 59.721 271.622,59.405 272.222,59.022 272.711 C 58.640 273.200,58.323 273.880,58.319 274.222 C 58.315 274.564,58.151 274.844,57.956 274.844 C 57.760 274.844,57.600 275.164,57.600 275.556 C 57.600 275.947,57.443 276.267,57.251 276.267 C 57.059 276.267,56.802 276.667,56.679 277.156 C 56.557 277.644,56.314 278.044,56.139 278.044 C 55.965 278.044,55.822 278.355,55.822 278.735 C 55.822 279.114,55.662 279.524,55.467 279.644 C 55.271 279.765,55.111 280.255,55.111 280.732 C 55.111 281.209,54.951 281.600,54.756 281.600 C 54.560 281.600,54.400 282.000,54.400 282.489 C 54.400 282.978,54.240 283.378,54.044 283.378 C 53.849 283.378,53.689 283.681,53.689 284.051 C 53.689 284.421,53.449 284.816,53.156 284.929 C 52.862 285.041,52.622 285.449,52.622 285.835 C 52.622 286.220,52.462 286.635,52.267 286.756 C 52.071 286.876,51.911 287.366,51.911 287.843 C 51.911 288.321,51.751 288.711,51.556 288.711 C 51.360 288.711,51.200 289.111,51.200 289.600 C 51.200 290.089,51.040 290.489,50.844 290.489 C 50.649 290.489,50.489 290.809,50.489 291.200 C 50.489 291.591,50.329 291.911,50.133 291.911 C 49.938 291.911,49.778 292.214,49.778 292.584 C 49.778 292.954,49.538 293.349,49.244 293.462 C 48.951 293.574,48.711 293.992,48.711 294.389 C 48.711 294.786,48.551 295.111,48.356 295.111 C 48.160 295.111,48.000 295.431,48.000 295.822 C 48.000 296.213,47.840 296.533,47.644 296.533 C 47.449 296.533,47.289 296.844,47.289 297.223 C 47.289 297.603,47.129 298.012,46.933 298.133 C 46.738 298.254,46.578 298.664,46.578 299.043 C 46.578 299.423,46.418 299.733,46.222 299.733 C 46.027 299.733,45.867 299.978,45.867 300.278 C 45.867 300.577,45.627 300.914,45.333 301.027 C 45.040 301.140,44.800 301.455,44.800 301.727 C 44.800 301.999,44.640 302.222,44.444 302.222 C 44.249 302.222,44.089 302.542,44.089 302.933 C 44.089 303.324,43.959 303.644,43.799 303.644 C 43.436 303.644,41.956 306.383,41.956 307.056 C 41.956 307.331,41.784 307.556,41.575 307.556 C 41.008 307.556,40.178 308.492,40.178 309.130 C 40.178 309.437,40.018 309.689,39.822 309.689 C 39.627 309.689,39.467 309.894,39.467 310.144 C 39.467 310.394,39.147 310.829,38.756 311.111 C 38.364 311.393,38.044 311.908,38.044 312.256 C 38.044 312.604,37.831 312.889,37.571 312.889 C 37.311 312.889,36.884 313.289,36.622 313.778 C 36.361 314.267,36.014 314.667,35.851 314.667 C 35.689 314.667,35.556 314.903,35.556 315.192 C 35.556 315.481,34.676 316.612,33.600 317.704 C 32.524 318.797,31.644 319.886,31.644 320.123 C 31.644 320.360,31.324 320.785,30.933 321.067 C 30.542 321.349,30.222 321.784,30.222 322.034 C 30.222 322.284,30.058 322.489,29.857 322.489 C 29.382 322.489,26.311 325.560,26.311 326.035 C 26.311 326.236,26.147 326.400,25.946 326.400 C 25.471 326.400,22.400 329.471,22.400 329.946 C 22.400 330.147,22.080 330.311,21.689 330.311 C 21.298 330.311,20.978 330.471,20.978 330.667 C 20.978 330.862,20.802 331.022,20.587 331.022 C 20.372 331.022,19.748 331.502,19.200 332.089 C 18.652 332.676,18.061 333.156,17.887 333.156 C 17.713 333.156,16.977 333.716,16.251 334.400 C 15.525 335.084,14.692 335.644,14.399 335.644 C 14.106 335.644,13.867 335.804,13.867 336.000 C 13.867 336.196,13.627 336.356,13.333 336.356 C 13.040 336.356,12.800 336.516,12.800 336.711 C 12.800 336.907,12.555 337.067,12.256 337.067 C 11.956 337.067,11.629 337.279,11.530 337.539 C 11.430 337.799,10.795 338.229,10.119 338.495 C 9.442 338.760,8.889 339.107,8.889 339.266 C 8.889 339.425,8.569 339.556,8.178 339.556 C 7.787 339.556,7.467 339.716,7.467 339.911 C 7.467 340.107,7.156 340.267,6.777 340.267 C 6.397 340.267,5.988 340.427,5.867 340.622 C 5.746 340.818,5.251 340.978,4.768 340.978 C 4.284 340.978,3.797 341.218,3.684 341.511 C 3.558 341.840,3.017 342.044,2.273 342.044 C 1.610 342.044,1.067 342.204,1.067 342.400 C 1.067 342.596,0.827 342.756,0.533 342.756 C 0.237 342.756,0.000 343.072,0.000 343.467 C 0.000 343.941,0.237 344.178,0.711 344.178 C 1.102 344.178,1.422 344.338,1.422 344.533 C 1.422 344.729,1.834 344.889,2.337 344.889 C 2.839 344.889,3.491 345.129,3.784 345.422 C 4.077 345.716,4.706 345.956,5.181 345.956 C 5.656 345.956,6.044 346.116,6.044 346.311 C 6.044 346.507,6.515 346.667,7.090 346.667 C 7.665 346.667,8.235 346.827,8.356 347.022 C 8.476 347.218,9.206 347.378,9.977 347.378 C 10.747 347.378,11.378 347.538,11.378 347.733 C 11.378 347.929,11.848 348.089,12.423 348.089 C 12.999 348.089,13.568 348.249,13.689 348.444 C 13.810 348.640,14.339 348.805,14.865 348.811 C 15.392 348.818,16.133 349.058,16.512 349.345 C 16.892 349.632,17.643 349.867,18.180 349.867 C 18.718 349.867,19.257 350.027,19.378 350.222 C 19.499 350.418,20.228 350.578,20.999 350.578 C 21.769 350.578,22.400 350.738,22.400 350.933 C 22.400 351.129,23.031 351.289,23.801 351.289 C 24.572 351.289,25.301 351.449,25.422 351.644 C 25.543 351.840,26.353 352.000,27.221 352.000 C 28.089 352.000,28.800 352.160,28.800 352.356 C 28.800 352.551,29.587 352.711,30.548 352.711 C 31.584 352.711,32.354 352.884,32.437 353.134 C 32.521 353.384,33.555 353.620,34.956 353.709 C 36.264 353.792,37.333 354.002,37.333 354.175 C 37.333 354.348,38.520 354.489,39.970 354.489 C 41.764 354.489,42.655 354.631,42.756 354.933 C 42.871 355.281,46.712 355.378,60.367 355.378 C 73.864 355.378,77.932 355.277,78.275 354.933 C 78.520 354.689,79.479 354.489,80.406 354.489 C 81.333 354.489,82.190 354.329,82.311 354.133 C 82.432 353.938,83.230 353.778,84.084 353.778 C 84.991 353.778,85.860 353.556,86.171 353.244 C 86.465 352.951,87.187 352.711,87.776 352.711 C 88.365 352.711,88.946 352.551,89.067 352.356 C 89.188 352.160,89.837 352.000,90.510 352.000 C 91.183 352.000,91.733 351.840,91.733 351.644 C 91.733 351.449,92.293 351.289,92.978 351.289 C 93.662 351.289,94.222 351.129,94.222 350.933 C 94.222 350.738,94.702 350.578,95.289 350.578 C 95.876 350.578,96.356 350.418,96.356 350.222 C 96.356 350.027,96.645 349.867,96.999 349.867 C 97.352 349.867,97.952 349.632,98.332 349.345 C 98.712 349.058,99.302 348.818,99.644 348.811 C 99.987 348.805,100.267 348.640,100.267 348.444 C 100.267 348.249,100.667 348.089,101.156 348.089 C 101.644 348.089,102.044 347.929,102.044 347.733 C 102.044 347.538,102.364 347.378,102.756 347.378 C 103.147 347.378,103.467 347.218,103.467 347.022 C 103.467 346.827,103.682 346.667,103.945 346.667 C 104.658 346.667,106.667 345.598,106.667 345.218 C 106.667 345.037,106.987 344.889,107.378 344.889 C 107.769 344.889,108.089 344.729,108.089 344.533 C 108.089 344.338,108.329 344.178,108.622 344.178 C 108.916 344.178,109.156 344.018,109.156 343.822 C 109.156 343.627,109.476 343.467,109.867 343.467 C 110.258 343.467,110.578 343.307,110.578 343.111 C 110.578 342.916,110.794 342.756,111.059 342.756 C 111.324 342.756,111.972 342.356,112.500 341.867 C 113.027 341.378,113.577 340.978,113.721 340.978 C 113.866 340.978,114.691 340.338,115.556 339.556 C 116.420 338.773,117.249 338.133,117.399 338.133 C 117.548 338.133,118.390 337.413,119.270 336.533 C 120.150 335.653,120.966 334.933,121.083 334.933 C 121.357 334.933,122.311 333.982,122.311 333.708 C 122.311 333.460,124.783 331.022,125.034 331.022 C 125.275 331.022,126.222 330.050,126.222 329.803 C 126.222 329.692,127.102 328.713,128.178 327.629 C 129.253 326.545,130.133 325.489,130.133 325.283 C 130.133 325.076,130.613 324.459,131.200 323.911 C 131.787 323.363,132.267 322.579,132.267 322.168 C 132.267 321.758,132.438 321.422,132.648 321.422 C 133.147 321.422,134.044 320.515,134.044 320.011 C 134.044 319.793,134.364 319.271,134.756 318.851 C 135.147 318.432,135.467 317.834,135.467 317.523 C 135.467 317.211,135.794 316.722,136.194 316.434 C 136.594 316.146,137.333 315.071,137.836 314.044 C 138.339 313.018,138.891 312.178,139.064 312.178 C 139.237 312.178,139.378 311.867,139.378 311.488 C 139.378 311.108,139.538 310.699,139.733 310.578 C 139.929 310.457,140.089 310.047,140.089 309.668 C 140.089 309.288,140.237 308.978,140.418 308.978 C 140.798 308.978,141.867 306.969,141.867 306.256 C 141.867 305.993,142.027 305.778,142.222 305.778 C 142.418 305.778,142.578 305.458,142.578 305.067 C 142.578 304.676,142.738 304.356,142.933 304.356 C 143.129 304.356,143.289 303.885,143.289 303.310 C 143.289 302.735,143.449 302.165,143.644 302.044 C 143.840 301.924,144.000 301.531,144.000 301.173 C 144.000 300.814,144.240 300.428,144.533 300.316 C 144.827 300.203,145.067 299.786,145.067 299.389 C 145.067 298.992,145.227 298.667,145.422 298.667 C 145.618 298.667,145.778 298.187,145.778 297.600 C 145.778 297.013,145.938 296.533,146.133 296.533 C 146.329 296.533,146.489 296.143,146.489 295.665 C 146.489 295.188,146.649 294.699,146.844 294.578 C 147.040 294.457,147.200 293.967,147.200 293.490 C 147.200 293.013,147.360 292.622,147.556 292.622 C 147.751 292.622,147.911 292.062,147.911 291.378 C 147.911 290.693,148.053 290.133,148.226 290.133 C 148.625 290.133,149.689 286.918,149.689 285.711 C 149.689 285.210,149.849 284.800,150.044 284.800 C 150.240 284.800,150.400 284.240,150.400 283.556 C 150.400 282.871,150.560 282.311,150.756 282.311 C 150.951 282.311,151.111 281.681,151.111 280.910 C 151.111 280.139,151.271 279.410,151.467 279.289 C 151.662 279.168,151.827 278.479,151.834 277.757 C 151.840 277.035,152.080 276.134,152.367 275.754 C 153.104 274.780,153.095 270.279,152.356 269.995 C 152.062 269.883,151.822 269.486,151.822 269.113 C 151.822 268.740,151.662 268.117,151.467 267.729 C 151.271 267.340,150.951 266.704,150.756 266.316 C 150.560 265.927,150.400 265.367,150.400 265.071 C 150.400 264.776,150.240 264.533,150.044 264.533 C 149.849 264.533,149.689 264.213,149.689 263.822 C 149.689 263.431,149.529 263.111,149.333 263.111 C 149.138 263.111,148.978 262.896,148.978 262.633 C 148.978 262.370,148.578 261.690,148.089 261.122 C 147.601 260.554,147.201 259.889,147.200 259.644 C 147.200 259.400,147.040 259.200,146.844 259.200 C 146.649 259.200,146.489 258.835,146.489 258.390 C 146.489 257.944,146.169 257.349,145.778 257.067 C 145.387 256.785,145.067 256.344,145.067 256.088 C 145.067 255.832,144.827 255.530,144.533 255.417 C 144.240 255.305,144.000 254.990,144.000 254.718 C 144.000 254.445,143.840 254.222,143.644 254.222 C 143.449 254.222,143.289 253.977,143.289 253.677 C 143.289 253.377,142.729 252.572,142.044 251.887 C 141.360 251.203,140.800 250.517,140.800 250.362 C 140.800 250.208,140.000 249.225,139.022 248.178 C 138.044 247.131,137.244 246.143,137.244 245.982 C 137.244 245.821,137.079 245.689,136.877 245.689 C 136.489 245.689,134.044 243.376,134.044 243.009 C 134.044 242.717,133.087 241.778,132.790 241.778 C 132.659 241.778,132.104 241.298,131.556 240.711 C 131.008 240.124,130.457 239.644,130.331 239.644 C 130.077 239.644,129.855 239.469,127.842 237.687 C 127.070 237.003,126.230 236.444,125.975 236.444 C 125.720 236.444,125.511 236.284,125.511 236.089 C 125.511 235.893,125.340 235.733,125.130 235.733 C 124.921 235.733,124.526 235.533,124.254 235.289 C 122.953 234.122,122.623 233.956,121.615 233.956 C 121.020 233.956,120.533 233.796,120.533 233.600 C 120.533 233.374,117.814 233.244,113.088 233.244 C 108.507 233.244,105.557 233.381,105.422 233.600 " stroke="none" fill="#040404" fill-rule="evenodd"></path><path id="path1" d="" stroke="none" fill="#080404" fill-rule="evenodd"></path><path id="path2" d="" stroke="none" fill="#080404" fill-rule="evenodd"></path><path id="path3" d="" stroke="none" fill="#080404" fill-rule="evenodd"></path><path id="path4" d="" stroke="none" fill="#080404" fill-rule="evenodd"></path><path id="path5" d="" stroke="none" fill="#080404" fill-rule="evenodd"></path><path id="path6" d="" stroke="none" fill="#080404" fill-rule="evenodd"></path><path id="path7" d="" stroke="none" fill="#080404" fill-rule="evenodd"></path><path id="path8" d="" stroke="none" fill="#080404" fill-rule="evenodd"></path></g></svg>