<svg id="svg" version="1.1" xmlns="http://www.w3.org/2000/svg" xmlns:xlink="http://www.w3.org/1999/xlink" width="400" height="300" viewBox="0, 0, 400,300"><g id="svgg"><path id="path0" d="M163.672 34.696 C 163.242 34.856,160.872 35.584,158.406 36.314 C 155.939 37.044,152.875 38.618,151.597 39.811 C 150.319 41.005,149.147 41.855,148.992 41.700 C 148.837 41.545,148.861 42.448,149.046 43.707 C 149.231 44.966,148.810 47.143,148.110 48.545 C 143.943 56.899,147.979 85.723,154.331 92.970 C 155.230 93.996,154.924 94.109,151.899 93.868 C 149.131 93.648,148.438 93.843,148.438 94.843 C 148.438 95.848,149.341 96.094,153.040 96.094 L 157.642 96.094 157.961 98.828 C 158.136 100.332,157.999 101.563,157.656 101.563 C 157.312 101.563,157.031 102.749,157.031 104.199 C 157.031 109.964,156.327 111.353,152.731 112.686 C 149.123 114.023,146.528 112.854,147.448 110.306 C 147.651 109.744,147.211 108.615,146.470 107.796 C 145.662 106.904,145.332 105.764,145.645 104.949 C 146.195 103.516,141.715 93.750,140.508 93.750 C 139.682 93.750,139.701 99.302,140.541 103.642 C 141.190 106.991,139.057 109.648,136.827 108.270 C 136.374 107.990,135.452 108.829,134.777 110.134 C 133.319 112.954,127.844 116.808,126.487 115.969 C 125.938 115.630,125.742 115.711,126.021 116.162 C 126.285 116.590,125.247 118.138,123.713 119.603 C 120.520 122.651,117.188 127.563,117.188 129.221 C 117.188 131.044,110.742 143.220,108.876 144.922 C 106.104 147.449,99.392 159.160,98.030 163.845 C 96.725 168.336,93.947 172.870,92.898 172.222 C 92.567 172.017,92.041 172.261,91.730 172.764 C 91.377 173.335,91.503 173.470,92.067 173.121 C 92.563 172.815,92.969 172.916,92.969 173.345 C 92.969 173.775,92.628 174.337,92.211 174.595 C 91.402 175.095,88.753 183.668,87.945 188.402 C 87.522 190.878,88.162 192.645,92.752 201.686 C 101.116 218.160,103.147 219.438,115.807 216.201 C 118.270 215.571,121.172 215.225,122.256 215.432 C 123.341 215.639,124.694 215.422,125.263 214.950 C 126.475 213.944,126.418 215.577,124.587 234.375 C 123.939 241.035,123.096 250.703,122.714 255.859 C 122.069 264.577,120.070 279.273,118.047 290.183 C 117.574 292.732,117.188 295.984,117.188 297.409 L 117.188 300.000 122.747 300.000 L 128.307 300.000 127.810 297.852 C 126.703 293.070,125.945 239.280,126.789 225.391 C 127.559 212.715,127.952 210.163,129.137 210.132 C 129.655 210.118,130.753 209.181,131.579 208.050 C 132.493 206.797,132.646 206.254,131.969 206.662 C 131.024 207.232,131.026 207.126,131.981 205.950 C 132.927 204.785,132.934 204.464,132.030 203.906 C 130.760 203.121,132.075 194.317,134.026 190.545 C 135.341 188.001,135.453 187.224,134.411 187.868 C 134.002 188.121,133.272 186.861,132.789 185.068 C 132.125 182.605,132.135 181.669,132.826 181.241 C 133.402 180.885,132.998 180.489,131.737 180.172 C 125.152 178.519,126.482 163.397,134.091 153.430 C 135.530 151.543,136.550 150.000,136.357 150.000 C 135.238 150.000,143.746 141.880,146.646 140.181 C 150.043 138.190,150.104 138.083,149.587 135.024 C 149.135 132.349,149.308 131.725,150.790 130.687 C 152.194 129.704,152.449 128.937,152.138 126.623 C 151.847 124.448,152.176 123.245,153.526 121.552 C 155.206 119.444,157.236 119.323,156.938 121.348 C 156.677 123.123,158.020 128.906,158.694 128.906 C 159.680 128.906,159.536 119.715,158.545 119.385 C 157.966 119.192,157.959 118.467,158.521 116.987 C 158.965 115.821,159.188 113.192,159.018 111.144 C 158.847 109.097,158.892 107.876,159.117 108.431 C 159.415 109.164,159.804 109.210,160.538 108.601 C 161.389 107.895,167.327 110.267,171.837 113.113 C 172.032 113.236,171.256 114.202,170.114 115.261 C 168.973 116.320,166.651 119.561,164.956 122.465 C 163.260 125.368,161.135 128.411,160.233 129.227 C 158.300 130.977,158.130 132.031,159.781 132.031 C 160.998 132.031,160.706 135.343,159.334 137.109 C 158.456 138.239,155.653 154.009,155.029 161.328 C 154.736 164.766,154.118 168.281,153.655 169.141 C 153.193 170.000,152.587 176.328,152.310 183.203 C 151.372 206.431,150.825 217.565,150.469 220.703 C 149.489 229.336,148.385 244.276,148.172 251.796 L 147.933 260.232 154.470 267.802 C 158.066 271.966,161.431 275.395,161.949 275.423 C 164.782 275.576,167.188 276.856,167.188 278.210 C 167.188 279.022,167.488 279.688,167.855 279.688 C 168.569 279.688,171.119 288.137,172.629 295.508 L 173.550 300.000 207.087 300.000 L 240.625 300.000 240.597 297.852 C 240.582 296.670,240.060 293.594,239.437 291.016 C 238.025 285.167,238.016 284.375,239.355 284.375 C 240.377 284.375,241.406 281.189,241.406 278.027 C 241.406 275.267,240.044 276.560,239.523 279.814 C 239.157 282.108,238.759 282.822,238.174 282.237 C 237.681 281.743,237.593 280.663,237.959 279.571 C 238.296 278.561,238.478 276.916,238.363 275.915 C 238.148 274.052,240.524 274.503,241.799 276.567 C 242.064 276.994,242.941 277.344,243.750 277.344 C 246.090 277.344,246.242 278.514,244.553 283.530 C 242.903 288.428,242.395 296.875,243.750 296.875 C 244.180 296.875,244.531 296.160,244.531 295.285 C 244.531 294.411,245.086 292.849,245.763 291.815 C 246.441 290.780,247.232 287.541,247.521 284.616 L 248.047 279.297 251.701 282.665 C 255.149 285.842,260.470 288.228,261.595 287.102 C 262.167 286.531,261.173 285.749,255.888 282.611 C 251.777 280.170,249.534 276.118,250.422 272.741 C 250.947 270.745,250.974 270.738,251.730 272.371 C 253.156 275.451,255.792 276.214,258.456 274.317 C 259.739 273.404,261.173 272.656,261.644 272.656 C 262.371 272.656,262.949 269.067,262.568 266.919 C 262.504 266.556,262.902 266.413,263.452 266.600 C 264.003 266.787,264.491 267.787,264.538 268.822 C 264.694 272.299,264.839 272.656,266.089 272.656 C 266.774 272.656,267.518 271.953,267.742 271.094 C 267.967 270.234,268.198 269.537,268.255 269.543 C 268.312 269.549,269.766 270.061,271.484 270.681 C 275.716 272.205,276.563 272.144,276.563 270.312 C 276.563 269.453,276.131 268.838,275.604 268.945 C 275.078 269.053,274.526 268.350,274.378 267.383 C 274.038 265.150,274.755 265.150,276.565 267.383 C 278.257 269.470,279.409 268.806,278.157 266.466 C 277.397 265.047,277.545 264.729,279.265 264.074 C 281.953 263.053,281.782 261.911,279.003 262.319 L 276.755 262.649 276.395 255.348 C 276.096 249.283,275.629 247.187,273.635 242.969 C 266.099 227.018,266.216 227.705,270.703 225.781 C 274.942 223.964,275.511 221.006,272.291 217.531 C 270.271 215.352,269.088 212.683,269.817 211.954 C 270.394 211.377,267.611 206.011,266.073 204.735 C 265.397 204.174,264.844 202.609,264.844 201.258 C 264.844 199.890,263.931 197.457,262.786 195.773 C 261.431 193.778,260.698 191.610,260.638 189.422 C 260.588 187.595,260.320 186.237,260.043 186.405 C 259.396 186.796,258.744 185.180,257.021 178.906 C 255.101 171.916,253.443 166.589,252.038 162.891 C 251.384 161.172,250.834 158.929,250.816 157.906 C 250.797 156.884,250.056 153.193,249.171 149.703 C 244.621 131.784,243.869 129.892,240.047 126.759 C 238.225 125.266,236.961 123.677,237.238 123.229 C 237.527 122.761,237.365 122.648,236.856 122.962 C 236.369 123.263,234.997 122.840,233.806 122.023 C 227.602 117.764,224.415 116.300,215.625 113.669 C 213.691 113.090,210.795 111.927,209.189 111.085 C 207.583 110.242,204.626 109.074,202.618 108.487 C 199.255 107.506,198.823 107.083,197.125 103.125 C 196.111 100.762,194.717 97.821,194.028 96.591 C 191.091 91.346,193.259 80.165,198.440 73.828 C 200.064 71.842,200.145 67.266,198.608 64.307 C 197.757 62.669,196.700 58.959,196.258 56.064 C 195.296 49.753,191.994 43.883,188.450 42.182 C 187.100 41.534,185.544 40.447,184.990 39.766 C 182.608 36.835,167.545 33.252,163.672 34.696 M177.578 38.017 C 178.953 38.730,179.692 39.445,179.220 39.605 C 177.974 40.026,174.219 38.460,174.219 37.519 C 174.219 36.437,174.661 36.502,177.578 38.017 M169.531 39.063 C 170.573 39.736,170.573 39.820,169.531 39.820 C 168.887 39.820,167.832 39.479,167.188 39.063 C 166.146 38.389,166.146 38.305,167.188 38.305 C 167.832 38.305,168.887 38.646,169.531 39.063 M165.689 41.406 C 166.513 41.406,167.106 41.670,167.007 41.992 C 166.907 42.314,168.298 44.733,170.097 47.367 L 173.368 52.155 170.473 52.633 C 163.651 53.760,161.626 54.718,160.532 57.337 C 159.292 60.305,160.313 66.134,162.360 67.773 C 163.411 68.615,163.289 68.750,161.477 68.750 C 159.896 68.750,159.375 69.137,159.375 70.313 C 159.375 71.880,157.500 72.484,156.692 71.177 C 156.455 70.793,156.805 69.174,157.471 67.580 C 159.714 62.212,156.476 56.477,151.606 57.191 C 146.131 57.995,149.521 45.594,155.469 43.062 C 159.767 41.232,161.787 40.719,163.150 41.108 C 163.722 41.272,164.865 41.406,165.689 41.406 M184.375 46.610 C 184.375 48.047,184.144 47.953,181.972 45.634 L 180.078 43.612 182.227 44.588 C 183.408 45.124,184.375 46.034,184.375 46.610 M190.284 47.070 L 192.578 49.609 190.039 47.315 C 187.672 45.176,187.141 44.531,187.744 44.531 C 187.879 44.531,189.021 45.674,190.284 47.070 M170.898 62.695 C 170.791 63.232,171.406 63.677,172.266 63.684 C 176.933 63.722,179.004 66.181,178.643 71.256 C 178.253 76.760,179.037 80.198,181.025 81.696 C 182.738 82.986,179.297 86.523,175.611 87.261 C 174.435 87.496,173.053 88.194,172.541 88.811 C 170.556 91.202,159.898 94.201,157.142 93.144 C 155.363 92.461,149.787 79.789,149.787 76.428 C 149.787 71.196,151.316 70.508,154.754 74.195 C 157.342 76.971,157.760 77.177,158.171 75.881 C 158.665 74.325,162.421 73.156,164.438 73.930 C 166.294 74.643,166.684 72.196,165.134 69.572 C 164.359 68.260,163.450 67.188,163.113 67.188 C 162.271 67.188,162.336 64.256,163.189 63.729 C 163.569 63.494,164.767 64.001,165.852 64.854 C 168.806 67.178,169.347 66.724,166.797 64.063 L 164.551 61.719 167.823 61.719 C 170.023 61.719,171.030 62.038,170.898 62.695 M196.875 66.360 C 196.875 66.764,196.582 67.276,196.224 67.498 C 195.866 67.719,195.735 69.058,195.933 70.473 C 196.131 71.889,196.042 72.811,195.735 72.523 C 194.527 71.390,194.514 65.625,195.719 65.625 C 196.355 65.625,196.875 65.956,196.875 66.360 M193.618 76.313 C 191.777 78.272,190.625 78.045,190.625 75.723 C 190.625 74.508,191.103 74.230,192.950 74.371 L 195.275 74.548 193.618 76.313 M169.818 78.513 C 170.291 79.515,170.932 80.178,171.242 79.986 C 172.034 79.497,171.176 77.543,169.965 77.078 C 169.175 76.774,169.143 77.083,169.818 78.513 M158.398 77.903 C 157.217 78.082,156.245 78.469,156.239 78.763 C 156.233 79.057,156.029 80.039,155.786 80.947 C 155.453 82.186,155.764 82.708,157.032 83.039 C 158.217 83.349,158.676 84.021,158.571 85.295 C 158.321 88.322,158.514 88.457,160.668 86.763 C 162.246 85.522,163.372 85.249,165.371 85.624 C 167.955 86.109,167.985 86.082,167.202 84.023 C 166.112 81.155,166.192 80.631,167.773 80.277 C 168.739 80.060,168.252 79.584,166.116 78.657 C 163.100 77.348,162.470 77.287,158.398 77.903 M164.407 81.616 C 163.573 82.247,162.012 82.763,160.938 82.763 C 159.052 82.763,159.037 82.723,160.501 81.616 C 161.335 80.985,162.896 80.469,163.971 80.469 C 165.856 80.469,165.871 80.509,164.407 81.616 M181.420 94.673 C 180.745 95.349,180.854 95.822,181.863 96.589 C 183.124 97.547,183.122 97.608,181.824 97.631 C 181.066 97.645,179.816 98.692,179.046 99.958 L 177.646 102.259 173.516 99.900 C 169.232 97.454,168.529 96.236,172.208 97.634 C 175.716 98.968,178.670 98.644,179.133 96.875 C 179.497 95.481,179.157 95.313,175.969 95.313 C 171.365 95.313,172.166 94.528,177.488 93.823 C 182.093 93.213,182.741 93.353,181.420 94.673 M171.996 100.781 C 174.091 102.070,176.189 103.125,176.658 103.125 C 177.172 103.125,177.279 103.668,176.926 104.492 C 176.605 105.244,176.177 106.815,175.976 107.983 C 175.062 113.301,170.046 112.150,167.212 105.972 C 165.997 103.323,165.696 101.930,166.295 101.730 C 166.786 101.566,167.188 100.758,167.188 99.935 C 167.188 97.965,167.512 98.022,171.996 100.781 M143.738 102.148 C 143.745 102.686,143.398 103.125,142.969 103.125 C 142.539 103.125,142.193 102.158,142.199 100.977 C 142.212 98.777,143.711 99.918,143.738 102.148 M182.813 100.270 C 182.813 100.418,182.058 101.209,181.136 102.027 C 179.469 103.508,179.465 103.506,180.383 101.758 C 181.144 100.307,182.813 99.285,182.813 100.270 M193.742 106.619 C 194.649 109.006,195.057 118.485,194.285 119.256 C 193.443 120.098,184.116 109.347,184.017 107.420 C 183.983 106.748,189.256 104.909,191.621 104.769 C 192.422 104.722,193.317 105.502,193.742 106.619 M188.366 115.193 C 192.705 120.068,193.233 121.441,191.821 124.173 C 191.163 125.445,190.625 127.050,190.625 127.742 C 190.625 128.433,190.268 128.778,189.831 128.508 C 189.394 128.238,189.216 127.728,189.434 127.375 C 189.652 127.022,188.952 126.158,187.878 125.454 C 186.805 124.751,184.876 122.315,183.593 120.041 C 182.310 117.767,180.378 115.078,179.300 114.066 L 177.341 112.225 179.882 110.041 L 182.422 107.857 183.984 109.942 C 184.844 111.089,186.815 113.452,188.366 115.193 M142.188 109.766 C 142.188 110.410,141.836 110.938,141.406 110.938 C 140.977 110.938,140.625 110.410,140.625 109.766 C 140.625 109.121,140.977 108.594,141.406 108.594 C 141.836 108.594,142.188 109.121,142.188 109.766 M201.172 112.500 C 201.437 112.930,202.073 113.276,202.585 113.269 C 203.158 113.262,203.065 112.939,202.344 112.429 C 199.945 110.733,208.290 112.265,212.229 114.244 C 214.383 115.326,217.095 116.211,218.255 116.211 C 219.415 116.211,220.968 116.723,221.706 117.348 C 222.443 117.974,225.055 119.336,227.509 120.375 C 235.422 123.728,241.458 129.281,243.152 134.766 C 247.281 148.141,248.662 154.558,246.094 148.438 C 244.297 144.155,244.056 145.359,245.762 150.097 C 246.439 151.977,247.118 154.422,247.271 155.530 C 247.515 157.304,249.492 163.316,251.190 167.445 C 251.654 168.575,251.357 168.485,249.770 167.014 C 248.651 165.977,247.221 163.269,246.541 160.897 C 245.867 158.551,245.508 157.868,245.741 159.375 C 249.067 180.960,249.131 182.066,247.003 181.510 C 246.152 181.287,244.329 178.591,242.515 174.870 C 238.976 167.612,239.072 167.707,236.282 168.767 L 234.152 169.577 234.621 165.620 C 234.878 163.443,235.934 160.005,236.967 157.980 C 239.960 152.109,240.848 147.492,239.221 146.254 C 238.227 145.498,237.897 144.080,237.917 140.648 C 237.932 138.121,237.668 136.224,237.331 136.433 C 236.994 136.641,236.719 138.739,236.719 141.095 C 236.719 143.451,236.138 148.088,235.429 151.400 C 234.720 154.712,234.062 158.301,233.967 159.375 C 233.677 162.673,233.388 162.289,232.792 157.813 C 230.966 144.101,229.629 135.874,228.664 132.422 L 227.573 128.516 227.038 135.547 C 226.743 139.431,225.933 143.723,225.229 145.135 C 224.474 146.648,223.997 149.360,224.061 151.776 C 224.227 158.089,223.992 158.430,219.902 157.809 C 215.308 157.112,215.197 156.940,216.291 152.202 C 217.360 147.572,216.383 145.503,214.862 149.175 C 213.590 152.246,213.176 152.182,211.339 148.633 C 210.506 147.021,208.182 143.242,206.177 140.234 C 202.488 134.704,195.991 124.604,195.027 122.903 C 193.558 120.310,199.637 110.017,201.172 112.500 M139.679 115.723 C 139.853 116.634,138.918 117.288,136.367 118.042 C 132.387 119.217,131.886 120.050,134.728 120.764 C 136.604 121.234,144.197 119.227,145.664 117.873 C 148.110 115.614,153.913 118.101,152.701 120.888 C 152.132 122.196,152.085 122.196,151.775 120.898 C 151.364 119.182,150.979 119.192,146.779 121.019 C 144.898 121.838,141.250 122.925,138.672 123.435 C 133.931 124.372,130.469 126.008,130.469 127.309 C 130.469 128.761,133.680 128.959,138.448 127.801 C 149.303 125.164,155.328 126.369,147.898 129.690 C 144.974 130.997,143.300 131.262,140.350 130.882 C 134.332 130.107,129.619 134.331,135.147 135.545 C 138.261 136.229,138.819 137.367,136.751 138.815 C 135.816 139.470,135.234 140.483,135.458 141.066 C 135.899 142.215,128.745 149.020,125.176 150.847 C 124.005 151.446,121.365 152.905,119.310 154.089 C 115.503 156.280,113.947 155.808,115.097 152.811 C 115.334 152.192,114.947 151.567,114.204 151.372 C 109.857 150.231,110.535 145.461,116.347 136.295 C 117.641 134.255,119.265 130.883,119.956 128.802 C 122.552 120.988,138.649 110.313,139.679 115.723 M147.591 114.343 C 146.671 115.137,142.885 115.611,143.340 114.875 C 143.616 114.428,144.759 114.063,145.879 114.063 C 147.000 114.063,147.770 114.189,147.591 114.343 M155.469 117.674 C 155.469 118.712,155.257 118.765,154.297 117.969 C 153.652 117.434,153.125 116.863,153.125 116.701 C 153.125 116.539,153.652 116.406,154.297 116.406 C 154.941 116.406,155.469 116.977,155.469 117.674 M185.728 124.624 C 190.777 130.756,193.750 131.427,193.750 126.437 L 193.750 123.203 196.046 126.373 C 197.309 128.116,199.489 131.597,200.890 134.107 C 202.291 136.618,204.773 140.462,206.406 142.649 C 208.039 144.837,209.375 147.057,209.375 147.584 C 209.375 148.111,210.278 149.726,211.383 151.174 C 214.971 155.878,213.421 156.916,204.551 155.750 C 189.297 153.743,188.943 153.897,189.916 162.109 L 190.380 166.016 190.502 160.910 C 190.647 154.897,189.935 155.168,202.344 156.396 C 212.473 157.398,211.886 156.931,209.766 162.297 C 208.788 164.772,207.784 168.203,207.535 169.922 C 207.101 172.918,207.118 172.950,207.957 170.703 C 208.438 169.414,209.657 167.135,210.666 165.639 C 211.675 164.143,212.500 162.551,212.500 162.102 C 212.500 161.653,213.067 160.475,213.761 159.485 L 215.022 157.685 216.861 160.679 C 219.180 164.451,219.211 165.617,216.992 165.656 C 215.518 165.681,215.644 165.864,217.773 166.790 C 219.170 167.397,220.313 168.385,220.313 168.986 C 220.313 171.209,218.415 175.473,216.180 178.271 C 213.897 181.131,213.572 183.987,215.129 187.513 C 215.519 188.395,214.501 189.244,211.147 190.832 C 208.668 192.005,207.344 192.750,208.203 192.486 C 215.505 190.248,215.686 190.382,212.891 195.948 C 210.506 200.694,210.504 201.170,212.832 208.984 C 215.333 217.381,216.557 220.248,215.916 216.211 C 215.609 214.276,215.752 213.281,216.336 213.281 C 216.823 213.281,217.621 212.402,218.111 211.328 C 218.600 210.254,219.229 209.375,219.507 209.375 C 220.967 209.375,222.662 211.648,223.004 214.063 C 223.216 215.566,223.730 218.177,224.144 219.864 C 224.964 223.203,223.666 227.005,221.410 227.871 C 219.418 228.636,219.322 227.604,220.965 223.037 C 222.217 219.554,222.316 218.714,221.432 219.053 C 220.816 219.289,220.313 219.121,220.313 218.679 C 220.313 216.451,218.771 219.247,218.312 222.307 C 217.829 225.529,217.688 225.710,216.651 224.437 C 215.624 223.177,215.578 223.266,216.158 225.391 C 216.509 226.680,216.797 231.471,216.797 236.038 L 216.797 244.341 218.610 242.382 C 219.945 240.942,220.654 240.654,221.295 241.295 C 222.441 242.441,219.836 245.259,213.867 249.335 C 210.140 251.880,209.367 252.164,209.325 251.006 C 209.287 249.927,209.111 250.020,208.551 251.417 C 207.561 253.886,206.250 252.838,206.250 249.578 C 206.250 246.194,204.296 245.563,198.888 247.201 C 195.413 248.253,194.954 248.245,194.129 247.117 C 193.313 246.002,193.082 246.058,191.970 247.646 C 190.372 249.928,188.901 249.353,186.147 245.372 C 184.957 243.653,183.740 242.233,183.441 242.217 C 182.609 242.172,187.987 252.690,189.391 253.855 C 190.267 254.582,190.625 256.252,190.625 259.616 C 190.625 263.334,190.974 264.723,192.246 266.077 L 193.866 267.802 191.729 273.159 C 187.999 282.509,186.330 284.451,182.518 283.875 C 178.286 283.235,174.219 281.554,174.219 280.445 C 174.219 279.958,173.043 278.094,171.605 276.303 C 168.103 271.940,167.559 270.313,169.602 270.313 C 170.473 270.313,170.984 269.985,170.736 269.585 C 170.489 269.185,170.644 268.637,171.081 268.367 C 171.518 268.097,171.875 268.197,171.875 268.588 C 171.875 268.979,173.862 267.465,176.290 265.223 C 180.035 261.766,180.620 260.864,180.144 259.284 C 177.692 251.152,177.243 229.273,178.895 198.438 C 180.586 166.876,180.324 144.160,178.207 138.672 C 175.112 130.647,175.151 127.885,178.416 123.694 C 179.954 121.719,180.994 119.711,180.726 119.231 C 179.926 117.797,181.536 119.533,185.728 124.624 M124.697 124.585 C 123.985 125.673,123.749 126.563,124.173 126.563 C 125.039 126.563,126.882 123.497,126.341 122.956 C 126.150 122.764,125.410 123.497,124.697 124.585 M240.673 135.742 C 240.699 136.494,241.578 138.867,242.625 141.016 C 243.672 143.164,244.374 144.395,244.186 143.750 C 241.663 135.120,240.563 132.613,240.673 135.742 M109.437 139.001 C 109.403 139.612,108.773 140.842,108.037 141.735 C 106.775 143.267,106.803 143.264,108.520 141.683 C 109.521 140.761,110.151 139.530,109.920 138.949 C 109.578 138.091,109.487 138.101,109.437 139.001 M183.186 148.456 C 182.094 149.664,181.607 149.802,181.124 149.042 C 180.759 148.467,180.488 148.404,180.481 148.893 C 180.460 150.351,181.399 150.756,182.915 149.945 C 184.289 149.210,184.376 149.569,184.387 156.027 C 184.406 167.151,187.224 167.739,188.052 156.792 C 188.441 151.646,188.310 150.810,186.889 149.389 C 186.007 148.507,185.492 147.581,185.742 147.331 C 185.993 147.080,185.842 146.875,185.408 146.875 C 184.973 146.875,183.973 147.586,183.186 148.456 M114.058 156.985 C 114.055 157.655,113.528 157.196,112.886 155.965 C 111.408 153.133,111.423 152.278,112.915 154.251 C 113.546 155.085,114.060 156.315,114.058 156.985 M251.991 158.898 C 252.232 160.140,252.938 162.249,253.562 163.586 L 254.696 166.016 254.259 163.758 C 254.018 162.517,253.312 160.407,252.688 159.071 L 251.554 156.641 251.991 158.898 M221.094 161.719 C 221.094 165.518,220.885 165.564,218.814 162.212 C 216.746 158.867,216.771 158.594,219.141 158.594 C 220.898 158.594,221.094 158.906,221.094 161.719 M112.500 165.630 C 112.500 166.379,111.644 168.529,110.597 170.409 C 109.550 172.290,107.434 177.344,105.895 181.641 C 104.356 185.938,102.901 189.980,102.662 190.625 C 101.807 192.930,99.896 186.382,99.500 179.790 C 99.065 172.561,99.536 170.819,103.695 164.261 L 106.294 160.163 109.397 162.217 C 111.104 163.346,112.500 164.882,112.500 165.630 M194.727 163.039 C 195.479 163.235,196.709 163.235,197.461 163.039 C 198.213 162.842,197.598 162.681,196.094 162.681 C 194.590 162.681,193.975 162.842,194.727 163.039 M200.595 163.834 C 201.567 164.021,202.973 164.014,203.720 163.818 C 204.467 163.622,203.672 163.470,201.953 163.478 C 200.234 163.487,199.623 163.647,200.595 163.834 M92.684 167.016 C 92.421 167.442,92.728 168.226,93.368 168.757 C 94.638 169.811,94.903 168.985,93.836 167.299 C 93.428 166.656,92.976 166.544,92.684 167.016 M113.967 170.059 C 113.407 171.702,112.256 174.070,111.410 175.320 C 110.564 176.570,109.848 178.736,109.819 180.133 C 109.778 182.095,109.539 182.485,108.771 181.851 C 107.531 180.826,107.973 179.226,111.484 172.042 C 114.417 166.039,115.685 165.027,113.967 170.059 M254.777 167.188 C 254.814 167.832,255.125 169.238,255.469 170.313 L 256.094 172.266 256.160 170.313 C 256.196 169.238,255.885 167.832,255.469 167.188 C 254.796 166.146,254.719 166.146,254.777 167.188 M189.058 176.563 C 188.803 183.021,189.003 187.642,189.648 190.209 C 190.186 192.344,190.625 195.543,190.625 197.319 C 190.625 199.095,190.970 201.567,191.392 202.813 C 191.814 204.059,192.290 206.660,192.450 208.594 C 192.610 210.527,193.533 216.328,194.500 221.484 C 196.964 234.609,197.027 234.876,197.415 233.826 C 197.606 233.310,196.995 228.563,196.057 223.279 C 195.119 217.995,194.218 211.563,194.054 208.984 C 193.780 204.671,191.021 189.442,190.060 186.937 C 189.602 185.742,197.101 189.903,199.660 192.263 C 200.547 193.081,201.601 193.745,202.003 193.738 C 202.405 193.731,202.207 193.393,201.563 192.985 C 200.918 192.578,200.391 191.881,200.391 191.437 C 200.391 190.993,198.105 189.302,195.313 187.679 L 190.234 184.729 189.839 175.763 L 189.444 166.797 189.058 176.563 M146.875 172.991 C 146.875 173.514,145.070 175.411,142.864 177.206 C 140.657 179.000,139.216 180.469,139.661 180.469 C 140.595 180.469,143.227 191.608,143.338 196.030 C 143.375 197.509,145.313 198.107,145.313 196.639 C 145.313 194.628,148.991 192.700,149.861 194.255 C 151.156 196.569,151.960 177.193,150.725 173.438 C 150.654 173.223,150.608 172.871,150.623 172.656 C 150.638 172.441,149.801 172.215,148.763 172.153 C 147.724 172.091,146.875 172.468,146.875 172.991 M93.758 186.914 C 93.763 187.881,94.291 190.400,94.932 192.512 C 96.437 197.475,95.866 197.893,92.541 194.264 C 89.576 191.027,89.162 188.767,91.137 186.585 C 92.867 184.673,93.748 184.784,93.758 186.914 M105.482 190.199 C 104.233 193.485,103.891 192.284,104.941 188.299 C 105.522 186.094,105.944 185.398,106.090 186.404 C 106.217 187.278,105.944 188.986,105.482 190.199 M252.332 187.695 C 252.312 189.289,251.017 190.863,250.161 190.334 C 249.052 189.649,249.946 186.719,251.263 186.719 C 251.857 186.719,252.338 187.158,252.332 187.695 M123.530 192.383 C 123.173 193.350,123.042 194.600,123.239 195.162 C 123.761 196.648,121.283 199.062,117.532 200.721 C 114.393 202.110,111.430 204.814,114.325 203.648 C 117.685 202.296,118.171 202.322,116.016 203.740 C 114.596 204.675,111.747 205.444,108.789 205.692 C 103.763 206.114,102.580 205.539,105.664 204.174 C 112.210 201.277,115.005 199.443,119.142 195.330 C 124.530 189.973,124.385 190.071,123.530 192.383 M87.831 197.070 C 88.838 203.616,89.257 205.469,89.734 205.479 C 90.009 205.485,91.065 205.713,92.081 205.984 C 94.450 206.618,93.968 204.815,90.089 198.531 L 87.380 194.141 87.831 197.070 M263.281 201.234 C 263.281 202.550,262.947 202.948,262.109 202.626 C 261.465 202.379,260.933 201.599,260.927 200.893 C 260.921 200.187,260.718 198.730,260.477 197.656 L 260.038 195.703 261.659 197.547 C 262.551 198.562,263.281 200.221,263.281 201.234 M256.441 198.828 C 256.205 200.062,255.543 200.781,254.641 200.781 C 253.856 200.781,252.656 201.572,251.975 202.539 C 250.924 204.031,250.624 204.120,249.990 203.125 C 248.840 201.321,248.986 201.080,252.539 198.938 C 256.687 196.437,256.899 196.431,256.441 198.828 M236.707 200.171 C 236.713 200.480,236.151 200.514,235.457 200.248 C 234.437 199.857,234.295 200.123,234.716 201.640 C 235.193 203.356,235.143 203.399,234.134 202.148 C 232.606 200.255,231.821 200.439,232.466 202.539 C 233.096 204.586,232.631 204.262,231.317 201.736 C 230.472 200.113,230.616 199.863,232.965 198.875 C 235.435 197.836,236.666 198.263,236.707 200.171 M121.907 203.861 C 120.972 205.175,119.820 206.250,119.348 206.250 C 118.876 206.250,118.725 206.486,119.013 206.774 C 119.302 207.062,120.414 206.475,121.484 205.469 C 123.977 203.127,124.634 203.818,123.334 207.413 C 121.394 212.778,114.660 214.333,109.711 210.558 L 106.885 208.403 111.060 206.961 C 113.356 206.168,116.048 205.508,117.042 205.494 C 118.036 205.480,119.794 204.491,120.948 203.296 C 123.632 200.518,124.094 200.790,121.907 203.861 M248.828 203.125 C 249.669 204.486,248.422 205.648,247.205 204.637 C 246.603 204.138,246.304 203.417,246.539 203.036 C 247.109 202.114,248.230 202.158,248.828 203.125 M265.902 206.872 C 266.717 208.254,267.306 214.412,266.553 213.672 C 266.115 213.242,265.613 212.012,265.436 210.938 C 265.116 208.990,265.112 208.990,264.388 210.710 C 263.894 211.882,263.326 212.229,262.618 211.792 C 261.748 211.254,261.749 210.866,262.623 209.462 C 263.522 208.017,263.478 207.438,262.315 205.405 L 260.957 203.033 263.267 204.678 C 264.538 205.582,265.724 206.570,265.902 206.872 M259.658 206.641 C 259.182 207.880,257.813 208.266,257.813 207.161 C 257.813 206.335,258.666 205.469,259.481 205.469 C 259.825 205.469,259.905 205.996,259.658 206.641 M239.633 207.617 C 239.417 208.369,238.996 209.574,238.699 210.294 C 238.281 211.307,238.645 211.660,240.308 211.856 C 243.898 212.279,241.740 216.406,237.929 216.406 C 236.747 216.406,237.722 214.704,239.258 214.087 C 240.941 213.410,240.923 213.378,238.843 213.331 C 236.195 213.270,235.296 211.378,237.015 209.480 C 238.804 207.502,238.589 206.953,236.356 207.802 C 235.246 208.224,234.249 208.241,234.002 207.842 C 233.540 207.093,235.231 206.485,238.177 206.341 C 239.587 206.272,239.933 206.575,239.633 207.617 M255.469 208.510 C 255.469 209.377,253.065 210.357,252.450 209.742 C 252.202 209.493,252.516 208.963,253.148 208.563 C 254.608 207.639,255.469 207.620,255.469 208.510 M251.214 211.898 C 250.482 212.308,249.656 212.416,249.378 212.139 C 248.691 211.451,250.915 210.147,251.821 210.707 C 252.219 210.952,251.946 211.489,251.214 211.898 M263.112 216.387 C 262.459 217.432,261.892 217.674,261.354 217.135 C 260.816 216.597,260.936 216.104,261.725 215.604 C 263.600 214.419,264.148 214.728,263.112 216.387 M243.078 217.213 C 241.114 218.849,239.063 219.247,239.063 217.991 C 239.063 217.574,240.205 216.902,241.602 216.499 C 245.127 215.481,245.146 215.490,243.078 217.213 M232.507 225.391 C 233.210 227.539,234.481 230.449,235.330 231.858 C 236.644 234.039,236.717 234.611,235.820 235.715 C 234.913 236.830,234.941 236.946,236.020 236.542 C 236.912 236.209,237.647 236.853,238.559 238.766 C 240.185 242.176,240.231 244.066,238.672 243.467 C 237.011 242.830,237.202 243.212,239.625 245.372 C 240.793 246.413,241.271 246.642,240.685 245.880 C 240.100 245.117,239.821 244.294,240.065 244.049 C 240.631 243.484,242.969 247.952,242.969 249.598 C 242.969 250.279,243.553 251.727,244.266 252.817 C 244.980 253.906,246.123 255.915,246.805 257.281 L 248.047 259.766 243.591 263.917 C 241.141 266.201,238.898 268.818,238.607 269.734 C 238.008 271.624,235.190 263.778,235.167 260.156 C 235.160 259.082,234.645 255.742,234.021 252.734 C 233.014 247.877,231.215 233.901,230.211 223.137 C 229.803 218.755,230.584 219.522,232.507 225.391 M245.794 221.289 C 245.536 222.256,245.095 223.878,244.814 224.894 C 244.366 226.511,244.510 226.674,245.979 226.208 C 248.114 225.531,248.153 226.242,246.044 227.370 C 243.299 228.839,242.039 227.109,243.429 223.782 C 244.637 220.891,244.473 220.652,242.136 221.902 C 240.962 222.531,240.625 222.456,240.625 221.569 C 240.625 220.438,242.004 219.797,244.811 219.622 C 245.949 219.551,246.162 219.912,245.794 221.289 M122.939 222.266 C 122.380 223.722,123.115 225.781,124.194 225.781 C 124.637 225.781,125.000 224.727,125.000 223.438 C 125.000 220.984,123.712 220.252,122.939 222.266 M269.293 227.150 C 268.517 227.329,267.990 227.730,268.121 228.043 C 272.265 237.903,273.835 240.694,274.266 238.963 C 274.661 237.378,275.196 238.031,277.951 243.462 C 279.724 246.956,280.928 250.089,280.626 250.423 C 280.325 250.758,280.518 250.779,281.055 250.470 C 281.592 250.161,282.031 250.204,282.031 250.567 C 282.031 250.929,280.992 251.840,279.721 252.590 C 278.298 253.431,277.576 254.384,277.840 255.073 C 278.205 256.022,278.567 255.997,280.228 254.908 C 282.522 253.405,283.634 250.900,282.750 249.228 C 282.406 248.579,279.966 243.652,277.328 238.281 C 272.099 227.637,271.398 226.665,269.293 227.150 M226.897 235.547 C 227.216 237.266,227.998 239.254,228.637 239.966 C 230.007 241.493,229.763 246.272,228.301 246.561 C 227.753 246.669,227.667 246.578,228.110 246.359 C 229.737 245.554,227.946 244.531,224.908 244.531 C 222.722 244.531,221.952 244.257,222.347 243.618 C 222.658 243.116,222.993 240.866,223.093 238.619 C 223.192 236.371,223.527 233.030,223.838 231.193 L 224.402 227.853 225.360 230.138 C 225.888 231.394,226.579 233.828,226.897 235.547 M257.813 228.496 C 257.813 228.699,256.670 229.424,255.273 230.105 L 252.734 231.344 254.688 229.752 C 256.568 228.219,257.813 227.719,257.813 228.496 M246.463 234.658 C 244.767 235.830,239.844 236.763,239.844 235.913 C 239.844 235.619,241.338 235.019,243.164 234.580 C 247.858 233.451,248.199 233.459,246.463 234.658 M253.125 236.758 C 253.125 237.209,252.589 238.615,251.933 239.883 C 250.741 242.188,251.827 242.886,255.664 242.280 C 256.723 242.113,256.277 243.485,254.883 244.682 C 252.775 246.492,251.563 247.044,251.563 246.193 C 251.563 245.766,252.266 245.195,253.125 244.922 C 255.430 244.190,255.023 242.969,252.474 242.969 C 249.488 242.969,249.072 242.356,250.537 240.120 C 252.028 237.844,251.504 237.058,249.286 238.245 C 248.389 238.725,247.656 238.941,247.656 238.724 C 247.656 238.274,251.657 236.016,252.539 235.969 C 252.861 235.952,253.125 236.307,253.125 236.758 M120.547 242.969 C 120.547 245.332,120.693 246.299,120.872 245.117 C 121.051 243.936,121.051 242.002,120.872 240.820 C 120.693 239.639,120.547 240.605,120.547 242.969 M204.589 251.896 C 204.418 257.111,207.006 260.232,208.926 257.126 C 209.160 256.748,210.079 256.248,210.970 256.015 C 212.128 255.712,212.388 255.852,211.880 256.507 C 211.490 257.010,210.712 259.652,210.151 262.377 C 209.348 266.275,208.739 267.511,207.296 268.168 C 204.738 269.334,204.519 268.775,205.829 264.423 C 206.459 262.331,206.855 260.501,206.710 260.356 C 206.327 259.973,203.906 266.224,203.906 267.594 C 203.906 268.230,203.510 268.750,203.025 268.750 C 202.434 268.750,202.309 267.716,202.647 265.605 C 203.019 263.280,202.866 262.351,202.059 262.042 C 201.237 261.727,201.119 260.914,201.578 258.741 C 201.914 257.156,202.425 253.833,202.714 251.357 C 203.363 245.804,204.775 246.210,204.589 251.896 M234.375 251.172 C 234.375 252.279,234.826 253.125,235.417 253.125 C 237.066 253.125,237.509 252.257,236.664 250.679 C 235.558 248.613,234.375 248.868,234.375 251.172 M200.069 257.353 C 199.602 260.039,199.219 263.703,199.219 265.494 C 199.219 268.573,199.094 268.750,196.932 268.750 C 194.334 268.750,193.711 267.366,194.646 263.672 C 194.972 262.383,195.408 259.259,195.615 256.731 C 196.018 251.809,196.394 251.097,198.828 250.639 C 200.875 250.255,201.097 251.454,200.069 257.353 M275.000 258.249 C 275.000 261.987,274.713 263.978,274.219 263.672 C 272.809 262.801,273.290 252.344,274.740 252.344 C 274.883 252.344,275.000 255.001,275.000 258.249 M272.094 269.530 C 271.264 270.461,269.531 266.626,269.531 263.856 C 269.531 260.382,267.420 259.921,266.026 263.091 C 265.265 264.819,262.500 265.582,262.500 264.063 C 262.500 263.633,262.148 263.281,261.719 263.281 C 261.289 263.281,260.938 265.045,260.938 267.200 C 260.938 270.912,260.792 271.188,258.195 272.427 C 254.599 274.142,252.646 272.737,255.776 270.686 C 257.307 269.683,257.813 268.695,257.813 266.707 C 257.813 264.999,258.188 264.063,258.875 264.063 C 259.459 264.063,261.129 262.836,262.586 261.336 C 264.042 259.837,265.615 258.607,266.081 258.602 C 266.546 258.597,267.952 257.566,269.206 256.309 L 271.484 254.024 271.963 261.582 C 272.226 265.739,272.285 269.316,272.094 269.530 M266.617 258.868 C 265.658 259.344,264.708 260.163,264.507 260.689 C 264.265 261.320,265.053 261.192,266.816 260.315 C 268.288 259.583,269.501 258.721,269.512 258.398 C 269.536 257.660,268.820 257.776,266.617 258.868 M248.828 262.500 C 248.124 263.640,252.599 263.469,253.925 262.305 C 254.536 261.768,254.449 262.038,253.731 262.907 C 253.013 263.775,252.078 265.357,251.653 266.422 C 250.900 268.310,250.879 268.315,250.831 266.602 C 250.739 263.347,249.219 264.809,249.207 268.164 C 249.199 270.360,248.964 271.120,248.513 270.408 C 248.138 269.816,247.440 269.573,246.962 269.868 C 246.428 270.198,246.094 269.760,246.094 268.731 C 246.094 267.722,245.706 267.199,245.117 267.415 C 244.580 267.612,244.254 268.244,244.392 268.819 C 244.969 271.227,243.690 275.142,242.617 274.251 C 240.006 272.084,240.722 268.873,244.631 265.217 C 248.186 261.892,249.883 260.793,248.828 262.500 M188.916 264.133 C 188.361 265.539,188.776 266.295,191.016 267.955 C 192.516 269.067,192.527 269.052,191.292 267.565 C 190.584 266.713,189.870 265.313,189.706 264.453 C 189.459 263.163,189.321 263.107,188.916 264.133 M185.728 265.625 C 184.856 266.644,183.424 267.188,181.611 267.188 C 178.994 267.188,174.272 270.626,175.375 271.729 C 175.590 271.944,176.631 271.186,177.689 270.044 C 178.826 268.818,180.448 267.969,181.655 267.969 C 184.167 267.969,186.384 266.842,186.993 265.256 C 187.601 263.673,187.333 263.751,185.728 265.625 M256.250 266.331 C 256.250 267.099,255.547 268.363,254.688 269.141 C 252.847 270.807,252.369 268.497,253.945 265.552 C 254.884 263.798,256.250 264.260,256.250 266.331 M164.179 290.234 C 164.117 296.541,164.334 299.226,164.844 298.438 C 165.730 297.067,165.747 290.336,164.880 284.766 C 164.391 281.627,164.253 282.701,164.179 290.234 " stroke="none" fill="#000000" fill-rule="evenodd"></path></g></svg>