<svg id="svg" version="1.1" xmlns="http://www.w3.org/2000/svg" xmlns:xlink="http://www.w3.org/1999/xlink" width="400" height="400" viewBox="0, 0, 400,400"><g id="svgg"><path id="path0" d="M0.000 200.000 L 0.000 400.000 200.000 400.000 L 400.000 400.000 400.000 200.000 L 400.000 0.000 200.000 0.000 L 0.000 0.000 0.000 200.000 M85.096 16.800 C 86.348 17.240,87.649 17.601,87.986 17.602 C 88.744 17.606,90.974 18.772,94.205 20.855 C 96.686 22.455,101.573 28.473,101.593 29.953 C 101.597 30.257,101.958 31.084,102.395 31.791 C 103.013 32.791,103.249 34.115,103.456 37.739 L 103.722 42.400 105.012 42.400 C 105.722 42.400,106.520 42.137,106.787 41.815 C 107.054 41.494,107.661 41.113,108.136 40.968 C 108.611 40.824,109.276 40.464,109.614 40.168 C 110.470 39.420,121.970 33.600,122.593 33.600 C 122.873 33.600,123.308 33.352,123.559 33.050 C 123.810 32.747,124.818 32.275,125.800 32.000 C 126.782 31.725,127.790 31.253,128.041 30.950 C 128.292 30.648,128.844 30.400,129.267 30.400 C 129.690 30.400,130.882 29.950,131.915 29.400 C 132.948 28.850,134.155 28.399,134.597 28.399 C 135.039 28.398,135.944 28.065,136.608 27.660 C 137.273 27.255,138.501 26.795,139.337 26.638 C 140.174 26.481,141.430 26.004,142.129 25.578 C 142.828 25.152,143.940 24.801,144.600 24.799 C 145.260 24.797,146.287 24.541,146.883 24.230 C 147.479 23.919,149.009 23.441,150.283 23.167 C 151.557 22.893,153.052 22.445,153.605 22.173 C 154.158 21.900,155.508 21.558,156.605 21.412 C 157.702 21.265,159.770 20.818,161.200 20.417 C 162.630 20.016,164.830 19.577,166.089 19.442 C 167.348 19.306,169.418 18.920,170.689 18.583 C 171.960 18.246,175.070 17.807,177.600 17.606 C 180.130 17.405,184.540 16.963,187.400 16.624 C 194.074 15.833,207.075 15.831,213.200 16.619 C 215.730 16.945,220.011 17.388,222.713 17.604 C 225.415 17.819,229.004 18.357,230.688 18.798 C 232.373 19.239,234.488 19.600,235.389 19.600 C 236.290 19.600,238.052 19.960,239.304 20.400 C 240.556 20.840,242.170 21.208,242.890 21.218 C 243.611 21.227,244.920 21.511,245.800 21.847 C 246.680 22.184,248.480 22.705,249.800 23.006 C 251.120 23.306,252.869 23.832,253.687 24.176 C 254.505 24.519,255.588 24.800,256.093 24.800 C 256.598 24.800,257.660 25.147,258.452 25.572 C 259.244 25.996,260.591 26.471,261.446 26.627 C 262.301 26.783,263.478 27.246,264.062 27.655 C 264.646 28.065,265.456 28.406,265.862 28.413 C 266.268 28.419,267.500 28.868,268.600 29.409 C 269.700 29.950,270.893 30.394,271.251 30.396 C 271.609 30.398,272.111 30.652,272.367 30.961 C 272.623 31.269,273.320 31.639,273.916 31.782 C 274.512 31.925,277.700 33.399,281.000 35.058 C 290.053 39.608,292.560 40.953,293.788 41.919 C 294.404 42.404,295.132 42.800,295.405 42.800 C 295.678 42.800,296.142 43.089,296.435 43.442 C 296.727 43.795,297.335 44.248,297.784 44.450 C 298.697 44.860,300.533 46.050,304.803 49.000 C 306.395 50.100,308.060 51.209,308.503 51.464 C 308.946 51.719,309.419 52.085,309.554 52.277 C 309.689 52.469,310.790 53.338,312.000 54.207 C 314.893 56.286,315.048 56.407,316.531 57.743 C 317.229 58.372,318.959 59.902,320.375 61.143 C 321.791 62.384,323.832 64.174,324.911 65.121 C 330.574 70.087,341.888 82.587,346.200 88.642 C 346.640 89.260,347.270 90.044,347.600 90.385 C 347.930 90.726,348.780 91.903,349.489 93.002 C 350.199 94.101,350.919 95.180,351.089 95.400 C 352.732 97.518,353.600 98.812,353.600 99.143 C 353.600 99.360,354.005 100.049,354.500 100.672 C 355.533 101.974,356.079 102.824,357.167 104.827 C 357.593 105.611,358.225 106.489,358.571 106.776 C 358.917 107.063,359.200 107.623,359.200 108.020 C 359.200 108.418,359.456 108.999,359.769 109.311 C 360.081 109.624,360.666 110.545,361.069 111.357 C 361.471 112.170,362.854 114.942,364.142 117.517 C 365.430 120.093,366.933 123.190,367.480 124.400 C 368.028 125.610,368.705 127.050,368.986 127.600 C 369.267 128.150,369.726 129.320,370.005 130.200 C 370.285 131.080,370.758 132.155,371.057 132.589 C 371.356 133.023,371.600 133.746,371.600 134.195 C 371.600 134.644,371.936 135.639,372.347 136.406 C 372.757 137.173,373.229 138.430,373.395 139.200 C 373.562 139.970,374.010 141.230,374.393 142.000 C 374.775 142.770,375.211 144.201,375.361 145.180 C 375.512 146.159,375.813 147.174,376.030 147.436 C 376.247 147.698,376.700 149.231,377.036 150.843 C 377.372 152.456,377.798 153.960,377.982 154.187 C 378.166 154.414,378.515 155.892,378.758 157.472 C 379.000 159.052,379.395 160.852,379.636 161.472 C 379.876 162.092,380.312 164.310,380.605 166.400 C 380.897 168.490,381.418 171.460,381.761 173.000 C 382.105 174.540,382.393 176.880,382.402 178.200 C 382.410 179.520,382.687 182.850,383.016 185.600 C 383.831 192.399,384.201 208.125,383.642 212.200 C 383.401 213.960,383.015 217.290,382.785 219.600 C 381.942 228.072,380.706 235.695,379.556 239.508 C 379.140 240.888,378.800 242.546,378.800 243.194 C 378.800 243.841,378.466 245.232,378.057 246.285 C 377.648 247.338,377.200 248.942,377.060 249.848 C 376.921 250.755,376.449 252.285,376.012 253.248 C 375.575 254.212,375.214 255.519,375.209 256.153 C 375.204 256.787,374.862 257.867,374.449 258.553 C 374.035 259.239,373.575 260.488,373.425 261.329 C 373.275 262.170,372.804 263.430,372.378 264.129 C 371.952 264.828,371.602 265.763,371.601 266.206 C 371.601 266.649,371.264 267.639,370.853 268.406 C 370.443 269.173,369.981 270.373,369.828 271.072 C 369.674 271.772,369.290 272.559,368.974 272.821 C 368.658 273.083,368.400 273.501,368.401 273.749 C 368.401 274.375,363.266 284.884,361.046 288.800 C 360.485 289.790,359.730 291.230,359.370 292.000 C 359.009 292.770,358.463 293.544,358.157 293.720 C 357.851 293.896,357.597 294.256,357.593 294.520 C 357.589 294.784,357.046 295.810,356.387 296.800 C 355.728 297.790,355.011 298.870,354.793 299.200 C 353.755 300.776,350.934 305.013,350.400 305.798 C 350.070 306.284,349.453 307.203,349.028 307.840 C 348.603 308.478,348.059 309.180,347.819 309.400 C 347.579 309.620,346.669 310.790,345.797 312.000 C 343.774 314.808,343.602 315.031,342.400 316.407 C 341.850 317.037,340.590 318.494,339.600 319.644 C 335.918 323.924,334.096 325.889,330.000 329.996 C 325.702 334.305,324.137 335.752,319.614 339.600 C 318.192 340.810,316.743 342.070,316.394 342.400 C 316.045 342.730,315.156 343.450,314.418 344.000 C 312.065 345.754,310.217 347.175,309.615 347.695 C 309.032 348.199,306.995 349.602,302.547 352.563 C 296.291 356.728,294.916 357.600,294.602 357.600 C 294.416 357.600,293.970 357.865,293.613 358.188 C 293.255 358.512,292.161 359.203,291.181 359.725 C 290.202 360.246,288.196 361.323,286.724 362.118 C 282.921 364.172,283.026 364.119,278.400 366.363 C 276.090 367.484,273.907 368.401,273.549 368.401 C 273.191 368.400,272.683 368.658,272.421 368.974 C 272.159 369.290,271.372 369.673,270.672 369.824 C 269.973 369.976,268.770 370.418,268.000 370.806 C 266.654 371.485,265.967 371.748,262.000 373.104 C 261.010 373.443,259.460 374.053,258.556 374.460 C 257.652 374.867,256.482 375.204,255.956 375.209 C 255.430 375.214,254.274 375.547,253.387 375.950 C 252.500 376.353,250.880 376.813,249.787 376.973 C 248.694 377.132,247.394 377.523,246.899 377.841 C 246.403 378.159,244.693 378.586,243.099 378.788 C 241.504 378.990,239.570 379.414,238.800 379.730 C 238.030 380.046,236.140 380.429,234.600 380.581 C 233.060 380.733,230.900 381.126,229.800 381.454 C 228.700 381.783,225.479 382.212,222.642 382.409 C 219.806 382.606,216.476 383.000,215.242 383.284 C 212.141 383.998,187.488 384.009,184.471 383.298 C 183.300 383.022,179.970 382.620,177.071 382.405 C 174.172 382.190,170.978 381.759,169.972 381.448 C 168.967 381.136,166.727 380.749,164.995 380.587 C 163.262 380.424,161.115 379.960,160.222 379.555 C 159.330 379.149,157.856 378.814,156.948 378.809 C 156.039 378.804,154.100 378.350,152.638 377.800 C 151.177 377.250,149.486 376.800,148.880 376.800 C 148.274 376.800,147.423 376.553,146.989 376.252 C 146.555 375.950,145.246 375.500,144.080 375.252 C 142.914 375.003,141.438 374.530,140.800 374.200 C 140.162 373.870,139.265 373.600,138.807 373.600 C 138.348 373.600,137.085 373.150,136.000 372.600 C 134.915 372.050,133.727 371.600,133.361 371.600 C 132.994 371.600,132.133 371.259,131.447 370.843 C 130.761 370.427,129.627 369.965,128.928 369.817 C 128.228 369.670,127.459 369.313,127.220 369.024 C 126.981 368.736,125.982 368.275,125.000 368.000 C 124.018 367.725,123.010 367.253,122.759 366.950 C 122.508 366.648,122.009 366.399,121.651 366.398 C 121.293 366.397,120.280 365.952,119.400 365.410 C 118.520 364.868,117.513 364.419,117.162 364.412 C 116.811 364.406,116.198 364.040,115.800 363.600 C 115.402 363.160,114.768 362.800,114.392 362.800 C 114.016 362.800,113.255 362.444,112.701 362.008 C 112.147 361.572,111.268 361.022,110.747 360.784 C 110.226 360.546,108.900 359.833,107.800 359.199 C 106.700 358.565,105.350 357.821,104.800 357.546 C 104.250 357.270,103.484 356.781,103.097 356.458 C 102.384 355.863,101.951 355.591,99.581 354.253 C 98.853 353.842,97.373 352.807,96.292 351.953 C 95.212 351.099,94.209 350.400,94.064 350.400 C 93.919 350.399,93.310 349.994,92.710 349.500 C 92.111 349.005,90.977 348.150,90.192 347.600 C 88.160 346.178,83.920 342.849,83.140 342.064 C 82.778 341.699,81.706 340.770,80.759 340.000 C 74.505 334.916,66.404 326.974,62.204 321.810 C 60.956 320.275,58.972 317.935,57.794 316.610 C 56.617 315.284,54.662 312.850,53.450 311.200 C 52.237 309.550,51.093 308.020,50.906 307.800 C 50.719 307.580,49.861 306.320,48.998 305.000 C 48.135 303.680,47.197 302.456,46.914 302.280 C 46.631 302.104,46.400 301.760,46.400 301.515 C 46.400 301.132,44.429 297.790,43.501 296.600 C 42.653 295.512,41.270 293.205,40.452 291.511 C 39.950 290.473,39.121 289.006,38.610 288.253 C 38.098 287.499,37.547 286.459,37.385 285.941 C 37.223 285.424,36.755 284.571,36.345 284.046 C 35.935 283.521,35.600 282.784,35.600 282.407 C 35.600 282.031,35.240 281.307,34.800 280.800 C 34.360 280.293,34.000 279.694,34.000 279.470 C 34.000 279.246,33.482 277.969,32.850 276.632 C 30.344 271.334,30.000 270.524,30.000 269.923 C 30.000 269.579,29.735 269.078,29.411 268.809 C 29.086 268.540,28.702 267.663,28.557 266.860 C 28.411 266.057,27.978 264.770,27.595 264.000 C 27.211 263.230,26.768 261.970,26.610 261.200 C 26.451 260.430,26.093 259.438,25.814 258.996 C 25.536 258.554,25.103 257.240,24.854 256.076 C 24.604 254.912,24.155 253.474,23.855 252.880 C 23.555 252.286,23.214 251.046,23.096 250.124 C 22.979 249.202,22.592 247.865,22.236 247.153 C 21.881 246.440,21.488 244.855,21.362 243.629 C 21.237 242.403,20.804 240.500,20.400 239.400 C 19.996 238.300,19.561 236.140,19.432 234.600 C 19.303 233.060,18.923 230.900,18.587 229.800 C 18.251 228.700,17.803 225.460,17.591 222.600 C 17.379 219.740,16.938 215.510,16.611 213.200 C 15.812 207.551,15.812 192.458,16.610 186.800 C 16.936 184.490,17.386 180.225,17.611 177.322 C 17.836 174.419,18.291 171.275,18.622 170.337 C 18.954 169.398,19.333 167.273,19.465 165.615 C 19.598 163.957,19.969 161.970,20.290 161.200 C 20.611 160.430,21.027 158.630,21.215 157.200 C 21.403 155.770,21.844 154.026,22.195 153.325 C 22.547 152.623,22.991 151.093,23.184 149.925 C 23.376 148.756,23.817 147.260,24.164 146.600 C 24.511 145.940,24.796 144.943,24.798 144.385 C 24.799 143.826,25.140 142.703,25.555 141.889 C 25.970 141.075,26.435 139.732,26.588 138.904 C 26.742 138.077,27.212 136.839,27.634 136.153 C 28.055 135.467,28.406 134.567,28.413 134.153 C 28.419 133.739,28.868 132.500,29.409 131.400 C 29.950 130.300,30.394 129.107,30.396 128.749 C 30.398 128.391,30.648 127.892,30.950 127.641 C 31.253 127.390,31.725 126.382,32.000 125.400 C 32.275 124.418,32.747 123.410,33.050 123.159 C 33.352 122.908,33.613 122.409,33.628 122.051 C 33.644 121.693,34.718 119.420,36.015 117.000 C 37.312 114.580,38.824 111.694,39.374 110.587 C 40.320 108.687,41.973 105.954,43.653 103.516 C 44.064 102.920,44.400 102.323,44.400 102.190 C 44.400 102.056,44.850 101.357,45.400 100.636 C 45.950 99.914,46.400 99.187,46.400 99.020 C 46.400 98.546,48.150 96.550,52.422 92.154 L 56.354 88.108 56.477 60.754 L 56.600 33.400 58.109 30.600 C 60.113 26.881,60.343 26.521,62.150 24.287 C 64.390 21.516,69.105 18.430,72.330 17.623 C 73.139 17.420,74.520 16.980,75.400 16.645 C 77.727 15.758,82.341 15.832,85.096 16.800 M77.200 32.505 C 74.609 33.916,73.819 34.710,72.744 36.983 L 71.601 39.400 71.600 71.011 C 71.600 98.974,71.672 102.725,72.223 103.511 L 72.845 104.400 104.884 104.400 L 136.923 104.400 139.047 103.395 C 145.669 100.263,145.825 91.983,139.324 88.755 L 137.400 87.800 118.605 87.600 C 96.805 87.368,97.631 87.567,102.682 83.767 C 104.397 82.477,106.093 81.146,106.451 80.810 C 107.790 79.555,109.058 78.560,111.056 77.200 C 114.321 74.976,120.072 71.161,121.600 70.204 C 122.370 69.722,123.540 68.991,124.200 68.579 C 124.860 68.167,125.940 67.544,126.600 67.196 C 128.199 66.350,129.666 65.553,130.400 65.130 C 130.730 64.940,131.630 64.513,132.400 64.182 C 133.170 63.851,134.070 63.400,134.400 63.179 C 134.730 62.958,135.340 62.664,135.755 62.527 C 136.171 62.390,137.305 61.855,138.277 61.339 C 139.248 60.822,140.348 60.399,140.721 60.397 C 141.095 60.396,141.940 60.037,142.600 59.600 C 143.260 59.163,144.088 58.804,144.440 58.803 C 144.793 58.801,145.927 58.350,146.962 57.800 C 147.996 57.250,149.238 56.799,149.721 56.798 C 150.205 56.796,151.140 56.506,151.800 56.153 C 152.460 55.799,154.068 55.255,155.374 54.942 C 156.680 54.630,157.940 54.217,158.174 54.025 C 158.408 53.832,159.500 53.542,160.600 53.379 C 161.700 53.217,163.573 52.750,164.763 52.342 C 165.952 51.934,167.482 51.596,168.163 51.591 C 168.843 51.585,170.750 51.216,172.400 50.769 C 174.050 50.322,177.290 49.792,179.600 49.592 C 181.910 49.392,185.690 48.957,188.000 48.627 C 193.618 47.822,205.211 47.830,211.600 48.643 C 214.350 48.993,218.310 49.417,220.400 49.587 C 222.490 49.756,225.730 50.277,227.600 50.745 C 229.470 51.212,231.591 51.596,232.313 51.597 C 233.035 51.599,234.250 51.861,235.014 52.180 C 235.778 52.499,237.527 52.975,238.901 53.238 C 240.276 53.501,241.856 53.945,242.414 54.224 C 242.971 54.503,244.141 54.863,245.014 55.024 C 245.886 55.185,247.227 55.651,247.994 56.059 C 248.761 56.466,249.841 56.801,250.394 56.801 C 250.947 56.802,251.955 57.141,252.633 57.555 C 253.312 57.969,254.482 58.440,255.233 58.603 C 255.985 58.766,257.078 59.237,257.662 59.650 C 258.246 60.062,259.163 60.400,259.701 60.400 C 260.238 60.400,261.093 60.760,261.600 61.200 C 262.107 61.640,262.701 62.000,262.919 62.000 C 263.272 62.000,268.036 64.258,269.600 65.166 C 269.930 65.358,270.650 65.724,271.200 65.980 C 271.750 66.236,273.100 66.965,274.200 67.600 C 275.300 68.235,276.650 68.989,277.200 69.277 C 278.283 69.843,282.790 72.734,284.387 73.887 C 284.930 74.279,285.695 74.729,286.087 74.887 C 286.479 75.045,286.800 75.348,286.800 75.560 C 286.800 75.772,287.148 76.056,287.573 76.191 C 287.998 76.326,289.933 77.695,291.873 79.232 C 293.813 80.770,295.907 82.426,296.527 82.914 C 297.147 83.401,298.100 84.160,298.645 84.600 C 299.946 85.650,314.412 99.989,315.243 101.053 C 315.596 101.505,316.848 103.119,318.025 104.638 C 319.201 106.157,320.937 108.352,321.882 109.516 C 322.827 110.679,323.600 111.804,323.600 112.016 C 323.600 112.227,323.915 112.721,324.300 113.113 C 324.685 113.506,325.464 114.541,326.030 115.413 C 326.597 116.286,327.774 118.080,328.646 119.400 C 329.518 120.720,330.466 122.372,330.752 123.071 C 331.039 123.770,331.527 124.440,331.837 124.559 C 332.146 124.678,332.400 125.106,332.400 125.510 C 332.400 125.914,332.850 126.855,333.400 127.600 C 333.950 128.345,334.400 129.182,334.400 129.460 C 334.400 129.737,334.850 130.628,335.400 131.438 C 335.950 132.249,336.400 133.134,336.400 133.407 C 336.400 133.679,336.650 134.110,336.956 134.363 C 337.261 134.617,337.707 135.604,337.947 136.556 C 338.187 137.509,338.657 138.515,338.992 138.793 C 339.326 139.071,339.601 139.681,339.601 140.149 C 339.602 140.617,339.941 141.555,340.355 142.233 C 340.769 142.912,341.239 144.067,341.400 144.800 C 341.561 145.533,342.031 146.688,342.445 147.367 C 342.859 148.045,343.198 149.053,343.199 149.606 C 343.199 150.159,343.547 151.260,343.972 152.052 C 344.396 152.844,344.860 154.191,345.003 155.046 C 345.145 155.901,345.587 157.410,345.984 158.400 C 346.381 159.390,346.835 161.100,346.992 162.200 C 347.150 163.300,347.451 164.521,347.661 164.914 C 347.871 165.307,348.307 167.287,348.629 169.314 C 348.951 171.341,349.403 173.540,349.634 174.200 C 349.865 174.860,350.219 177.470,350.420 180.000 C 350.621 182.530,351.056 186.760,351.385 189.400 C 352.178 195.765,352.170 206.626,351.366 212.425 C 351.018 214.941,350.580 218.800,350.392 221.000 C 350.205 223.200,349.778 225.953,349.444 227.119 C 349.109 228.284,348.713 230.354,348.564 231.719 C 348.415 233.083,348.065 234.652,347.785 235.205 C 347.506 235.758,347.150 237.108,346.994 238.205 C 346.839 239.302,346.371 240.988,345.956 241.951 C 345.540 242.914,345.198 244.174,345.196 244.751 C 345.194 245.328,344.750 246.700,344.209 247.800 C 343.668 248.900,343.218 250.250,343.210 250.800 C 343.202 251.350,342.837 252.340,342.400 253.000 C 341.963 253.660,341.604 254.488,341.603 254.840 C 341.601 255.193,341.150 256.327,340.600 257.362 C 340.050 258.396,339.600 259.493,339.600 259.800 C 339.600 260.107,339.150 261.204,338.600 262.238 C 338.050 263.273,337.600 264.340,337.600 264.611 C 337.600 264.881,337.348 265.311,337.039 265.567 C 336.731 265.823,336.360 266.506,336.214 267.085 C 336.069 267.663,335.602 268.580,335.175 269.122 C 334.749 269.664,334.400 270.416,334.400 270.792 C 334.400 271.168,334.050 271.793,333.623 272.179 C 333.195 272.566,332.734 273.392,332.597 274.014 C 332.460 274.636,332.080 275.368,331.751 275.641 C 331.423 275.913,330.889 276.691,330.566 277.368 C 329.716 279.151,329.017 280.297,328.292 281.098 C 327.942 281.485,327.459 282.251,327.219 282.801 C 326.979 283.350,326.244 284.520,325.585 285.400 C 324.926 286.280,323.715 287.989,322.894 289.197 C 322.072 290.405,321.119 291.676,320.775 292.022 C 320.432 292.367,319.001 294.168,317.596 296.025 C 316.190 297.881,311.522 302.885,307.220 307.144 C 298.419 315.859,298.740 315.562,295.200 318.236 C 293.770 319.316,292.329 320.470,291.997 320.800 C 291.334 321.459,287.460 324.140,281.600 327.994 C 281.270 328.211,280.190 328.928,279.200 329.587 C 278.210 330.246,277.203 330.789,276.962 330.793 C 276.721 330.797,276.207 331.150,275.821 331.577 C 275.434 332.005,274.614 332.465,274.000 332.600 C 273.386 332.735,272.566 333.195,272.179 333.623 C 271.793 334.050,271.168 334.400,270.792 334.400 C 270.416 334.400,269.679 334.735,269.154 335.145 C 268.629 335.555,267.750 336.026,267.200 336.192 C 266.650 336.359,265.930 336.727,265.600 337.010 C 265.270 337.294,264.256 337.724,263.347 337.966 C 262.437 338.208,261.470 338.674,261.198 339.003 C 260.925 339.331,260.358 339.600,259.938 339.600 C 259.517 339.600,258.285 340.050,257.200 340.600 C 256.115 341.150,254.883 341.600,254.462 341.600 C 254.042 341.600,253.484 341.858,253.223 342.172 C 252.962 342.487,251.817 342.945,250.679 343.189 C 249.541 343.433,248.248 343.867,247.805 344.154 C 247.362 344.440,246.216 344.798,245.258 344.949 C 244.300 345.100,242.980 345.500,242.324 345.839 C 241.669 346.178,240.044 346.631,238.713 346.845 C 237.382 347.059,235.822 347.474,235.247 347.767 C 234.671 348.060,233.002 348.425,231.538 348.578 C 230.073 348.730,228.003 349.128,226.938 349.461 C 225.872 349.794,223.110 350.224,220.800 350.418 C 218.490 350.612,214.620 351.044,212.200 351.377 C 206.327 352.188,193.998 352.186,187.785 351.375 C 185.153 351.032,181.200 350.593,179.000 350.400 C 176.800 350.207,174.190 349.792,173.200 349.479 C 172.210 349.165,170.320 348.790,169.000 348.646 C 167.680 348.502,165.430 348.040,164.000 347.620 C 162.570 347.200,160.590 346.648,159.600 346.393 C 156.129 345.501,152.987 344.517,151.513 343.862 C 150.695 343.498,149.594 343.200,149.067 343.200 C 148.539 343.200,147.650 342.840,147.091 342.400 C 146.531 341.960,145.793 341.600,145.449 341.600 C 145.105 341.600,143.840 341.150,142.637 340.600 C 141.435 340.050,140.269 339.600,140.047 339.600 C 139.824 339.600,138.796 339.150,137.762 338.600 C 136.727 338.050,135.660 337.600,135.389 337.600 C 135.119 337.600,134.689 337.348,134.433 337.039 C 134.177 336.731,133.494 336.360,132.915 336.214 C 132.337 336.069,131.420 335.602,130.878 335.175 C 130.336 334.749,129.584 334.400,129.208 334.400 C 128.832 334.400,128.207 334.050,127.821 333.623 C 127.434 333.195,126.614 332.735,126.000 332.600 C 125.386 332.465,124.566 332.005,124.179 331.577 C 123.793 331.150,123.279 330.797,123.038 330.793 C 122.666 330.787,121.332 329.977,118.400 327.980 C 118.070 327.755,117.421 327.352,116.957 327.085 C 116.494 326.818,115.340 326.060,114.393 325.400 C 113.447 324.740,112.278 323.930,111.796 323.600 C 109.323 321.907,108.543 321.319,107.615 320.445 C 107.057 319.920,106.112 319.189,105.516 318.820 C 101.456 316.306,85.375 300.178,81.187 294.420 C 80.083 292.902,79.045 291.601,78.882 291.530 C 78.718 291.458,77.922 290.410,77.114 289.200 C 74.157 284.778,72.385 282.182,71.799 281.419 C 71.470 280.989,71.200 280.475,71.200 280.276 C 71.200 280.078,70.750 279.381,70.200 278.727 C 69.650 278.073,69.200 277.310,69.200 277.031 C 69.200 276.752,68.850 276.207,68.423 275.821 C 67.995 275.434,67.531 274.598,67.392 273.963 C 67.253 273.328,66.982 272.713,66.791 272.595 C 66.418 272.364,62.000 263.549,62.000 263.035 C 62.000 262.865,61.640 262.269,61.200 261.709 C 60.760 261.150,60.400 260.306,60.400 259.835 C 60.400 259.364,60.156 258.623,59.857 258.189 C 59.558 257.755,59.082 256.680,58.798 255.800 C 58.514 254.920,57.949 253.573,57.541 252.806 C 57.134 252.039,56.794 251.049,56.786 250.606 C 56.779 250.163,56.425 249.080,56.000 248.200 C 55.575 247.320,55.217 246.150,55.205 245.600 C 55.192 245.050,54.831 243.827,54.403 242.882 C 53.974 241.937,53.499 240.227,53.347 239.082 C 53.195 237.937,52.744 236.280,52.344 235.400 C 51.945 234.520,51.614 233.158,51.609 232.373 C 51.604 231.588,51.235 229.608,50.790 227.973 C 50.344 226.338,49.807 222.930,49.596 220.400 C 49.386 217.870,48.946 213.910,48.619 211.600 C 47.810 205.876,47.808 192.232,48.616 187.200 C 48.952 185.110,49.394 181.420,49.599 179.000 C 49.804 176.580,50.338 173.176,50.786 171.436 C 51.234 169.696,51.600 167.662,51.600 166.916 C 51.600 166.170,51.887 165.005,52.238 164.327 C 52.588 163.649,53.033 161.993,53.225 160.647 C 53.418 159.301,53.941 157.487,54.388 156.615 C 54.834 155.744,55.200 154.571,55.200 154.009 C 55.200 153.448,55.560 152.316,56.000 151.496 C 56.440 150.675,56.800 149.680,56.800 149.286 C 56.800 148.892,57.150 147.884,57.577 147.046 C 58.004 146.208,58.477 144.954,58.627 144.261 C 58.777 143.567,59.222 142.370,59.615 141.600 C 60.009 140.830,60.776 139.210,61.321 138.000 C 61.866 136.790,62.781 134.820,63.356 133.621 C 65.080 130.025,65.271 130.225,55.400 125.290 C 50.728 122.954,50.602 122.936,49.987 124.490 C 49.702 125.210,49.252 126.070,48.988 126.400 C 48.724 126.730,48.382 127.526,48.229 128.168 C 48.076 128.811,47.602 129.780,47.175 130.322 C 46.749 130.864,46.400 131.562,46.400 131.872 C 46.400 132.183,45.950 133.282,45.400 134.315 C 44.850 135.348,44.400 136.421,44.400 136.698 C 44.400 136.976,44.040 137.875,43.600 138.696 C 43.160 139.516,42.800 140.463,42.800 140.800 C 42.800 141.137,42.466 142.039,42.059 142.806 C 41.651 143.573,41.188 144.899,41.030 145.754 C 40.873 146.609,40.396 147.956,39.972 148.748 C 39.547 149.540,39.200 150.693,39.200 151.310 C 39.200 151.927,38.864 153.100,38.453 153.916 C 38.041 154.732,37.576 156.300,37.418 157.400 C 37.260 158.500,36.786 160.429,36.365 161.687 C 35.944 162.945,35.600 164.604,35.600 165.373 C 35.600 166.143,35.321 167.594,34.980 168.599 C 34.639 169.604,34.109 172.535,33.804 175.113 C 33.498 177.691,33.014 180.790,32.727 182.000 C 31.889 185.545,32.021 214.776,32.895 219.000 C 33.259 220.760,33.743 224.013,33.969 226.228 C 34.196 228.444,34.655 230.913,34.991 231.716 C 35.326 232.518,35.608 234.035,35.618 235.087 C 35.627 236.139,35.916 237.720,36.259 238.600 C 36.603 239.480,37.106 241.370,37.378 242.800 C 37.649 244.230,38.170 245.976,38.536 246.680 C 38.901 247.384,39.200 248.467,39.200 249.086 C 39.200 249.705,39.547 250.860,39.972 251.652 C 40.396 252.444,40.873 253.791,41.030 254.646 C 41.188 255.501,41.651 256.827,42.059 257.594 C 42.466 258.361,42.800 259.263,42.800 259.600 C 42.800 259.937,43.160 260.884,43.600 261.704 C 44.040 262.525,44.400 263.441,44.400 263.739 C 44.400 264.037,44.850 265.127,45.400 266.162 C 45.950 267.196,46.400 268.279,46.400 268.567 C 46.400 268.856,46.733 269.521,47.139 270.046 C 47.545 270.571,48.009 271.540,48.170 272.200 C 48.331 272.860,48.697 273.670,48.984 274.000 C 49.271 274.330,49.641 275.050,49.808 275.600 C 49.974 276.150,50.445 277.029,50.855 277.554 C 51.265 278.079,51.600 278.719,51.600 278.976 C 51.600 279.234,52.050 280.055,52.600 280.800 C 53.150 281.545,53.600 282.453,53.600 282.816 C 53.600 283.179,53.960 283.802,54.400 284.200 C 54.840 284.598,55.200 285.129,55.200 285.381 C 55.200 285.632,55.472 286.189,55.805 286.619 C 56.137 287.048,56.977 288.300,57.670 289.400 C 58.895 291.342,60.299 293.468,63.208 297.784 C 63.983 298.933,64.883 300.142,65.208 300.471 C 65.534 300.799,66.160 301.566,66.600 302.175 C 68.255 304.464,71.790 308.721,74.926 312.200 C 80.747 318.660,90.443 327.847,95.400 331.601 C 96.280 332.267,97.412 333.125,97.915 333.506 C 98.419 333.888,99.229 334.574,99.715 335.032 C 100.478 335.749,103.862 338.126,105.942 339.405 C 107.326 340.256,109.093 341.394,111.629 343.066 C 113.075 344.020,114.448 344.800,114.680 344.800 C 114.912 344.800,115.328 345.072,115.604 345.405 C 115.880 345.737,116.847 346.373,117.753 346.817 C 120.327 348.081,121.748 348.810,122.400 349.204 C 124.059 350.207,127.786 352.000,128.210 352.000 C 128.475 352.000,129.150 352.360,129.709 352.800 C 130.269 353.240,131.031 353.600,131.404 353.600 C 131.777 353.600,132.919 354.030,133.941 354.556 C 136.825 356.038,139.280 357.066,140.661 357.369 C 141.355 357.522,142.608 357.996,143.446 358.423 C 144.284 358.850,145.336 359.206,145.785 359.214 C 146.233 359.221,147.320 359.575,148.200 360.000 C 149.080 360.425,150.340 360.780,151.000 360.789 C 151.660 360.798,152.732 361.156,153.381 361.584 C 154.031 362.012,155.553 362.487,156.764 362.638 C 157.974 362.789,159.692 363.243,160.582 363.648 C 161.472 364.052,163.032 364.386,164.048 364.391 C 165.064 364.396,167.000 364.753,168.349 365.184 C 169.698 365.615,172.826 366.145,175.301 366.363 C 177.775 366.581,180.430 366.994,181.200 367.280 C 183.160 368.008,216.368 368.033,218.339 367.307 C 219.075 367.036,221.685 366.624,224.139 366.391 C 226.593 366.158,229.798 365.615,231.262 365.184 C 232.726 364.753,234.706 364.396,235.662 364.391 C 236.618 364.386,238.120 364.055,239.000 363.656 C 239.880 363.256,241.571 362.800,242.758 362.643 C 243.945 362.486,245.603 362.007,246.442 361.579 C 247.281 361.150,248.475 360.800,249.095 360.800 C 249.715 360.800,250.594 360.540,251.048 360.222 C 251.502 359.904,252.757 359.433,253.837 359.177 C 254.916 358.920,256.532 358.370,257.426 357.955 C 258.321 357.540,259.365 357.200,259.747 357.200 C 260.129 357.200,261.107 356.857,261.921 356.438 C 262.734 356.020,264.570 355.188,266.000 354.590 C 267.430 353.992,268.870 353.344,269.200 353.149 C 269.530 352.954,270.250 352.594,270.800 352.348 C 274.977 350.486,276.277 349.882,276.800 349.560 C 277.130 349.356,278.120 348.831,279.000 348.392 C 280.640 347.574,282.726 346.392,285.200 344.877 C 285.970 344.406,287.275 343.652,288.100 343.202 C 288.925 342.752,289.600 342.207,289.600 341.992 C 289.600 341.776,289.825 341.597,290.100 341.594 C 290.375 341.591,291.500 340.958,292.600 340.189 C 293.700 339.419,295.590 338.126,296.800 337.315 C 298.010 336.504,300.080 334.970,301.400 333.906 C 302.720 332.841,304.160 331.705,304.600 331.380 C 309.988 327.410,316.217 321.536,325.400 311.767 C 328.533 308.434,330.880 305.495,336.073 298.400 C 337.441 296.530,338.795 294.856,339.081 294.680 C 339.366 294.504,339.600 294.157,339.600 293.909 C 339.600 293.662,340.385 292.275,341.344 290.829 C 343.822 287.094,347.039 281.680,348.017 279.600 C 348.275 279.050,348.737 278.150,349.044 277.600 C 349.589 276.622,351.449 272.791,352.344 270.800 C 352.592 270.250,352.951 269.530,353.143 269.200 C 354.018 267.694,355.600 264.065,355.601 263.560 C 355.602 263.252,355.962 262.411,356.401 261.690 C 356.841 260.970,357.200 260.069,357.200 259.687 C 357.200 259.306,357.650 258.148,358.200 257.115 C 358.750 256.082,359.200 254.778,359.200 254.217 C 359.200 253.656,359.560 252.525,360.000 251.704 C 360.440 250.884,360.804 249.759,360.809 249.206 C 360.814 248.653,361.154 247.460,361.564 246.556 C 361.975 245.652,362.434 244.122,362.584 243.156 C 362.735 242.190,363.205 240.364,363.629 239.098 C 364.053 237.833,364.403 236.123,364.406 235.298 C 364.409 234.474,364.695 232.990,365.042 232.000 C 365.388 231.010,365.848 228.580,366.064 226.600 C 366.279 224.620,366.739 221.650,367.085 220.000 C 368.361 213.919,368.210 189.393,366.844 180.800 C 366.616 179.370,366.244 176.490,366.016 174.400 C 365.788 172.310,365.340 169.880,365.019 169.000 C 364.698 168.120,364.427 166.663,364.418 165.763 C 364.408 164.862,364.040 163.079,363.600 161.800 C 363.160 160.521,362.800 159.050,362.800 158.530 C 362.800 158.010,362.350 156.297,361.800 154.723 C 361.250 153.149,360.800 151.484,360.800 151.024 C 360.800 150.564,360.440 149.516,360.000 148.696 C 359.560 147.875,359.200 146.860,359.200 146.441 C 359.200 146.022,358.752 144.717,358.204 143.540 C 357.656 142.363,357.206 141.089,357.204 140.710 C 357.202 140.330,356.841 139.430,356.401 138.710 C 355.962 137.989,355.602 137.085,355.601 136.700 C 355.601 136.315,355.163 135.145,354.629 134.100 C 354.096 133.055,353.180 131.120,352.594 129.800 C 352.009 128.480,351.365 127.130,351.164 126.800 C 350.963 126.470,350.619 125.750,350.399 125.200 C 350.180 124.650,349.819 123.930,349.597 123.600 C 349.376 123.270,348.978 122.550,348.713 122.000 C 347.689 119.870,344.195 113.774,343.710 113.271 C 343.430 112.981,343.200 112.512,343.200 112.230 C 343.200 111.948,342.750 111.231,342.200 110.638 C 341.650 110.044,341.200 109.397,341.200 109.199 C 341.200 108.713,338.972 105.440,338.211 104.809 C 337.875 104.530,337.600 104.136,337.600 103.934 C 337.600 103.546,335.330 100.372,332.618 96.970 C 331.728 95.853,330.634 94.467,330.186 93.890 C 325.254 87.530,310.649 73.088,304.487 68.478 C 303.400 67.665,301.145 65.965,299.477 64.700 C 297.808 63.435,296.285 62.400,296.093 62.400 C 295.901 62.400,295.353 61.950,294.875 61.400 C 294.397 60.850,293.762 60.400,293.465 60.400 C 293.167 60.400,292.598 60.040,292.200 59.600 C 291.802 59.160,291.260 58.800,290.996 58.800 C 290.733 58.800,290.031 58.350,289.438 57.800 C 288.844 57.250,288.201 56.800,288.008 56.800 C 287.815 56.800,286.573 56.080,285.248 55.200 C 283.923 54.320,282.631 53.600,282.377 53.600 C 282.123 53.600,281.381 53.150,280.727 52.600 C 280.073 52.050,279.203 51.600,278.793 51.600 C 278.383 51.600,277.930 51.410,277.787 51.179 C 277.492 50.701,271.879 48.000,271.182 48.000 C 270.931 48.000,270.269 47.640,269.709 47.200 C 269.150 46.760,268.381 46.400,268.000 46.400 C 267.619 46.400,266.872 46.057,266.340 45.639 C 265.807 45.220,264.658 44.677,263.786 44.432 C 262.914 44.187,261.851 43.720,261.424 43.394 C 260.996 43.067,260.186 42.794,259.624 42.787 C 259.061 42.781,257.700 42.332,256.600 41.791 C 255.500 41.250,254.305 40.806,253.944 40.804 C 253.583 40.802,252.503 40.444,251.544 40.009 C 250.585 39.574,249.388 39.214,248.884 39.209 C 248.380 39.204,247.262 38.840,246.400 38.400 C 245.538 37.960,244.380 37.600,243.828 37.600 C 243.276 37.600,241.446 37.150,239.761 36.600 C 238.076 36.050,235.933 35.600,234.998 35.600 C 234.063 35.600,232.678 35.341,231.921 35.025 C 231.163 34.708,228.576 34.249,226.172 34.004 C 223.767 33.759,220.450 33.257,218.800 32.890 C 214.319 31.891,186.089 31.901,181.400 32.903 C 179.640 33.279,176.391 33.765,174.180 33.983 C 171.969 34.201,169.381 34.654,168.429 34.990 C 167.478 35.325,166.025 35.600,165.201 35.600 C 164.377 35.600,162.324 36.050,160.639 36.600 C 158.954 37.150,157.122 37.600,156.568 37.600 C 156.014 37.600,155.038 37.870,154.400 38.200 C 153.762 38.530,152.286 39.003,151.120 39.252 C 149.954 39.500,148.645 39.950,148.211 40.252 C 147.777 40.553,147.057 40.802,146.611 40.804 C 146.165 40.806,144.900 41.250,143.800 41.791 C 142.700 42.332,141.350 42.786,140.800 42.800 C 140.250 42.814,139.446 43.093,139.012 43.421 C 138.579 43.748,137.501 44.211,136.616 44.450 C 135.731 44.688,134.528 45.224,133.942 45.641 C 133.356 46.059,132.527 46.400,132.099 46.400 C 131.672 46.400,130.912 46.756,130.410 47.192 C 129.908 47.627,128.897 48.096,128.163 48.233 C 127.429 48.371,126.630 48.723,126.387 49.016 C 126.144 49.309,125.436 49.660,124.814 49.797 C 124.192 49.934,123.366 50.395,122.979 50.823 C 122.593 51.250,121.979 51.600,121.616 51.600 C 121.253 51.600,120.345 52.050,119.600 52.600 C 118.855 53.150,118.097 53.600,117.916 53.600 C 117.591 53.600,113.967 55.641,112.232 56.800 C 111.738 57.130,110.205 58.120,108.825 59.000 C 106.619 60.407,104.298 62.050,102.975 63.141 C 102.741 63.334,102.111 63.725,101.575 64.009 C 101.039 64.294,98.345 66.353,95.588 68.585 C 89.518 73.501,89.703 73.383,88.982 72.785 C 88.490 72.377,88.400 69.760,88.400 55.801 L 88.400 39.300 87.431 37.108 C 85.598 32.964,80.537 30.687,77.200 32.505 M197.290 64.260 C 195.537 64.642,192.480 68.191,192.180 70.194 C 191.086 77.491,198.763 82.904,204.350 78.774 C 212.011 73.110,206.709 62.211,197.290 64.260 M262.000 81.876 C 257.459 83.487,255.241 89.060,257.486 93.216 C 262.216 101.975,275.040 96.489,272.199 86.922 C 270.997 82.873,266.066 80.433,262.000 81.876 M307.600 129.379 C 301.166 133.660,301.929 142.127,308.932 144.163 C 312.669 145.249,317.540 143.081,318.271 140.006 C 318.403 139.453,318.660 138.808,318.843 138.573 C 322.461 133.937,312.721 125.972,307.600 129.379 M129.400 148.813 C 127.860 149.222,126.145 149.566,125.589 149.578 C 125.033 149.590,124.221 149.850,123.786 150.155 C 123.350 150.460,122.230 150.939,121.297 151.218 C 120.363 151.498,119.600 151.866,119.600 152.036 C 119.600 152.207,119.195 152.469,118.700 152.619 C 116.039 153.425,109.246 159.864,107.360 163.366 C 106.758 164.485,106.026 165.544,105.733 165.720 C 105.440 165.896,105.199 166.346,105.198 166.720 C 105.197 167.094,104.752 168.120,104.210 169.000 C 103.668 169.880,103.219 170.921,103.212 171.314 C 103.206 171.707,102.908 172.474,102.550 173.020 C 102.193 173.565,101.664 175.134,101.375 176.506 C 101.087 177.878,100.569 179.984,100.225 181.187 C 99.881 182.390,99.600 184.097,99.600 184.981 C 99.600 185.865,99.296 188.624,98.924 191.113 C 98.324 195.123,98.305 196.353,98.755 201.919 C 99.764 214.420,99.883 215.419,100.498 216.605 C 100.842 217.268,101.255 218.696,101.418 219.778 C 101.580 220.860,102.030 222.297,102.418 222.973 C 102.805 223.648,103.244 224.785,103.393 225.500 C 103.542 226.215,103.814 226.800,103.999 226.800 C 104.183 226.800,104.643 227.610,105.021 228.600 C 105.399 229.590,105.852 230.400,106.027 230.400 C 106.203 230.400,106.474 230.805,106.631 231.300 C 107.000 232.469,111.139 237.532,112.951 239.033 C 116.405 241.893,118.858 243.600,119.515 243.600 C 119.822 243.600,120.531 243.960,121.091 244.400 C 121.650 244.840,122.353 245.200,122.652 245.200 C 122.952 245.200,124.323 245.605,125.698 246.100 C 131.891 248.328,144.486 247.269,151.600 243.922 C 155.696 241.995,163.600 235.308,163.600 233.771 C 163.600 233.511,163.898 233.051,164.262 232.749 C 164.626 232.447,165.169 231.660,165.468 231.000 C 165.767 230.340,166.171 229.530,166.365 229.200 C 169.672 223.582,170.410 207.979,167.623 202.615 C 167.171 201.744,166.800 200.720,166.800 200.339 C 166.800 199.959,166.617 199.534,166.394 199.396 C 166.171 199.258,165.717 198.496,165.385 197.703 C 164.024 194.445,157.811 188.175,154.369 186.585 C 153.616 186.237,152.550 185.695,152.000 185.382 C 151.450 185.068,150.679 184.809,150.286 184.806 C 149.893 184.803,149.134 184.513,148.598 184.162 C 146.198 182.589,131.575 182.584,129.094 184.155 C 128.602 184.467,127.617 184.843,126.905 184.992 C 126.192 185.140,125.503 185.433,125.373 185.644 C 125.243 185.854,124.296 186.416,123.269 186.893 C 121.140 187.880,116.087 192.831,115.505 194.499 C 115.096 195.674,113.738 196.026,113.365 195.054 C 112.920 193.893,113.982 183.785,114.788 181.510 C 115.235 180.250,115.600 178.898,115.600 178.504 C 115.600 178.110,115.960 177.116,116.400 176.296 C 116.840 175.475,117.200 174.546,117.200 174.232 C 117.200 173.918,117.650 173.127,118.200 172.473 C 118.750 171.819,119.200 171.125,119.200 170.929 C 119.200 170.479,120.631 168.644,122.235 167.038 C 131.529 157.727,148.945 160.877,152.987 172.600 L 153.401 173.800 160.668 173.800 C 168.823 173.800,168.678 173.841,167.823 171.794 C 167.481 170.974,167.200 170.021,167.200 169.677 C 167.200 169.334,166.830 168.231,166.379 167.226 C 165.586 165.462,165.362 165.033,163.648 162.000 C 162.060 159.188,155.909 153.545,153.528 152.715 C 152.908 152.499,152.400 152.188,152.400 152.024 C 152.400 151.861,151.635 151.500,150.700 151.222 C 149.765 150.944,148.765 150.526,148.479 150.292 C 148.192 150.058,147.202 149.738,146.279 149.581 C 145.355 149.423,143.283 149.003,141.674 148.647 C 137.889 147.810,132.928 147.877,129.400 148.813 M214.400 148.893 C 208.741 150.235,204.214 152.722,199.400 157.131 C 198.298 158.140,195.600 161.156,195.600 161.378 C 195.600 161.518,195.207 162.210,194.726 162.916 C 192.793 165.755,192.520 166.247,192.234 167.398 C 192.070 168.057,191.725 168.848,191.468 169.156 C 190.753 170.013,189.208 174.671,188.601 177.800 C 188.302 179.340,187.844 181.140,187.583 181.800 C 186.324 184.979,186.404 210.586,187.681 213.600 C 188.008 214.370,188.399 216.099,188.551 217.441 C 188.702 218.784,189.181 220.577,189.613 221.426 C 190.046 222.275,190.400 223.308,190.400 223.723 C 190.400 224.137,190.650 224.954,190.956 225.538 C 191.262 226.122,192.095 227.808,192.808 229.286 C 193.522 230.763,194.441 232.275,194.852 232.648 C 195.264 233.020,195.600 233.503,195.600 233.721 C 195.600 235.178,201.775 240.984,205.746 243.260 C 212.127 246.918,223.695 248.269,229.902 246.082 C 231.277 245.597,232.668 245.200,232.993 245.200 C 234.407 245.200,241.150 240.910,243.557 238.479 C 244.884 237.138,247.200 234.066,247.200 233.646 C 247.200 233.454,247.498 233.051,247.862 232.749 C 248.226 232.447,248.769 231.660,249.068 231.000 C 249.367 230.340,249.780 229.530,249.985 229.200 C 250.981 227.597,252.401 224.239,252.409 223.467 C 252.414 222.990,252.783 221.794,253.230 220.808 C 253.677 219.823,254.205 217.753,254.403 216.208 C 254.601 214.664,254.996 212.770,255.282 212.000 C 256.022 210.001,256.021 186.396,255.281 184.400 C 254.995 183.630,254.581 181.574,254.360 179.832 C 254.139 178.090,253.607 175.894,253.179 174.954 C 252.751 174.013,252.400 172.896,252.400 172.470 C 252.400 171.752,250.817 167.767,249.988 166.400 C 249.788 166.070,249.255 165.080,248.803 164.200 C 247.238 161.151,247.309 161.243,243.370 157.100 C 242.167 155.835,241.017 154.800,240.814 154.800 C 240.611 154.800,240.210 154.469,239.923 154.065 C 239.635 153.661,238.860 153.037,238.200 152.680 C 237.093 152.079,236.303 151.706,233.000 150.219 C 228.293 148.102,220.175 147.522,214.400 148.893 M228.664 163.151 C 231.150 164.438,233.932 167.136,235.368 169.653 C 236.862 172.272,238.400 175.681,238.400 176.373 C 238.400 176.759,238.736 178.053,239.148 179.248 C 240.131 182.107,241.375 196.147,241.074 201.000 C 240.585 208.904,239.868 214.679,239.150 216.515 C 238.737 217.568,238.400 218.789,238.400 219.228 C 238.400 219.667,237.950 220.915,237.400 222.000 C 236.850 223.085,236.400 224.178,236.400 224.429 C 236.400 224.872,235.771 225.737,233.115 228.947 C 227.762 235.418,216.969 235.827,210.581 229.800 C 208.102 227.461,204.414 221.220,204.391 219.325 C 204.386 218.926,204.051 217.870,203.645 216.978 C 203.240 216.085,202.779 213.925,202.621 212.178 C 202.462 210.430,202.081 207.200,201.774 205.000 C 201.058 199.881,201.057 194.798,201.769 190.000 C 202.079 187.910,202.457 184.940,202.609 183.400 C 202.761 181.860,203.226 179.812,203.643 178.849 C 204.059 177.886,204.401 176.716,204.403 176.249 C 204.405 175.497,205.363 173.475,207.727 169.238 C 211.491 162.490,221.669 159.531,228.664 163.151 M287.800 188.790 C 267.207 192.229,265.769 217.492,286.000 220.404 C 287.210 220.578,288.862 221.005,289.670 221.353 C 290.479 221.701,292.189 222.102,293.470 222.243 C 294.752 222.384,296.340 222.731,297.000 223.015 C 297.660 223.299,298.830 223.729,299.600 223.971 C 304.823 225.611,306.077 233.037,301.400 234.632 C 300.960 234.782,300.060 235.286,299.400 235.752 C 298.316 236.518,297.678 236.598,292.800 236.577 L 287.400 236.554 285.200 235.079 C 283.990 234.267,282.370 232.804,281.600 231.826 L 280.200 230.049 275.543 230.024 C 270.401 229.997,270.400 229.998,270.400 232.661 C 270.400 235.932,277.132 243.600,280.004 243.600 C 280.297 243.600,280.853 243.886,281.239 244.236 C 282.084 245.000,292.396 246.555,294.200 246.189 C 294.860 246.055,297.051 245.708,299.070 245.417 C 301.088 245.126,303.153 244.598,303.659 244.244 C 304.164 243.890,304.853 243.597,305.189 243.593 C 306.662 243.575,311.442 239.524,313.408 236.626 C 317.587 230.468,315.241 219.408,309.225 216.903 C 308.441 216.577,307.710 216.169,307.600 215.996 C 307.490 215.824,306.595 215.467,305.612 215.202 C 304.628 214.938,303.463 214.469,303.023 214.161 C 302.582 213.852,301.729 213.600,301.126 213.600 C 300.524 213.600,298.629 213.152,296.915 212.605 C 295.202 212.058,293.350 211.609,292.800 211.607 C 291.161 211.602,285.912 209.532,284.300 208.255 C 281.801 206.275,282.673 199.200,285.415 199.200 C 285.644 199.200,286.544 198.816,287.415 198.346 C 289.848 197.034,295.399 197.113,298.424 198.502 C 300.445 199.430,304.400 203.129,304.400 204.093 C 304.400 204.275,306.605 204.374,309.300 204.312 L 314.200 204.200 314.326 202.893 C 314.602 200.030,310.669 193.965,307.482 192.340 C 306.585 191.882,305.601 191.258,305.297 190.954 C 304.992 190.649,304.389 190.400,303.955 190.400 C 303.522 190.400,302.451 190.034,301.573 189.586 C 299.759 188.661,291.450 188.180,287.800 188.790 M69.330 192.255 C 67.582 192.642,64.475 196.228,64.179 198.198 C 63.086 205.491,70.765 210.903,76.350 206.774 C 83.986 201.128,78.693 190.181,69.330 192.255 M325.330 192.255 C 323.582 192.642,320.475 196.228,320.179 198.198 C 319.086 205.491,326.765 210.903,332.350 206.774 C 339.986 201.128,334.693 190.181,325.330 192.255 M141.944 196.409 C 142.903 196.844,143.983 197.200,144.344 197.200 C 144.705 197.201,145.488 197.606,146.085 198.100 C 146.681 198.595,147.883 199.584,148.754 200.297 C 150.580 201.791,152.677 204.733,153.043 206.314 C 153.182 206.911,153.584 207.850,153.937 208.400 C 156.013 211.632,154.719 221.043,151.545 225.800 C 148.674 230.104,145.390 232.198,139.322 233.595 L 135.244 234.534 131.322 233.607 C 124.539 232.005,117.200 226.124,117.200 222.292 C 117.200 221.959,116.844 220.903,116.409 219.944 C 115.309 217.520,115.271 211.424,116.343 209.284 C 116.752 208.468,117.204 207.310,117.348 206.710 C 118.134 203.441,123.387 198.394,127.400 197.056 C 128.500 196.689,129.670 196.214,130.000 196.000 C 131.187 195.233,140.017 195.535,141.944 196.409 M86.000 256.136 C 81.041 257.911,79.337 264.866,82.914 268.736 C 85.536 271.574,90.060 272.756,91.905 271.086 C 92.322 270.709,92.834 270.400,93.042 270.400 C 93.251 270.400,93.940 269.815,94.574 269.100 C 100.262 262.685,94.029 253.263,86.000 256.136 M306.688 257.529 C 300.025 261.345,301.455 270.834,308.928 272.385 C 318.250 274.320,322.429 261.891,313.911 257.563 C 311.031 256.099,309.199 256.091,306.688 257.529 M132.017 303.100 C 124.401 308.734,126.842 318.789,135.717 318.340 C 143.834 317.930,146.437 307.987,139.579 303.587 C 137.331 302.144,133.630 301.906,132.017 303.100 M260.357 304.131 C 255.157 305.822,253.539 313.081,257.513 316.888 C 260.380 319.634,262.890 320.238,265.874 318.900 C 275.547 314.563,270.426 300.856,260.357 304.131 M197.290 320.260 C 195.537 320.642,192.480 324.191,192.180 326.194 C 191.086 333.491,198.763 338.904,204.350 334.774 C 212.011 329.110,206.709 318.211,197.290 320.260 " stroke="none" fill="#fbfbfb" fill-rule="evenodd"></path><path id="path1" d="M75.400 16.645 C 74.520 16.980,73.139 17.420,72.330 17.623 C 69.105 18.430,64.390 21.516,62.150 24.287 C 60.343 26.521,60.113 26.881,58.109 30.600 L 56.600 33.400 56.477 60.754 L 56.354 88.108 52.422 92.154 C 48.150 96.550,46.400 98.546,46.400 99.020 C 46.400 99.187,45.950 99.914,45.400 100.636 C 44.850 101.357,44.400 102.056,44.400 102.190 C 44.400 102.323,44.064 102.920,43.653 103.516 C 41.973 105.954,40.320 108.687,39.374 110.587 C 38.824 111.694,37.312 114.580,36.015 117.000 C 34.718 119.420,33.644 121.693,33.628 122.051 C 33.613 122.409,33.352 122.908,33.050 123.159 C 32.747 123.410,32.275 124.418,32.000 125.400 C 31.725 126.382,31.253 127.390,30.950 127.641 C 30.648 127.892,30.398 128.391,30.396 128.749 C 30.394 129.107,29.950 130.300,29.409 131.400 C 28.868 132.500,28.419 133.739,28.413 134.153 C 28.406 134.567,28.055 135.467,27.634 136.153 C 27.212 136.839,26.742 138.077,26.588 138.904 C 26.435 139.732,25.970 141.075,25.555 141.889 C 25.140 142.703,24.799 143.826,24.798 144.385 C 24.796 144.943,24.511 145.940,24.164 146.600 C 23.817 147.260,23.376 148.756,23.184 149.925 C 22.991 151.093,22.547 152.623,22.195 153.325 C 21.844 154.026,21.403 155.770,21.215 157.200 C 21.027 158.630,20.611 160.430,20.290 161.200 C 19.969 161.970,19.598 163.957,19.465 165.615 C 19.333 167.273,18.954 169.398,18.622 170.337 C 18.291 171.275,17.836 174.419,17.611 177.322 C 17.386 180.225,16.936 184.490,16.610 186.800 C 15.812 192.458,15.812 207.551,16.611 213.200 C 16.938 215.510,17.379 219.740,17.591 222.600 C 17.803 225.460,18.251 228.700,18.587 229.800 C 18.923 230.900,19.303 233.060,19.432 234.600 C 19.561 236.140,19.996 238.300,20.400 239.400 C 20.804 240.500,21.237 242.403,21.362 243.629 C 21.488 244.855,21.881 246.440,22.236 247.153 C 22.592 247.865,22.979 249.202,23.096 250.124 C 23.214 251.046,23.555 252.286,23.855 252.880 C 24.155 253.474,24.604 254.912,24.854 256.076 C 25.103 257.240,25.536 258.554,25.814 258.996 C 26.093 259.438,26.451 260.430,26.610 261.200 C 26.768 261.970,27.211 263.230,27.595 264.000 C 27.978 264.770,28.411 266.057,28.557 266.860 C 28.702 267.663,29.086 268.540,29.411 268.809 C 29.735 269.078,30.000 269.579,30.000 269.923 C 30.000 270.524,30.344 271.334,32.850 276.632 C 33.482 277.969,34.000 279.246,34.000 279.470 C 34.000 279.694,34.360 280.293,34.800 280.800 C 35.240 281.307,35.600 282.031,35.600 282.407 C 35.600 282.784,35.935 283.521,36.345 284.046 C 36.755 284.571,37.223 285.424,37.385 285.941 C 37.547 286.459,38.098 287.499,38.610 288.253 C 39.121 289.006,39.950 290.473,40.452 291.511 C 41.270 293.205,42.653 295.512,43.501 296.600 C 44.429 297.790,46.400 301.132,46.400 301.515 C 46.400 301.760,46.631 302.104,46.914 302.280 C 47.197 302.456,48.135 303.680,48.998 305.000 C 49.861 306.320,50.719 307.580,50.906 307.800 C 51.093 308.020,52.237 309.550,53.450 311.200 C 54.662 312.850,56.617 315.284,57.794 316.610 C 58.972 317.935,60.956 320.275,62.204 321.810 C 66.404 326.974,74.505 334.916,80.759 340.000 C 81.706 340.770,82.778 341.699,83.140 342.064 C 83.920 342.849,88.160 346.178,90.192 347.600 C 90.977 348.150,92.111 349.005,92.710 349.500 C 93.310 349.994,93.919 350.399,94.064 350.400 C 94.209 350.400,95.212 351.099,96.292 351.953 C 97.373 352.807,98.853 353.842,99.581 354.253 C 101.951 355.591,102.384 355.863,103.097 356.458 C 103.484 356.781,104.250 357.270,104.800 357.546 C 105.350 357.821,106.700 358.565,107.800 359.199 C 108.900 359.833,110.226 360.546,110.747 360.784 C 111.268 361.022,112.147 361.572,112.701 362.008 C 113.255 362.444,114.016 362.800,114.392 362.800 C 114.768 362.800,115.402 363.160,115.800 363.600 C 116.198 364.040,116.811 364.406,117.162 364.412 C 117.513 364.419,118.520 364.868,119.400 365.410 C 120.280 365.952,121.293 366.397,121.651 366.398 C 122.009 366.399,122.508 366.648,122.759 366.950 C 123.010 367.253,124.018 367.725,125.000 368.000 C 125.982 368.275,126.981 368.736,127.220 369.024 C 127.459 369.313,128.228 369.670,128.928 369.817 C 129.627 369.965,130.761 370.427,131.447 370.843 C 132.133 371.259,132.994 371.600,133.361 371.600 C 133.727 371.600,134.915 372.050,136.000 372.600 C 137.085 373.150,138.348 373.600,138.807 373.600 C 139.265 373.600,140.162 373.870,140.800 374.200 C 141.438 374.530,142.914 375.003,144.080 375.252 C 145.246 375.500,146.555 375.950,146.989 376.252 C 147.423 376.553,148.274 376.800,148.880 376.800 C 149.486 376.800,151.177 377.250,152.638 377.800 C 154.100 378.350,156.039 378.804,156.948 378.809 C 157.856 378.814,159.330 379.149,160.222 379.555 C 161.115 379.960,163.262 380.424,164.995 380.587 C 166.727 380.749,168.967 381.136,169.972 381.448 C 170.978 381.759,174.172 382.190,177.071 382.405 C 179.970 382.620,183.300 383.022,184.471 383.298 C 187.488 384.009,212.141 383.998,215.242 383.284 C 216.476 383.000,219.806 382.606,222.642 382.409 C 225.479 382.212,228.700 381.783,229.800 381.454 C 230.900 381.126,233.060 380.733,234.600 380.581 C 236.140 380.429,238.030 380.046,238.800 379.730 C 239.570 379.414,241.504 378.990,243.099 378.788 C 244.693 378.586,246.403 378.159,246.899 377.841 C 247.394 377.523,248.694 377.132,249.787 376.973 C 250.880 376.813,252.500 376.353,253.387 375.950 C 254.274 375.547,255.430 375.214,255.956 375.209 C 256.482 375.204,257.652 374.867,258.556 374.460 C 259.460 374.053,261.010 373.443,262.000 373.104 C 265.967 371.748,266.654 371.485,268.000 370.806 C 268.770 370.418,269.973 369.976,270.672 369.824 C 271.372 369.673,272.159 369.290,272.421 368.974 C 272.683 368.658,273.191 368.400,273.549 368.401 C 273.907 368.401,276.090 367.484,278.400 366.363 C 283.026 364.119,282.921 364.172,286.724 362.118 C 288.196 361.323,290.202 360.246,291.181 359.725 C 292.161 359.203,293.255 358.512,293.613 358.188 C 293.970 357.865,294.416 357.600,294.602 357.600 C 294.916 357.600,296.291 356.728,302.547 352.563 C 306.995 349.602,309.032 348.199,309.615 347.695 C 310.217 347.175,312.065 345.754,314.418 344.000 C 315.156 343.450,316.045 342.730,316.394 342.400 C 316.743 342.070,318.192 340.810,319.614 339.600 C 324.137 335.752,325.702 334.305,330.000 329.996 C 334.096 325.889,335.918 323.924,339.600 319.644 C 340.590 318.494,341.850 317.037,342.400 316.407 C 343.602 315.031,343.774 314.808,345.797 312.000 C 346.669 310.790,347.579 309.620,347.819 309.400 C 348.059 309.180,348.603 308.478,349.028 307.840 C 349.453 307.203,350.070 306.284,350.400 305.798 C 350.934 305.013,353.755 300.776,354.793 299.200 C 355.011 298.870,355.728 297.790,356.387 296.800 C 357.046 295.810,357.589 294.784,357.593 294.520 C 357.597 294.256,357.851 293.896,358.157 293.720 C 358.463 293.544,359.009 292.770,359.370 292.000 C 359.730 291.230,360.485 289.790,361.046 288.800 C 363.266 284.884,368.401 274.375,368.401 273.749 C 368.400 273.501,368.658 273.083,368.974 272.821 C 369.290 272.559,369.674 271.772,369.828 271.072 C 369.981 270.373,370.443 269.173,370.853 268.406 C 371.264 267.639,371.601 266.649,371.601 266.206 C 371.602 265.763,371.952 264.828,372.378 264.129 C 372.804 263.430,373.275 262.170,373.425 261.329 C 373.575 260.488,374.035 259.239,374.449 258.553 C 374.862 257.867,375.204 256.787,375.209 256.153 C 375.214 255.519,375.575 254.212,376.012 253.248 C 376.449 252.285,376.921 250.755,377.060 249.848 C 377.200 248.942,377.648 247.338,378.057 246.285 C 378.466 245.232,378.800 243.841,378.800 243.194 C 378.800 242.546,379.140 240.888,379.556 239.508 C 380.706 235.695,381.942 228.072,382.785 219.600 C 383.015 217.290,383.401 213.960,383.642 212.200 C 384.201 208.125,383.831 192.399,383.016 185.600 C 382.687 182.850,382.410 179.520,382.402 178.200 C 382.393 176.880,382.105 174.540,381.761 173.000 C 381.418 171.460,380.897 168.490,380.605 166.400 C 380.312 164.310,379.876 162.092,379.636 161.472 C 379.395 160.852,379.000 159.052,378.758 157.472 C 378.515 155.892,378.166 154.414,377.982 154.187 C 377.798 153.960,377.372 152.456,377.036 150.843 C 376.700 149.231,376.247 147.698,376.030 147.436 C 375.813 147.174,375.512 146.159,375.361 145.180 C 375.211 144.201,374.775 142.770,374.393 142.000 C 374.010 141.230,373.562 139.970,373.395 139.200 C 373.229 138.430,372.757 137.173,372.347 136.406 C 371.936 135.639,371.600 134.644,371.600 134.195 C 371.600 133.746,371.356 133.023,371.057 132.589 C 370.758 132.155,370.285 131.080,370.005 130.200 C 369.726 129.320,369.267 128.150,368.986 127.600 C 368.705 127.050,368.028 125.610,367.480 124.400 C 366.933 123.190,365.430 120.093,364.142 117.517 C 362.854 114.942,361.471 112.170,361.069 111.357 C 360.666 110.545,360.081 109.624,359.769 109.311 C 359.456 108.999,359.200 108.418,359.200 108.020 C 359.200 107.623,358.917 107.063,358.571 106.776 C 358.225 106.489,357.593 105.611,357.167 104.827 C 356.079 102.824,355.533 101.974,354.500 100.672 C 354.005 100.049,353.600 99.360,353.600 99.143 C 353.600 98.812,352.732 97.518,351.089 95.400 C 350.919 95.180,350.199 94.101,349.489 93.002 C 348.780 91.903,347.930 90.726,347.600 90.385 C 347.270 90.044,346.640 89.260,346.200 88.642 C 341.888 82.587,330.574 70.087,324.911 65.121 C 323.832 64.174,321.791 62.384,320.375 61.143 C 318.959 59.902,317.229 58.372,316.531 57.743 C 315.048 56.407,314.893 56.286,312.000 54.207 C 310.790 53.338,309.689 52.469,309.554 52.277 C 309.419 52.085,308.946 51.719,308.503 51.464 C 308.060 51.209,306.395 50.100,304.803 49.000 C 300.533 46.050,298.697 44.860,297.784 44.450 C 297.335 44.248,296.727 43.795,296.435 43.442 C 296.142 43.089,295.678 42.800,295.405 42.800 C 295.132 42.800,294.404 42.404,293.788 41.919 C 292.560 40.953,290.053 39.608,281.000 35.058 C 277.700 33.399,274.512 31.925,273.916 31.782 C 273.320 31.639,272.623 31.269,272.367 30.961 C 272.111 30.652,271.609 30.398,271.251 30.396 C 270.893 30.394,269.700 29.950,268.600 29.409 C 267.500 28.868,266.268 28.419,265.862 28.413 C 265.456 28.406,264.646 28.065,264.062 27.655 C 263.478 27.246,262.301 26.783,261.446 26.627 C 260.591 26.471,259.244 25.996,258.452 25.572 C 257.660 25.147,256.598 24.800,256.093 24.800 C 255.588 24.800,254.505 24.519,253.687 24.176 C 252.869 23.832,251.120 23.306,249.800 23.006 C 248.480 22.705,246.680 22.184,245.800 21.847 C 244.920 21.511,243.611 21.227,242.890 21.218 C 242.170 21.208,240.556 20.840,239.304 20.400 C 238.052 19.960,236.290 19.600,235.389 19.600 C 234.488 19.600,232.373 19.239,230.688 18.798 C 229.004 18.357,225.415 17.819,222.713 17.604 C 220.011 17.388,215.730 16.945,213.200 16.619 C 207.075 15.831,194.074 15.833,187.400 16.624 C 184.540 16.963,180.130 17.405,177.600 17.606 C 175.070 17.807,171.960 18.246,170.689 18.583 C 169.418 18.920,167.348 19.306,166.089 19.442 C 164.830 19.577,162.630 20.016,161.200 20.417 C 159.770 20.818,157.702 21.265,156.605 21.412 C 155.508 21.558,154.158 21.900,153.605 22.173 C 153.052 22.445,151.557 22.893,150.283 23.167 C 149.009 23.441,147.479 23.919,146.883 24.230 C 146.287 24.541,145.260 24.797,144.600 24.799 C 143.940 24.801,142.828 25.152,142.129 25.578 C 141.430 26.004,140.174 26.481,139.337 26.638 C 138.501 26.795,137.273 27.255,136.608 27.660 C 135.944 28.065,135.039 28.398,134.597 28.399 C 134.155 28.399,132.948 28.850,131.915 29.400 C 130.882 29.950,129.690 30.400,129.267 30.400 C 128.844 30.400,128.292 30.648,128.041 30.950 C 127.790 31.253,126.782 31.725,125.800 32.000 C 124.818 32.275,123.810 32.747,123.559 33.050 C 123.308 33.352,122.873 33.600,122.593 33.600 C 121.970 33.600,110.470 39.420,109.614 40.168 C 109.276 40.464,108.611 40.824,108.136 40.968 C 107.661 41.113,107.054 41.494,106.787 41.815 C 106.520 42.137,105.722 42.400,105.012 42.400 L 103.722 42.400 103.456 37.739 C 103.249 34.115,103.013 32.791,102.395 31.791 C 101.958 31.084,101.597 30.257,101.593 29.953 C 101.573 28.473,96.686 22.455,94.205 20.855 C 90.974 18.772,88.744 17.606,87.986 17.602 C 87.649 17.601,86.348 17.240,85.096 16.800 C 82.341 15.832,77.727 15.758,75.400 16.645 M84.766 33.573 C 85.866 34.444,86.802 35.686,87.431 37.108 L 88.400 39.300 88.400 55.801 C 88.400 69.760,88.490 72.377,88.982 72.785 C 89.703 73.383,89.518 73.501,95.588 68.585 C 98.345 66.353,101.039 64.294,101.575 64.009 C 102.111 63.725,102.741 63.334,102.975 63.141 C 104.298 62.050,106.619 60.407,108.825 59.000 C 110.205 58.120,111.738 57.130,112.232 56.800 C 113.967 55.641,117.591 53.600,117.916 53.600 C 118.097 53.600,118.855 53.150,119.600 52.600 C 120.345 52.050,121.253 51.600,121.616 51.600 C 121.979 51.600,122.593 51.250,122.979 50.823 C 123.366 50.395,124.192 49.934,124.814 49.797 C 125.436 49.660,126.144 49.309,126.387 49.016 C 126.630 48.723,127.429 48.371,128.163 48.233 C 128.897 48.096,129.908 47.627,130.410 47.192 C 130.912 46.756,131.672 46.400,132.099 46.400 C 132.527 46.400,133.356 46.059,133.942 45.641 C 134.528 45.224,135.731 44.688,136.616 44.450 C 137.501 44.211,138.579 43.748,139.012 43.421 C 139.446 43.093,140.250 42.814,140.800 42.800 C 141.350 42.786,142.700 42.332,143.800 41.791 C 144.900 41.250,146.165 40.806,146.611 40.804 C 147.057 40.802,147.777 40.553,148.211 40.252 C 148.645 39.950,149.954 39.500,151.120 39.252 C 152.286 39.003,153.762 38.530,154.400 38.200 C 155.038 37.870,156.014 37.600,156.568 37.600 C 157.122 37.600,158.954 37.150,160.639 36.600 C 162.324 36.050,164.377 35.600,165.201 35.600 C 166.025 35.600,167.478 35.325,168.429 34.990 C 169.381 34.654,171.969 34.201,174.180 33.983 C 176.391 33.765,179.640 33.279,181.400 32.903 C 186.089 31.901,214.319 31.891,218.800 32.890 C 220.450 33.257,223.767 33.759,226.172 34.004 C 228.576 34.249,231.163 34.708,231.921 35.025 C 232.678 35.341,234.063 35.600,234.998 35.600 C 235.933 35.600,238.076 36.050,239.761 36.600 C 241.446 37.150,243.276 37.600,243.828 37.600 C 244.380 37.600,245.538 37.960,246.400 38.400 C 247.262 38.840,248.380 39.204,248.884 39.209 C 249.388 39.214,250.585 39.574,251.544 40.009 C 252.503 40.444,253.583 40.802,253.944 40.804 C 254.305 40.806,255.500 41.250,256.600 41.791 C 257.700 42.332,259.061 42.781,259.624 42.787 C 260.186 42.794,260.996 43.067,261.424 43.394 C 261.851 43.720,262.914 44.187,263.786 44.432 C 264.658 44.677,265.807 45.220,266.340 45.639 C 266.872 46.057,267.619 46.400,268.000 46.400 C 268.381 46.400,269.150 46.760,269.709 47.200 C 270.269 47.640,270.931 48.000,271.182 48.000 C 271.879 48.000,277.492 50.701,277.787 51.179 C 277.930 51.410,278.383 51.600,278.793 51.600 C 279.203 51.600,280.073 52.050,280.727 52.600 C 281.381 53.150,282.123 53.600,282.377 53.600 C 282.631 53.600,283.923 54.320,285.248 55.200 C 286.573 56.080,287.815 56.800,288.008 56.800 C 288.201 56.800,288.844 57.250,289.438 57.800 C 290.031 58.350,290.733 58.800,290.996 58.800 C 291.260 58.800,291.802 59.160,292.200 59.600 C 292.598 60.040,293.167 60.400,293.465 60.400 C 293.762 60.400,294.397 60.850,294.875 61.400 C 295.353 61.950,295.901 62.400,296.093 62.400 C 296.285 62.400,297.808 63.435,299.477 64.700 C 301.145 65.965,303.400 67.665,304.487 68.478 C 310.649 73.088,325.254 87.530,330.186 93.890 C 330.634 94.467,331.728 95.853,332.618 96.970 C 335.330 100.372,337.600 103.546,337.600 103.934 C 337.600 104.136,337.875 104.530,338.211 104.809 C 338.972 105.440,341.200 108.713,341.200 109.199 C 341.200 109.397,341.650 110.044,342.200 110.638 C 342.750 111.231,343.200 111.948,343.200 112.230 C 343.200 112.512,343.430 112.981,343.710 113.271 C 344.195 113.774,347.689 119.870,348.713 122.000 C 348.978 122.550,349.376 123.270,349.597 123.600 C 349.819 123.930,350.180 124.650,350.399 125.200 C 350.619 125.750,350.963 126.470,351.164 126.800 C 351.365 127.130,352.009 128.480,352.594 129.800 C 353.180 131.120,354.096 133.055,354.629 134.100 C 355.163 135.145,355.601 136.315,355.601 136.700 C 355.602 137.085,355.962 137.989,356.401 138.710 C 356.841 139.430,357.202 140.330,357.204 140.710 C 357.206 141.089,357.656 142.363,358.204 143.540 C 358.752 144.717,359.200 146.022,359.200 146.441 C 359.200 146.860,359.560 147.875,360.000 148.696 C 360.440 149.516,360.800 150.564,360.800 151.024 C 360.800 151.484,361.250 153.149,361.800 154.723 C 362.350 156.297,362.800 158.010,362.800 158.530 C 362.800 159.050,363.160 160.521,363.600 161.800 C 364.040 163.079,364.408 164.862,364.418 165.763 C 364.427 166.663,364.698 168.120,365.019 169.000 C 365.340 169.880,365.788 172.310,366.016 174.400 C 366.244 176.490,366.616 179.370,366.844 180.800 C 368.210 189.393,368.361 213.919,367.085 220.000 C 366.739 221.650,366.279 224.620,366.064 226.600 C 365.848 228.580,365.388 231.010,365.042 232.000 C 364.695 232.990,364.409 234.474,364.406 235.298 C 364.403 236.123,364.053 237.833,363.629 239.098 C 363.205 240.364,362.735 242.190,362.584 243.156 C 362.434 244.122,361.975 245.652,361.564 246.556 C 361.154 247.460,360.814 248.653,360.809 249.206 C 360.804 249.759,360.440 250.884,360.000 251.704 C 359.560 252.525,359.200 253.656,359.200 254.217 C 359.200 254.778,358.750 256.082,358.200 257.115 C 357.650 258.148,357.200 259.306,357.200 259.687 C 357.200 260.069,356.841 260.970,356.401 261.690 C 355.962 262.411,355.602 263.252,355.601 263.560 C 355.600 264.065,354.018 267.694,353.143 269.200 C 352.951 269.530,352.592 270.250,352.344 270.800 C 351.449 272.791,349.589 276.622,349.044 277.600 C 348.737 278.150,348.275 279.050,348.017 279.600 C 347.039 281.680,343.822 287.094,341.344 290.829 C 340.385 292.275,339.600 293.662,339.600 293.909 C 339.600 294.157,339.366 294.504,339.081 294.680 C 338.795 294.856,337.441 296.530,336.073 298.400 C 330.880 305.495,328.533 308.434,325.400 311.767 C 316.217 321.536,309.988 327.410,304.600 331.380 C 304.160 331.705,302.720 332.841,301.400 333.906 C 300.080 334.970,298.010 336.504,296.800 337.315 C 295.590 338.126,293.700 339.419,292.600 340.189 C 291.500 340.958,290.375 341.591,290.100 341.594 C 289.825 341.597,289.600 341.776,289.600 341.992 C 289.600 342.207,288.925 342.752,288.100 343.202 C 287.275 343.652,285.970 344.406,285.200 344.877 C 282.726 346.392,280.640 347.574,279.000 348.392 C 278.120 348.831,277.130 349.356,276.800 349.560 C 276.277 349.882,274.977 350.486,270.800 352.348 C 270.250 352.594,269.530 352.954,269.200 353.149 C 268.870 353.344,267.430 353.992,266.000 354.590 C 264.570 355.188,262.734 356.020,261.921 356.438 C 261.107 356.857,260.129 357.200,259.747 357.200 C 259.365 357.200,258.321 357.540,257.426 357.955 C 256.532 358.370,254.916 358.920,253.837 359.177 C 252.757 359.433,251.502 359.904,251.048 360.222 C 250.594 360.540,249.715 360.800,249.095 360.800 C 248.475 360.800,247.281 361.150,246.442 361.579 C 245.603 362.007,243.945 362.486,242.758 362.643 C 241.571 362.800,239.880 363.256,239.000 363.656 C 238.120 364.055,236.618 364.386,235.662 364.391 C 234.706 364.396,232.726 364.753,231.262 365.184 C 229.798 365.615,226.593 366.158,224.139 366.391 C 221.685 366.624,219.075 367.036,218.339 367.307 C 216.368 368.033,183.160 368.008,181.200 367.280 C 180.430 366.994,177.775 366.581,175.301 366.363 C 172.826 366.145,169.698 365.615,168.349 365.184 C 167.000 364.753,165.064 364.396,164.048 364.391 C 163.032 364.386,161.472 364.052,160.582 363.648 C 159.692 363.243,157.974 362.789,156.764 362.638 C 155.553 362.487,154.031 362.012,153.381 361.584 C 152.732 361.156,151.660 360.798,151.000 360.789 C 150.340 360.780,149.080 360.425,148.200 360.000 C 147.320 359.575,146.233 359.221,145.785 359.214 C 145.336 359.206,144.284 358.850,143.446 358.423 C 142.608 357.996,141.355 357.522,140.661 357.369 C 139.280 357.066,136.825 356.038,133.941 354.556 C 132.919 354.030,131.777 353.600,131.404 353.600 C 131.031 353.600,130.269 353.240,129.709 352.800 C 129.150 352.360,128.475 352.000,128.210 352.000 C 127.786 352.000,124.059 350.207,122.400 349.204 C 121.748 348.810,120.327 348.081,117.753 346.817 C 116.847 346.373,115.880 345.737,115.604 345.405 C 115.328 345.072,114.912 344.800,114.680 344.800 C 114.448 344.800,113.075 344.020,111.629 343.066 C 109.093 341.394,107.326 340.256,105.942 339.405 C 103.862 338.126,100.478 335.749,99.715 335.032 C 99.229 334.574,98.419 333.888,97.915 333.506 C 97.412 333.125,96.280 332.267,95.400 331.601 C 90.443 327.847,80.747 318.660,74.926 312.200 C 71.790 308.721,68.255 304.464,66.600 302.175 C 66.160 301.566,65.534 300.799,65.208 300.471 C 64.883 300.142,63.983 298.933,63.208 297.784 C 60.299 293.468,58.895 291.342,57.670 289.400 C 56.977 288.300,56.137 287.048,55.805 286.619 C 55.472 286.189,55.200 285.632,55.200 285.381 C 55.200 285.129,54.840 284.598,54.400 284.200 C 53.960 283.802,53.600 283.179,53.600 282.816 C 53.600 282.453,53.150 281.545,52.600 280.800 C 52.050 280.055,51.600 279.234,51.600 278.976 C 51.600 278.719,51.265 278.079,50.855 277.554 C 50.445 277.029,49.974 276.150,49.808 275.600 C 49.641 275.050,49.271 274.330,48.984 274.000 C 48.697 273.670,48.331 272.860,48.170 272.200 C 48.009 271.540,47.545 270.571,47.139 270.046 C 46.733 269.521,46.400 268.856,46.400 268.567 C 46.400 268.279,45.950 267.196,45.400 266.162 C 44.850 265.127,44.400 264.037,44.400 263.739 C 44.400 263.441,44.040 262.525,43.600 261.704 C 43.160 260.884,42.800 259.937,42.800 259.600 C 42.800 259.263,42.466 258.361,42.059 257.594 C 41.651 256.827,41.188 255.501,41.030 254.646 C 40.873 253.791,40.396 252.444,39.972 251.652 C 39.547 250.860,39.200 249.705,39.200 249.086 C 39.200 248.467,38.901 247.384,38.536 246.680 C 38.170 245.976,37.649 244.230,37.378 242.800 C 37.106 241.370,36.603 239.480,36.259 238.600 C 35.916 237.720,35.627 236.139,35.618 235.087 C 35.608 234.035,35.326 232.518,34.991 231.716 C 34.655 230.913,34.196 228.444,33.969 226.228 C 33.743 224.013,33.259 220.760,32.895 219.000 C 32.021 214.776,31.889 185.545,32.727 182.000 C 33.014 180.790,33.498 177.691,33.804 175.113 C 34.109 172.535,34.639 169.604,34.980 168.599 C 35.321 167.594,35.600 166.143,35.600 165.373 C 35.600 164.604,35.944 162.945,36.365 161.687 C 36.786 160.429,37.260 158.500,37.418 157.400 C 37.576 156.300,38.041 154.732,38.453 153.916 C 38.864 153.100,39.200 151.927,39.200 151.310 C 39.200 150.693,39.547 149.540,39.972 148.748 C 40.396 147.956,40.873 146.609,41.030 145.754 C 41.188 144.899,41.651 143.573,42.059 142.806 C 42.466 142.039,42.800 141.137,42.800 140.800 C 42.800 140.463,43.160 139.516,43.600 138.696 C 44.040 137.875,44.400 136.976,44.400 136.698 C 44.400 136.421,44.850 135.348,45.400 134.315 C 45.950 133.282,46.400 132.183,46.400 131.872 C 46.400 131.562,46.749 130.864,47.175 130.322 C 47.602 129.780,48.076 128.811,48.229 128.168 C 48.382 127.526,48.724 126.730,48.988 126.400 C 49.252 126.070,49.702 125.210,49.987 124.490 C 50.602 122.936,50.728 122.954,55.400 125.290 C 65.271 130.225,65.080 130.025,63.356 133.621 C 62.781 134.820,61.866 136.790,61.321 138.000 C 60.776 139.210,60.009 140.830,59.615 141.600 C 59.222 142.370,58.777 143.567,58.627 144.261 C 58.477 144.954,58.004 146.208,57.577 147.046 C 57.150 147.884,56.800 148.892,56.800 149.286 C 56.800 149.680,56.440 150.675,56.000 151.496 C 55.560 152.316,55.200 153.448,55.200 154.009 C 55.200 154.571,54.834 155.744,54.388 156.615 C 53.941 157.487,53.418 159.301,53.225 160.647 C 53.033 161.993,52.588 163.649,52.238 164.327 C 51.887 165.005,51.600 166.170,51.600 166.916 C 51.600 167.662,51.234 169.696,50.786 171.436 C 50.338 173.176,49.804 176.580,49.599 179.000 C 49.394 181.420,48.952 185.110,48.616 187.200 C 47.808 192.232,47.810 205.876,48.619 211.600 C 48.946 213.910,49.386 217.870,49.596 220.400 C 49.807 222.930,50.344 226.338,50.790 227.973 C 51.235 229.608,51.604 231.588,51.609 232.373 C 51.614 233.158,51.945 234.520,52.344 235.400 C 52.744 236.280,53.195 237.937,53.347 239.082 C 53.499 240.227,53.974 241.937,54.403 242.882 C 54.831 243.827,55.192 245.050,55.205 245.600 C 55.217 246.150,55.575 247.320,56.000 248.200 C 56.425 249.080,56.779 250.163,56.786 250.606 C 56.794 251.049,57.134 252.039,57.541 252.806 C 57.949 253.573,58.514 254.920,58.798 255.800 C 59.082 256.680,59.558 257.755,59.857 258.189 C 60.156 258.623,60.400 259.364,60.400 259.835 C 60.400 260.306,60.760 261.150,61.200 261.709 C 61.640 262.269,62.000 262.865,62.000 263.035 C 62.000 263.549,66.418 272.364,66.791 272.595 C 66.982 272.713,67.253 273.328,67.392 273.963 C 67.531 274.598,67.995 275.434,68.423 275.821 C 68.850 276.207,69.200 276.752,69.200 277.031 C 69.200 277.310,69.650 278.073,70.200 278.727 C 70.750 279.381,71.200 280.078,71.200 280.276 C 71.200 280.475,71.470 280.989,71.799 281.419 C 72.385 282.182,74.157 284.778,77.114 289.200 C 77.922 290.410,78.718 291.458,78.882 291.530 C 79.045 291.601,80.083 292.902,81.187 294.420 C 85.375 300.178,101.456 316.306,105.516 318.820 C 106.112 319.189,107.057 319.920,107.615 320.445 C 108.543 321.319,109.323 321.907,111.796 323.600 C 112.278 323.930,113.447 324.740,114.393 325.400 C 115.340 326.060,116.494 326.818,116.957 327.085 C 117.421 327.352,118.070 327.755,118.400 327.980 C 121.332 329.977,122.666 330.787,123.038 330.793 C 123.279 330.797,123.793 331.150,124.179 331.577 C 124.566 332.005,125.386 332.465,126.000 332.600 C 126.614 332.735,127.434 333.195,127.821 333.623 C 128.207 334.050,128.832 334.400,129.208 334.400 C 129.584 334.400,130.336 334.749,130.878 335.175 C 131.420 335.602,132.337 336.069,132.915 336.214 C 133.494 336.360,134.177 336.731,134.433 337.039 C 134.689 337.348,135.119 337.600,135.389 337.600 C 135.660 337.600,136.727 338.050,137.762 338.600 C 138.796 339.150,139.824 339.600,140.047 339.600 C 140.269 339.600,141.435 340.050,142.637 340.600 C 143.840 341.150,145.105 341.600,145.449 341.600 C 145.793 341.600,146.531 341.960,147.091 342.400 C 147.650 342.840,148.539 343.200,149.067 343.200 C 149.594 343.200,150.695 343.498,151.513 343.862 C 152.987 344.517,156.129 345.501,159.600 346.393 C 160.590 346.648,162.570 347.200,164.000 347.620 C 165.430 348.040,167.680 348.502,169.000 348.646 C 170.320 348.790,172.210 349.165,173.200 349.479 C 174.190 349.792,176.800 350.207,179.000 350.400 C 181.200 350.593,185.153 351.032,187.785 351.375 C 193.998 352.186,206.327 352.188,212.200 351.377 C 214.620 351.044,218.490 350.612,220.800 350.418 C 223.110 350.224,225.872 349.794,226.938 349.461 C 228.003 349.128,230.073 348.730,231.538 348.578 C 233.002 348.425,234.671 348.060,235.247 347.767 C 235.822 347.474,237.382 347.059,238.713 346.845 C 240.044 346.631,241.669 346.178,242.324 345.839 C 242.980 345.500,244.300 345.100,245.258 344.949 C 246.216 344.798,247.362 344.440,247.805 344.154 C 248.248 343.867,249.541 343.433,250.679 343.189 C 251.817 342.945,252.962 342.487,253.223 342.172 C 253.484 341.858,254.042 341.600,254.462 341.600 C 254.883 341.600,256.115 341.150,257.200 340.600 C 258.285 340.050,259.517 339.600,259.938 339.600 C 260.358 339.600,260.925 339.331,261.198 339.003 C 261.470 338.674,262.437 338.208,263.347 337.966 C 264.256 337.724,265.270 337.294,265.600 337.010 C 265.930 336.727,266.650 336.359,267.200 336.192 C 267.750 336.026,268.629 335.555,269.154 335.145 C 269.679 334.735,270.416 334.400,270.792 334.400 C 271.168 334.400,271.793 334.050,272.179 333.623 C 272.566 333.195,273.386 332.735,274.000 332.600 C 274.614 332.465,275.434 332.005,275.821 331.577 C 276.207 331.150,276.721 330.797,276.962 330.793 C 277.203 330.789,278.210 330.246,279.200 329.587 C 280.190 328.928,281.270 328.211,281.600 327.994 C 287.460 324.140,291.334 321.459,291.997 320.800 C 292.329 320.470,293.770 319.316,295.200 318.236 C 298.740 315.562,298.419 315.859,307.220 307.144 C 311.522 302.885,316.190 297.881,317.596 296.025 C 319.001 294.168,320.432 292.367,320.775 292.022 C 321.119 291.676,322.072 290.405,322.894 289.197 C 323.715 287.989,324.926 286.280,325.585 285.400 C 326.244 284.520,326.979 283.350,327.219 282.801 C 327.459 282.251,327.942 281.485,328.292 281.098 C 329.017 280.297,329.716 279.151,330.566 277.368 C 330.889 276.691,331.423 275.913,331.751 275.641 C 332.080 275.368,332.460 274.636,332.597 274.014 C 332.734 273.392,333.195 272.566,333.623 272.179 C 334.050 271.793,334.400 271.168,334.400 270.792 C 334.400 270.416,334.749 269.664,335.175 269.122 C 335.602 268.580,336.069 267.663,336.214 267.085 C 336.360 266.506,336.731 265.823,337.039 265.567 C 337.348 265.311,337.600 264.881,337.600 264.611 C 337.600 264.340,338.050 263.273,338.600 262.238 C 339.150 261.204,339.600 260.107,339.600 259.800 C 339.600 259.493,340.050 258.396,340.600 257.362 C 341.150 256.327,341.601 255.193,341.603 254.840 C 341.604 254.488,341.963 253.660,342.400 253.000 C 342.837 252.340,343.202 251.350,343.210 250.800 C 343.218 250.250,343.668 248.900,344.209 247.800 C 344.750 246.700,345.194 245.328,345.196 244.751 C 345.198 244.174,345.540 242.914,345.956 241.951 C 346.371 240.988,346.839 239.302,346.994 238.205 C 347.150 237.108,347.506 235.758,347.785 235.205 C 348.065 234.652,348.415 233.083,348.564 231.719 C 348.713 230.354,349.109 228.284,349.444 227.119 C 349.778 225.953,350.205 223.200,350.392 221.000 C 350.580 218.800,351.018 214.941,351.366 212.425 C 352.170 206.626,352.178 195.765,351.385 189.400 C 351.056 186.760,350.621 182.530,350.420 180.000 C 350.219 177.470,349.865 174.860,349.634 174.200 C 349.403 173.540,348.951 171.341,348.629 169.314 C 348.307 167.287,347.871 165.307,347.661 164.914 C 347.451 164.521,347.150 163.300,346.992 162.200 C 346.835 161.100,346.381 159.390,345.984 158.400 C 345.587 157.410,345.145 155.901,345.003 155.046 C 344.860 154.191,344.396 152.844,343.972 152.052 C 343.547 151.260,343.199 150.159,343.199 149.606 C 343.198 149.053,342.859 148.045,342.445 147.367 C 342.031 146.688,341.561 145.533,341.400 144.800 C 341.239 144.067,340.769 142.912,340.355 142.233 C 339.941 141.555,339.602 140.617,339.601 140.149 C 339.601 139.681,339.326 139.071,338.992 138.793 C 338.657 138.515,338.187 137.509,337.947 136.556 C 337.707 135.604,337.261 134.617,336.956 134.363 C 336.650 134.110,336.400 133.679,336.400 133.407 C 336.400 133.134,335.950 132.249,335.400 131.438 C 334.850 130.628,334.400 129.737,334.400 129.460 C 334.400 129.182,333.950 128.345,333.400 127.600 C 332.850 126.855,332.400 125.914,332.400 125.510 C 332.400 125.106,332.146 124.678,331.837 124.559 C 331.527 124.440,331.039 123.770,330.752 123.071 C 330.466 122.372,329.518 120.720,328.646 119.400 C 327.774 118.080,326.597 116.286,326.030 115.413 C 325.464 114.541,324.685 113.506,324.300 113.113 C 323.915 112.721,323.600 112.227,323.600 112.016 C 323.600 111.804,322.827 110.679,321.882 109.516 C 320.937 108.352,319.201 106.157,318.025 104.638 C 316.848 103.119,315.596 101.505,315.243 101.053 C 314.412 99.989,299.946 85.650,298.645 84.600 C 298.100 84.160,297.147 83.401,296.527 82.914 C 295.907 82.426,293.813 80.770,291.873 79.232 C 289.933 77.695,287.998 76.326,287.573 76.191 C 287.148 76.056,286.800 75.772,286.800 75.560 C 286.800 75.348,286.479 75.045,286.087 74.887 C 285.695 74.729,284.930 74.279,284.387 73.887 C 282.790 72.734,278.283 69.843,277.200 69.277 C 276.650 68.989,275.300 68.235,274.200 67.600 C 273.100 66.965,271.750 66.236,271.200 65.980 C 270.650 65.724,269.930 65.358,269.600 65.166 C 268.036 64.258,263.272 62.000,262.919 62.000 C 262.701 62.000,262.107 61.640,261.600 61.200 C 261.093 60.760,260.238 60.400,259.701 60.400 C 259.163 60.400,258.246 60.062,257.662 59.650 C 257.078 59.237,255.985 58.766,255.233 58.603 C 254.482 58.440,253.312 57.969,252.633 57.555 C 251.955 57.141,250.947 56.802,250.394 56.801 C 249.841 56.801,248.761 56.466,247.994 56.059 C 247.227 55.651,245.886 55.185,245.014 55.024 C 244.141 54.863,242.971 54.503,242.414 54.224 C 241.856 53.945,240.276 53.501,238.901 53.238 C 237.527 52.975,235.778 52.499,235.014 52.180 C 234.250 51.861,233.035 51.599,232.313 51.597 C 231.591 51.596,229.470 51.212,227.600 50.745 C 225.730 50.277,222.490 49.756,220.400 49.587 C 218.310 49.417,214.350 48.993,211.600 48.643 C 205.211 47.830,193.618 47.822,188.000 48.627 C 185.690 48.957,181.910 49.392,179.600 49.592 C 177.290 49.792,174.050 50.322,172.400 50.769 C 170.750 51.216,168.843 51.585,168.163 51.591 C 167.482 51.596,165.952 51.934,164.763 52.342 C 163.573 52.750,161.700 53.217,160.600 53.379 C 159.500 53.542,158.408 53.832,158.174 54.025 C 157.940 54.217,156.680 54.630,155.374 54.942 C 154.068 55.255,152.460 55.799,151.800 56.153 C 151.140 56.506,150.205 56.796,149.721 56.798 C 149.238 56.799,147.996 57.250,146.962 57.800 C 145.927 58.350,144.793 58.801,144.440 58.803 C 144.088 58.804,143.260 59.163,142.600 59.600 C 141.940 60.037,141.095 60.396,140.721 60.397 C 140.348 60.399,139.248 60.822,138.277 61.339 C 137.305 61.855,136.171 62.390,135.755 62.527 C 135.340 62.664,134.730 62.958,134.400 63.179 C 134.070 63.400,133.170 63.851,132.400 64.182 C 131.630 64.513,130.730 64.940,130.400 65.130 C 129.666 65.553,128.199 66.350,126.600 67.196 C 125.940 67.544,124.860 68.167,124.200 68.579 C 123.540 68.991,122.370 69.722,121.600 70.204 C 120.072 71.161,114.321 74.976,111.056 77.200 C 109.058 78.560,107.790 79.555,106.451 80.810 C 106.093 81.146,104.397 82.477,102.682 83.767 C 97.631 87.567,96.805 87.368,118.605 87.600 L 137.400 87.800 139.324 88.755 C 145.825 91.983,145.669 100.263,139.047 103.395 L 136.923 104.400 104.884 104.400 L 72.845 104.400 72.223 103.511 C 71.672 102.725,71.600 98.974,71.600 71.011 L 71.601 39.400 72.744 36.983 C 74.408 33.466,76.951 31.891,80.635 32.095 C 82.684 32.208,83.338 32.442,84.766 33.573 M204.371 65.242 C 211.814 70.745,206.967 81.546,197.824 79.831 C 190.800 78.513,190.363 65.767,197.290 64.260 C 199.457 63.789,203.086 64.292,204.371 65.242 M267.730 81.973 C 269.690 82.719,271.569 84.798,272.199 86.922 C 275.040 96.489,262.216 101.975,257.486 93.216 C 254.052 86.859,260.877 79.368,267.730 81.973 M314.308 129.199 C 317.962 131.103,320.530 136.412,318.843 138.573 C 318.660 138.808,318.403 139.453,318.271 140.006 C 317.227 144.397,309.384 145.936,305.683 142.477 C 299.322 136.532,306.672 125.219,314.308 129.199 M141.674 148.647 C 143.283 149.003,145.355 149.423,146.279 149.581 C 147.202 149.738,148.192 150.058,148.479 150.292 C 148.765 150.526,149.765 150.944,150.700 151.222 C 151.635 151.500,152.400 151.861,152.400 152.024 C 152.400 152.188,152.908 152.499,153.528 152.715 C 155.909 153.545,162.060 159.188,163.648 162.000 C 165.362 165.033,165.586 165.462,166.379 167.226 C 166.830 168.231,167.200 169.334,167.200 169.677 C 167.200 170.021,167.481 170.974,167.823 171.794 C 168.678 173.841,168.823 173.800,160.668 173.800 L 153.401 173.800 152.987 172.600 C 148.945 160.877,131.529 157.727,122.235 167.038 C 120.631 168.644,119.200 170.479,119.200 170.929 C 119.200 171.125,118.750 171.819,118.200 172.473 C 117.650 173.127,117.200 173.918,117.200 174.232 C 117.200 174.546,116.840 175.475,116.400 176.296 C 115.960 177.116,115.600 178.110,115.600 178.504 C 115.600 178.898,115.235 180.250,114.788 181.510 C 113.982 183.785,112.920 193.893,113.365 195.054 C 113.738 196.026,115.096 195.674,115.505 194.499 C 116.087 192.831,121.140 187.880,123.269 186.893 C 124.296 186.416,125.243 185.854,125.373 185.644 C 125.503 185.433,126.192 185.140,126.905 184.992 C 127.617 184.843,128.602 184.467,129.094 184.155 C 131.575 182.584,146.198 182.589,148.598 184.162 C 149.134 184.513,149.893 184.803,150.286 184.806 C 150.679 184.809,151.450 185.068,152.000 185.382 C 152.550 185.695,153.616 186.237,154.369 186.585 C 157.811 188.175,164.024 194.445,165.385 197.703 C 165.717 198.496,166.171 199.258,166.394 199.396 C 166.617 199.534,166.800 199.959,166.800 200.339 C 166.800 200.720,167.171 201.744,167.623 202.615 C 170.410 207.979,169.672 223.582,166.365 229.200 C 166.171 229.530,165.767 230.340,165.468 231.000 C 165.169 231.660,164.626 232.447,164.262 232.749 C 163.898 233.051,163.600 233.511,163.600 233.771 C 163.600 235.308,155.696 241.995,151.600 243.922 C 144.486 247.269,131.891 248.328,125.698 246.100 C 124.323 245.605,122.952 245.200,122.652 245.200 C 122.353 245.200,121.650 244.840,121.091 244.400 C 120.531 243.960,119.822 243.600,119.515 243.600 C 118.858 243.600,116.405 241.893,112.951 239.033 C 111.139 237.532,107.000 232.469,106.631 231.300 C 106.474 230.805,106.203 230.400,106.027 230.400 C 105.852 230.400,105.399 229.590,105.021 228.600 C 104.643 227.610,104.183 226.800,103.999 226.800 C 103.814 226.800,103.542 226.215,103.393 225.500 C 103.244 224.785,102.805 223.648,102.418 222.973 C 102.030 222.297,101.580 220.860,101.418 219.778 C 101.255 218.696,100.842 217.268,100.498 216.605 C 99.883 215.419,99.764 214.420,98.755 201.919 C 98.305 196.353,98.324 195.123,98.924 191.113 C 99.296 188.624,99.600 185.865,99.600 184.981 C 99.600 184.097,99.881 182.390,100.225 181.187 C 100.569 179.984,101.087 177.878,101.375 176.506 C 101.664 175.134,102.193 173.565,102.550 173.020 C 102.908 172.474,103.206 171.707,103.212 171.314 C 103.219 170.921,103.668 169.880,104.210 169.000 C 104.752 168.120,105.197 167.094,105.198 166.720 C 105.199 166.346,105.440 165.896,105.733 165.720 C 106.026 165.544,106.758 164.485,107.360 163.366 C 109.246 159.864,116.039 153.425,118.700 152.619 C 119.195 152.469,119.600 152.207,119.600 152.036 C 119.600 151.866,120.363 151.498,121.297 151.218 C 122.230 150.939,123.350 150.460,123.786 150.155 C 124.221 149.850,125.033 149.590,125.589 149.578 C 126.145 149.566,127.860 149.222,129.400 148.813 C 132.928 147.877,137.889 147.810,141.674 148.647 M228.000 148.833 C 230.090 149.299,232.340 149.923,233.000 150.219 C 236.303 151.706,237.093 152.079,238.200 152.680 C 238.860 153.037,239.635 153.661,239.923 154.065 C 240.210 154.469,240.611 154.800,240.814 154.800 C 241.017 154.800,242.167 155.835,243.370 157.100 C 247.309 161.243,247.238 161.151,248.803 164.200 C 249.255 165.080,249.788 166.070,249.988 166.400 C 250.817 167.767,252.400 171.752,252.400 172.470 C 252.400 172.896,252.751 174.013,253.179 174.954 C 253.607 175.894,254.139 178.090,254.360 179.832 C 254.581 181.574,254.995 183.630,255.281 184.400 C 256.021 186.396,256.022 210.001,255.282 212.000 C 254.996 212.770,254.601 214.664,254.403 216.208 C 254.205 217.753,253.677 219.823,253.230 220.808 C 252.783 221.794,252.414 222.990,252.409 223.467 C 252.401 224.239,250.981 227.597,249.985 229.200 C 249.780 229.530,249.367 230.340,249.068 231.000 C 248.769 231.660,248.226 232.447,247.862 232.749 C 247.498 233.051,247.200 233.454,247.200 233.646 C 247.200 234.066,244.884 237.138,243.557 238.479 C 241.150 240.910,234.407 245.200,232.993 245.200 C 232.668 245.200,231.277 245.597,229.902 246.082 C 223.695 248.269,212.127 246.918,205.746 243.260 C 201.775 240.984,195.600 235.178,195.600 233.721 C 195.600 233.503,195.264 233.020,194.852 232.648 C 194.441 232.275,193.522 230.763,192.808 229.286 C 192.095 227.808,191.262 226.122,190.956 225.538 C 190.650 224.954,190.400 224.137,190.400 223.723 C 190.400 223.308,190.046 222.275,189.613 221.426 C 189.181 220.577,188.702 218.784,188.551 217.441 C 188.399 216.099,188.008 214.370,187.681 213.600 C 186.404 210.586,186.324 184.979,187.583 181.800 C 187.844 181.140,188.302 179.340,188.601 177.800 C 189.208 174.671,190.753 170.013,191.468 169.156 C 191.725 168.848,192.070 168.057,192.234 167.398 C 192.520 166.247,192.793 165.755,194.726 162.916 C 195.207 162.210,195.600 161.518,195.600 161.378 C 195.600 161.156,198.298 158.140,199.400 157.131 C 207.857 149.385,217.680 146.535,228.000 148.833 M215.000 162.941 C 212.017 164.418,208.920 167.099,207.727 169.238 C 205.363 173.475,204.405 175.497,204.403 176.249 C 204.401 176.716,204.059 177.886,203.643 178.849 C 203.226 179.812,202.761 181.860,202.609 183.400 C 202.457 184.940,202.079 187.910,201.769 190.000 C 201.057 194.798,201.058 199.881,201.774 205.000 C 202.081 207.200,202.462 210.430,202.621 212.178 C 202.779 213.925,203.240 216.085,203.645 216.978 C 204.051 217.870,204.386 218.926,204.391 219.325 C 204.414 221.220,208.102 227.461,210.581 229.800 C 216.969 235.827,227.762 235.418,233.115 228.947 C 235.771 225.737,236.400 224.872,236.400 224.429 C 236.400 224.178,236.850 223.085,237.400 222.000 C 237.950 220.915,238.400 219.667,238.400 219.228 C 238.400 218.789,238.737 217.568,239.150 216.515 C 239.868 214.679,240.585 208.904,241.074 201.000 C 241.375 196.147,240.131 182.107,239.148 179.248 C 238.736 178.053,238.400 176.759,238.400 176.373 C 238.400 175.681,236.862 172.272,235.368 169.653 C 231.267 162.464,222.078 159.436,215.000 162.941 M301.573 189.586 C 302.451 190.034,303.522 190.400,303.955 190.400 C 304.389 190.400,304.992 190.649,305.297 190.954 C 305.601 191.258,306.585 191.882,307.482 192.340 C 310.669 193.965,314.602 200.030,314.326 202.893 L 314.200 204.200 309.300 204.312 C 306.605 204.374,304.400 204.275,304.400 204.093 C 304.400 203.129,300.445 199.430,298.424 198.502 C 295.399 197.113,289.848 197.034,287.415 198.346 C 286.544 198.816,285.644 199.200,285.415 199.200 C 282.673 199.200,281.801 206.275,284.300 208.255 C 285.912 209.532,291.161 211.602,292.800 211.607 C 293.350 211.609,295.202 212.058,296.915 212.605 C 298.629 213.152,300.524 213.600,301.126 213.600 C 301.729 213.600,302.582 213.852,303.023 214.161 C 303.463 214.469,304.628 214.938,305.612 215.202 C 306.595 215.467,307.490 215.824,307.600 215.996 C 307.710 216.169,308.441 216.577,309.225 216.903 C 315.241 219.408,317.587 230.468,313.408 236.626 C 311.442 239.524,306.662 243.575,305.189 243.593 C 304.853 243.597,304.164 243.890,303.659 244.244 C 303.153 244.598,301.088 245.126,299.070 245.417 C 297.051 245.708,294.860 246.055,294.200 246.189 C 292.396 246.555,282.084 245.000,281.239 244.236 C 280.853 243.886,280.297 243.600,280.004 243.600 C 277.132 243.600,270.400 235.932,270.400 232.661 C 270.400 229.998,270.401 229.997,275.543 230.024 L 280.200 230.049 281.600 231.826 C 282.370 232.804,283.990 234.267,285.200 235.079 L 287.400 236.554 292.800 236.577 C 297.678 236.598,298.316 236.518,299.400 235.752 C 300.060 235.286,300.960 234.782,301.400 234.632 C 306.077 233.037,304.823 225.611,299.600 223.971 C 298.830 223.729,297.660 223.299,297.000 223.015 C 296.340 222.731,294.752 222.384,293.470 222.243 C 292.189 222.102,290.479 221.701,289.670 221.353 C 288.862 221.005,287.210 220.578,286.000 220.404 C 283.833 220.092,280.680 218.887,278.068 217.372 C 268.725 211.955,269.592 197.440,279.598 191.756 C 285.427 188.446,297.082 187.295,301.573 189.586 M76.371 193.242 C 82.412 197.708,80.322 207.225,73.150 207.914 C 65.202 208.678,60.860 199.929,66.455 194.422 C 68.717 192.195,69.215 192.015,72.648 192.181 C 74.464 192.269,75.426 192.543,76.371 193.242 M332.371 193.242 C 338.412 197.708,336.322 207.225,329.150 207.914 C 321.202 208.678,316.860 199.929,322.455 194.422 C 324.717 192.195,325.215 192.015,328.648 192.181 C 330.464 192.269,331.426 192.543,332.371 193.242 M130.000 196.000 C 129.670 196.214,128.500 196.689,127.400 197.056 C 123.387 198.394,118.134 203.441,117.348 206.710 C 117.204 207.310,116.752 208.468,116.343 209.284 C 115.271 211.424,115.309 217.520,116.409 219.944 C 116.844 220.903,117.200 221.959,117.200 222.292 C 117.200 226.124,124.539 232.005,131.322 233.607 L 135.244 234.534 139.322 233.595 C 145.390 232.198,148.674 230.104,151.545 225.800 C 154.719 221.043,156.013 211.632,153.937 208.400 C 153.584 207.850,153.182 206.911,153.043 206.314 C 152.677 204.733,150.580 201.791,148.754 200.297 C 147.883 199.584,146.681 198.595,146.085 198.100 C 145.488 197.606,144.705 197.201,144.344 197.200 C 143.983 197.200,142.903 196.844,141.944 196.409 C 140.017 195.535,131.187 195.233,130.000 196.000 M91.400 256.039 C 95.246 257.082,97.839 262.082,96.464 265.804 C 95.737 267.773,93.781 270.400,93.042 270.400 C 92.834 270.400,92.322 270.709,91.905 271.086 C 89.254 273.485,82.975 270.464,81.414 266.038 C 79.234 259.860,84.831 254.256,91.400 256.039 M313.911 257.563 C 322.429 261.891,318.250 274.320,308.928 272.385 C 301.455 270.834,300.025 261.345,306.688 257.529 C 309.199 256.091,311.031 256.099,313.911 257.563 M139.579 303.587 C 146.437 307.987,143.834 317.930,135.717 318.340 C 126.842 318.789,124.401 308.734,132.017 303.100 C 133.630 301.906,137.331 302.144,139.579 303.587 M265.800 304.039 C 269.476 305.036,271.813 309.373,270.811 313.337 C 269.655 317.909,264.095 320.875,260.280 318.956 C 250.963 314.268,255.757 301.313,265.800 304.039 M204.371 321.242 C 211.814 326.745,206.967 337.546,197.824 335.831 C 190.800 334.513,190.363 321.767,197.290 320.260 C 199.457 319.789,203.086 320.292,204.371 321.242 " stroke="none" fill="#040404" fill-rule="evenodd"></path></g></svg>